<mxfile host="app.diagrams.net" agent="Mozilla/5.0 (Windows NT 10.0; Win64; x64) AppleWebKit/537.36 (KHTML, like Gecko) Chrome/127.0.0.0 Safari/537.36" version="24.7.7">
  <diagram name="페이지-1" id="EXH33RECPfJxR1_QK61h">
    <mxGraphModel dx="1434" dy="786" grid="1" gridSize="10" guides="1" tooltips="1" connect="1" arrows="1" fold="1" page="1" pageScale="1" pageWidth="827" pageHeight="1169" math="0" shadow="0">
      <root>
        <mxCell id="0" />
        <mxCell id="1" parent="0" />
        <mxCell id="1GOSfQdHCJdYXFayeqEW-1" value="&lt;h1&gt;&lt;br&gt;&lt;/h1&gt;" style="rounded=1;whiteSpace=wrap;html=1;arcSize=8;" parent="1" vertex="1">
          <mxGeometry x="120" y="170" width="490" height="450" as="geometry" />
        </mxCell>
        <mxCell id="1GOSfQdHCJdYXFayeqEW-9" value="&lt;h1&gt;MemoryManager&lt;/h1&gt;" style="rounded=1;whiteSpace=wrap;html=1;" parent="1" vertex="1">
          <mxGeometry x="310" y="420" width="280" height="140" as="geometry" />
        </mxCell>
        <mxCell id="1GOSfQdHCJdYXFayeqEW-2" value="chat.html" style="whiteSpace=wrap;html=1;aspect=fixed;" parent="1" vertex="1">
          <mxGeometry x="10" y="190" width="80" height="80" as="geometry" />
        </mxCell>
        <mxCell id="1GOSfQdHCJdYXFayeqEW-3" value="" style="curved=1;endArrow=classic;html=1;rounded=0;entryX=1;entryY=0.5;entryDx=0;entryDy=0;" parent="1" source="1GOSfQdHCJdYXFayeqEW-4" target="1GOSfQdHCJdYXFayeqEW-2" edge="1">
          <mxGeometry width="50" height="50" relative="1" as="geometry">
            <mxPoint x="330" y="320" as="sourcePoint" />
            <mxPoint x="380" y="270" as="targetPoint" />
            <Array as="points">
              <mxPoint x="120" y="250" />
            </Array>
          </mxGeometry>
        </mxCell>
        <mxCell id="1GOSfQdHCJdYXFayeqEW-4" value="/" style="text;html=1;align=center;verticalAlign=middle;whiteSpace=wrap;rounded=0;fontStyle=1;fontSize=14;" parent="1" vertex="1">
          <mxGeometry x="90" y="190" width="80" height="30" as="geometry" />
        </mxCell>
        <mxCell id="1GOSfQdHCJdYXFayeqEW-5" value="/send" style="text;html=1;align=center;verticalAlign=middle;whiteSpace=wrap;rounded=0;fontStyle=1;fontSize=14;" parent="1" vertex="1">
          <mxGeometry x="80" y="320" width="60" height="30" as="geometry" />
        </mxCell>
        <mxCell id="1GOSfQdHCJdYXFayeqEW-8" value="&lt;h1&gt;Chatbot&lt;/h1&gt;" style="rounded=1;whiteSpace=wrap;html=1;" parent="1" vertex="1">
          <mxGeometry x="150" y="305" width="150" height="255" as="geometry" />
        </mxCell>
        <mxCell id="1GOSfQdHCJdYXFayeqEW-28" value="send_request" style="ellipse;shape=cloud;whiteSpace=wrap;html=1;labelBackgroundColor=none;fillColor=#ffe6cc;strokeColor=#d79b00;" parent="1" vertex="1">
          <mxGeometry x="160" y="320" width="120" height="80" as="geometry" />
        </mxCell>
        <mxCell id="1GOSfQdHCJdYXFayeqEW-74" value="" style="endArrow=classic;html=1;rounded=0;exitX=0;exitY=0.5;exitDx=0;exitDy=0;entryX=0.708;entryY=0.9;entryDx=0;entryDy=0;entryPerimeter=0;" parent="1" source="7SB77RebNlp5_hPHHmRt-4" target="1GOSfQdHCJdYXFayeqEW-28" edge="1">
          <mxGeometry width="50" height="50" relative="1" as="geometry">
            <mxPoint x="400" y="540" as="sourcePoint" />
            <mxPoint x="450" y="490" as="targetPoint" />
          </mxGeometry>
        </mxCell>
        <mxCell id="1GOSfQdHCJdYXFayeqEW-87" value="" style="endArrow=classic;html=1;rounded=0;exitX=1;exitY=0.5;exitDx=0;exitDy=0;entryX=0.13;entryY=0.77;entryDx=0;entryDy=0;entryPerimeter=0;" parent="1" source="7SB77RebNlp5_hPHHmRt-1" target="1GOSfQdHCJdYXFayeqEW-69" edge="1">
          <mxGeometry width="50" height="50" relative="1" as="geometry">
            <mxPoint x="368.44000000000005" y="534.03" as="sourcePoint" />
            <mxPoint x="450" y="490" as="targetPoint" />
          </mxGeometry>
        </mxCell>
        <mxCell id="1GOSfQdHCJdYXFayeqEW-101" value="&lt;h1&gt;Server&lt;/h1&gt;" style="text;html=1;align=center;verticalAlign=middle;whiteSpace=wrap;rounded=0;" parent="1" vertex="1">
          <mxGeometry x="335" y="220" width="60" height="30" as="geometry" />
        </mxCell>
        <mxCell id="1GOSfQdHCJdYXFayeqEW-53" value="filter" style="ellipse;shape=cloud;whiteSpace=wrap;html=1;" parent="1" vertex="1">
          <mxGeometry x="320" y="400" width="120" height="80" as="geometry" />
        </mxCell>
        <mxCell id="1GOSfQdHCJdYXFayeqEW-68" value="" style="endArrow=classic;html=1;rounded=0;entryX=0.96;entryY=0.7;entryDx=0;entryDy=0;entryPerimeter=0;exitX=0;exitY=0.5;exitDx=0;exitDy=0;" parent="1" source="1GOSfQdHCJdYXFayeqEW-103" target="1GOSfQdHCJdYXFayeqEW-53" edge="1">
          <mxGeometry width="50" height="50" relative="1" as="geometry">
            <mxPoint x="670" y="700" as="sourcePoint" />
            <mxPoint x="450" y="490" as="targetPoint" />
          </mxGeometry>
        </mxCell>
        <mxCell id="1GOSfQdHCJdYXFayeqEW-107" value="Yes" style="edgeLabel;html=1;align=center;verticalAlign=middle;resizable=0;points=[];" parent="1GOSfQdHCJdYXFayeqEW-68" vertex="1" connectable="0">
          <mxGeometry x="-0.1898" y="-1" relative="1" as="geometry">
            <mxPoint as="offset" />
          </mxGeometry>
        </mxCell>
        <mxCell id="1GOSfQdHCJdYXFayeqEW-105" value="" style="endArrow=classic;html=1;rounded=0;exitX=0.5;exitY=0;exitDx=0;exitDy=0;entryX=0.875;entryY=0.5;entryDx=0;entryDy=0;entryPerimeter=0;" parent="1" source="1GOSfQdHCJdYXFayeqEW-103" target="1GOSfQdHCJdYXFayeqEW-28" edge="1">
          <mxGeometry width="50" height="50" relative="1" as="geometry">
            <mxPoint x="400" y="520" as="sourcePoint" />
            <mxPoint x="450" y="470" as="targetPoint" />
            <Array as="points" />
          </mxGeometry>
        </mxCell>
        <mxCell id="1GOSfQdHCJdYXFayeqEW-106" value="No" style="edgeLabel;html=1;align=center;verticalAlign=middle;resizable=0;points=[];" parent="1GOSfQdHCJdYXFayeqEW-105" vertex="1" connectable="0">
          <mxGeometry x="-0.6508" y="1" relative="1" as="geometry">
            <mxPoint x="-89" y="-36" as="offset" />
          </mxGeometry>
        </mxCell>
        <mxCell id="7SB77RebNlp5_hPHHmRt-1" value="/make-memory" style="text;html=1;align=center;verticalAlign=middle;whiteSpace=wrap;rounded=0;fontStyle=1;fontSize=14;" vertex="1" parent="1">
          <mxGeometry x="80" y="570" width="120" height="30" as="geometry" />
        </mxCell>
        <mxCell id="1GOSfQdHCJdYXFayeqEW-69" value="summarize" style="ellipse;shape=cloud;whiteSpace=wrap;html=1;" parent="1" vertex="1">
          <mxGeometry x="383" y="510" width="120" height="80" as="geometry" />
        </mxCell>
        <mxCell id="1GOSfQdHCJdYXFayeqEW-73" value="" style="endArrow=classic;html=1;rounded=0;exitX=0.96;exitY=0.7;exitDx=0;exitDy=0;exitPerimeter=0;entryX=0;entryY=0.75;entryDx=0;entryDy=0;" parent="1" source="1GOSfQdHCJdYXFayeqEW-69" target="1GOSfQdHCJdYXFayeqEW-10" edge="1">
          <mxGeometry width="50" height="50" relative="1" as="geometry">
            <mxPoint x="481" y="553" as="sourcePoint" />
            <mxPoint x="615" y="505" as="targetPoint" />
          </mxGeometry>
        </mxCell>
        <mxCell id="1GOSfQdHCJdYXFayeqEW-54" value="need_memory" style="ellipse;shape=cloud;whiteSpace=wrap;html=1;" parent="1" vertex="1">
          <mxGeometry x="440" y="355" width="120" height="80" as="geometry" />
        </mxCell>
        <mxCell id="1GOSfQdHCJdYXFayeqEW-72" value="" style="endArrow=classic;html=1;rounded=0;exitX=0.923;exitY=0.41;exitDx=0;exitDy=0;exitPerimeter=0;entryX=0.12;entryY=0.653;entryDx=0;entryDy=0;entryPerimeter=0;" parent="1" source="1GOSfQdHCJdYXFayeqEW-69" target="1GOSfQdHCJdYXFayeqEW-70" edge="1">
          <mxGeometry width="50" height="50" relative="1" as="geometry">
            <mxPoint x="400" y="540" as="sourcePoint" />
            <mxPoint x="650" y="450" as="targetPoint" />
          </mxGeometry>
        </mxCell>
        <mxCell id="1GOSfQdHCJdYXFayeqEW-103" value="" style="rhombus;whiteSpace=wrap;html=1;" parent="1" vertex="1">
          <mxGeometry x="473" y="436" width="30" height="32" as="geometry" />
        </mxCell>
        <mxCell id="7SB77RebNlp5_hPHHmRt-3" value="" style="curved=1;endArrow=classic;html=1;rounded=0;exitX=0.875;exitY=0.825;exitDx=0;exitDy=0;exitPerimeter=0;entryX=1;entryY=0.5;entryDx=0;entryDy=0;" edge="1" parent="1" source="1GOSfQdHCJdYXFayeqEW-54" target="1GOSfQdHCJdYXFayeqEW-103">
          <mxGeometry width="50" height="50" relative="1" as="geometry">
            <mxPoint x="650" y="510" as="sourcePoint" />
            <mxPoint x="700" y="460" as="targetPoint" />
            <Array as="points">
              <mxPoint x="640" y="470" />
              <mxPoint x="600" y="490" />
            </Array>
          </mxGeometry>
        </mxCell>
        <mxCell id="7SB77RebNlp5_hPHHmRt-5" value="" style="endArrow=classic;html=1;rounded=0;exitX=0.25;exitY=0.25;exitDx=0;exitDy=0;exitPerimeter=0;entryX=1;entryY=0.5;entryDx=0;entryDy=0;" edge="1" parent="1" source="1GOSfQdHCJdYXFayeqEW-53" target="7SB77RebNlp5_hPHHmRt-4">
          <mxGeometry width="50" height="50" relative="1" as="geometry">
            <mxPoint x="335" y="420" as="sourcePoint" />
            <mxPoint x="270" y="397" as="targetPoint" />
          </mxGeometry>
        </mxCell>
        <mxCell id="7SB77RebNlp5_hPHHmRt-4" value="" style="rhombus;whiteSpace=wrap;html=1;" vertex="1" parent="1">
          <mxGeometry x="305" y="390" width="30" height="32" as="geometry" />
        </mxCell>
        <mxCell id="7SB77RebNlp5_hPHHmRt-6" value="" style="endArrow=classic;html=1;rounded=0;exitX=0.5;exitY=0;exitDx=0;exitDy=0;entryX=0.96;entryY=0.7;entryDx=0;entryDy=0;entryPerimeter=0;" edge="1" parent="1" source="7SB77RebNlp5_hPHHmRt-4" target="1GOSfQdHCJdYXFayeqEW-28">
          <mxGeometry width="50" height="50" relative="1" as="geometry">
            <mxPoint x="308" y="418" as="sourcePoint" />
            <mxPoint x="280" y="407" as="targetPoint" />
          </mxGeometry>
        </mxCell>
        <mxCell id="7SB77RebNlp5_hPHHmRt-8" value="" style="endArrow=classic;html=1;rounded=0;exitX=0.16;exitY=0.55;exitDx=0;exitDy=0;exitPerimeter=0;entryX=1;entryY=1;entryDx=0;entryDy=0;" edge="1" parent="1" source="1GOSfQdHCJdYXFayeqEW-28" target="1GOSfQdHCJdYXFayeqEW-5">
          <mxGeometry width="50" height="50" relative="1" as="geometry">
            <mxPoint x="650" y="510" as="sourcePoint" />
            <mxPoint x="700" y="460" as="targetPoint" />
          </mxGeometry>
        </mxCell>
        <mxCell id="7SB77RebNlp5_hPHHmRt-9" value="" style="curved=1;endArrow=classic;html=1;rounded=0;exitX=1;exitY=0.5;exitDx=0;exitDy=0;entryX=0.25;entryY=0.25;entryDx=0;entryDy=0;entryPerimeter=0;" edge="1" parent="1" source="1GOSfQdHCJdYXFayeqEW-5" target="1GOSfQdHCJdYXFayeqEW-54">
          <mxGeometry width="50" height="50" relative="1" as="geometry">
            <mxPoint x="650" y="510" as="sourcePoint" />
            <mxPoint x="700" y="460" as="targetPoint" />
            <Array as="points">
              <mxPoint x="230" y="310" />
              <mxPoint x="400" y="330" />
            </Array>
          </mxGeometry>
        </mxCell>
        <mxCell id="7SB77RebNlp5_hPHHmRt-10" value="" style="ellipse;shape=cloud;whiteSpace=wrap;html=1;" vertex="1" parent="1">
          <mxGeometry x="570" y="170" width="120" height="80" as="geometry" />
        </mxCell>
        <mxCell id="7SB77RebNlp5_hPHHmRt-13" value="" style="shape=image;verticalLabelPosition=bottom;labelBackgroundColor=default;verticalAlign=top;aspect=fixed;imageAspect=0;image=data:image/png,iVBORw0KGgoAAAANSUhEUgAAARkAAAFNCAYAAAA0Dxv2AAAABGdBTUEAALGPC/xhBQAAACBjSFJNAAB6JgAAgIQAAPoAAACA6AAAdTAAAOpgAAA6mAAAF3CculE8AAAACXBIWXMAABJ0AAASdAHeZh94AAAABmJLR0QA/wD/AP+gvaeTAAAAB3RJTUUH5wgOExAOpCCfFwAAACV0RVh0ZGF0ZTpjcmVhdGUAMjAyMy0wOC0xNFQxOToxNjoxNyswMDowMLDVK/oAAAAldEVYdGRhdGU6bW9kaWZ5ADIwMjMtMDgtMTRUMTk6MTY6MTQrMDA6MDDwYInbAABZsklEQVR4Xu2dB3wURfvHHyAkkEAghZLQQhJ67x2CdBAUkCaIgiAgKNUuxV5eFUWqikpXkCK9I7333kIIECA9oYQQwv7nN7fxz8t7gdzN3u7eZb6fG8hOcltnf/NMe54c6Q8VhSQSicRB5FT/l0gkEocgRUYikTgUKTISicShSJGRSCQORYqMRCJxKFJkJBKJQ5EiI5FIHIoUGYlE4lCkyEgkEociZ/zaSI4cLKk/WwM3U95R10E+b3GkyGSBjIKW9uABxcXF082bNyk2NoaSkpJZAVPIw8Od/P38qXCRwlSkSFHy9MzL/x53Vt5c5yPjeT94kE7xCQl04/p1iomNZc876d/n7ceed6FChdjzLkL5vLz4d6TgWEeKzBPIyQpO+sOHdPlyJG3d+g9t2byZjhw5wkXm9u3bdP/+fcvf5cxJefPmJV9fXypTpiw1adKEnmnRgqpXq8YFR4qNc4Dnjdfh6tVrtH37Ntq0aRMdPnSIoqKirD7vggULUkhICDVq1JhatGxJNWvWpPz5vOTzfgwpMlbgtRK7LefPn6fZs2bT4sV/0cWLF1nN9kD9i6fj5+dHYWFh1K//q9Sc/Q+xeSjvtCnB84YqhF+6RPPmzaVFCxfS2bNnKS0tzfIHWQCC07hxY+rPnner1q24dSOftwUpMo+B2iwxMYlmz5lNUyZP5kIDwbEXb29v6tTpORo9ZgxVq1qF5eSQtZyJwPNOTr5F8+fPp8mTf6TTp0/TQ2a92ku+fPmofYcO9PZbb1ONmjXY05bPW4rMI6DAnTp1msaPH0fLly//1zzWgtDQUHrv/ffpxV69yCNPHtl2NwF43qfPnKGPP/6Yli5ZQqmpqepvxCldujR/3n369KE82fx55xo/fsIE9edsDUzmf/75hwYNGkSbN2+m9PR09TfaEB8fT5s2bqS7KSlUu3Yd8szLCp76O4n+WJ73Vhr02mu0ccMGzZ93YmIiL0d3796lOux5583Gz1uKDAMFbvXqNTRk8GBuLjsKtPH37tlDMTHRVL9BA95ul0JjBAqtWLGSXh8yxOHPe9++fRQbG0cNGzUkLwwCqL/LTmR7kYHJvIHVZENfH0KXLl1Scx0H2vsYoYqJjqYmTZpm24JnFKhQVq5cSW8MG0qXL19Wcx1HxvPG8DdGHfPk8VB/k33I1iIDgTlw4CANHjyId/DqBTqSjx8/zppOd6lp02bk7p5b/Y3EkeB5b9u6jVsweghMBnjeR48e5SNYjRo3Jje3XOpvsgfZVmRQ4K5cvcosmKG0f/8+NVc/UPCOsYKXL19+qle/Hqth5QoPR4LnfebMWRoyZDCdPHlSzdUPWDSHDx+mwMBAqlmjppqbPciWJRsm8717qfTVV1/RP/9sUXP15969e/T111/RmjVr+EsgcQx43gmJiTRu3FhmuR5Qc/UHE/o+/fRT2rN3T7Z63tlTZFhaumwpzZ41i1sURhIbG0sfMWPywsWLUmgcxMOHCv3800+0bNkyNcc4LkdE0GeffkZx8fFc/LID2U5k8CJfvBhOX335Jd26dUvNNZaDBw/St998w62r7FLw9ALPe+fOnfT9Dz/YNIPXkaxbt5Z+++033keTHch2IoNFb9NnTLd0xJkIzDhdywqf1BjtgGAnJiXTN9/8h65HRam5xoPlKdOmTuWd/9nBes1WIoMHum//fpo7Z46aYx6Sk5Np4nff0c2b0dKa0QjcRqxDWr9unSXDRISHh9P06dPpflrW18M5K9lGZPDi3ktNpZ9mzKAbN26oueZi585dtGDBAmnNaAAqFKyenzptqqbLBbTkr78W0d5s0AmcfUSGpX1799HKlSssGSYkPf0BzZz5C12KiMgWZrQjQXcHmqBHjxyxZJiQmJgY+u3X3yj1vjn6ihxFthEZmKWzZ8+muLg4NUccLO8vUaIE5cyl3eQqzOH4848/1S2JPUCg0RyZM2e2pqOHBQoUoJIlS1IuDZ/3qlUruc8aV65UsoXI4AEeP36MVq9epeaIU65cOfrt999p3foNNGDAAHJ3d1d/IwZeCtTAMPWlNWM/f/31F505c0bdEqd8hQo0k1kd6zfgeQ+k3Lm1maUdHR1NC/5YwJ2juSxw9eDqiX2UsWPHokrTJJUqFaRs3LSZ7dVCUnKyMmLkSMXNzc3q39uaWE2pTJ48he/b2vXIlHkCV69FKTVq1LB6b+1J5cuXV7Zv32HZOSMxMUkZ+NprSo4cOaz+va0pJDRUOXf+PN+3tWty9uTyIgOuXrumVKte3eoDtjV5eXkpM2f+yoXr0WPExccr3bv3sPode1KTJk2V2Li4/zqOTE9P4NffflOYpWH1vtqaChUqpPy9fAXf76PHuHr1mhIW1tzqd2xNOXPmVCb9+CPf76PX4iopWzSXMBnrjEZL+rt17049e/VUtyzAzaKvjw+NnzCeKlWqpOaKcfDgAdqxY4ccabIBjCDeun2b/lq0SJOJd+h7efPN4dShffv/cqWJn4sVCyRmHVOhwoXVXPvBuqYVy1dQ8q3bLjl9weVFBh2+K1as0GQYkzWTaPjw4eSZ1+Ic/FFQ8CqydvvIUaO4JzRR4OwI3tqywzwKrcD7iUWIu3bttmQIAlccA18byMTmf18TPO+mTZtSn9591BwxDrBK5dixYy5Zqbi0yKDjNPLyZdrFLBkt6NOnN1WtUvW/arVHQfYLXV+gli1bWTIE2bp1K4WHyzVNWQXCv3r1akpMTFBz7Cd//vw0YsQIKsIslcyeN1w29H+1PwUHB6s59pMAz4mbNqpbroXLWzK79+ymK1euqFv2A5+tL/buTTmf8MajkBco4E1DhgzhDsRFiYyMpM2bjVsl7kygmYFQNevWajO7t03bttSyVUtecWQGt14rVqQXunVTc8TYwp51YlKSyzWZXFpk0h6kc7+6WrTPOz33HB+2zqxWywC/bhbWTBNrBm31DevXUUrKPZdsq2sJbs/BQwfp3LmzlgwBUEEMeHUAeXl6/k+z+HFysgfTo0cPCggIVHPsB9MsTp8+43JNJpcVGRgcN2/c4D5WRfHx8aEunbtQrpxPv10olCic8FLvyf4XBWutLly8IDuAnwLEf8P6DbwvSxT0tTRs1OiJVkwGOC46+5s/01zNsR84m9+9e5e65Tq4tCVz/MQJTdws1q9fn2rUrJmlQgfwd82aNaNatWpZMgRAiNQ9e/aoWxJrwMqDX54dO3eoOfaDSZU9evb6NxJkVvBg3+nSpYsmHf47tm+ne6naheIxAy4tMvv27RWu2XKwEty+fQebCh3+ztfXh55/vjP/vghoMm395x85yvQEcIdPnTxJ58+ds2QIUKFCBR7x01YaNGhAZcuWVbfsB+4fsIDXlTr7XVJk8F7fTblHB1hTQ5SAgADex2IPbdq2oeLFi6tb9gOXkdeZRSNHmTJn566d3F2GKG3btaPAYoFP7Xt7FPxt0aIBrMn0jJpjP4i7ffrUKXXLNXBNkWEJtcEpDR5WterVKTg4JMtNpQxQ8EJCQlkN11DNsR+Mjp06pb/za2cgo0LZs1t8bgw6fNu0aWNX/xcqgLBmYeThIdZkguUNT4muhMs2lxAgH0OaoqDg8NhItqoMI4+HO6sZ2wqv2kXB27Nb9stYA4Jw7epVOnHihCVDgCpVqlK1atVtrlAyQL9dqaBS6pb9HD12lO67kPsHlxUZmJx37txRt+wDNRvClYiATuNixYqpW/aD2g01tmAXj0uCKJBoTorSrFlT8vEpaFeFAss1oGhRqsEsX1HQt4ToCq7yrF1SZB6kP6SjR8WdFcFXTJkyZdQt20HBCwoqzWs4UeC2AG4BpMb8L4ePHBZeNuLl5UXNwpoL3V8E6UOcc1GuMssMo6Ku8qxdTmSg/ohvc+as+KSsKlWqkL9/IZs6AR8nbx4PaqhBv8z161F0/rz46ImrgeFerFcSpVSpUnz2riioUBCwTwQE67+gY0RTR+N6IsNSfHycJt7pq9eoQe653dQt+6lbrx5fCyMC+mWwgE7y/6CzFfNjzmrgnKoGe9ZFihQRqlBAmdBQPiIpQnp6Op+A6Sq4ZHPpetR1YTebmFhVuXIVdct+UGaxHCEoKMiSIcDpU6fh/0fdkoBr165p4hi+fv0GlFswRjWejH+hQhQaGmLJEODihYu82e8KuKTIwBG3aKdvIVZYypQJVbfsB52Ifn5+fJKXKBcunGfXpa/PERwLCVbD01LG3+oJ7olokD5YmVWqVlW37AfPOm/ePOxZize7IiIu8TKs9/10BC4pMheZqQmTUwRMoitUqLDdw5mPgiZXDQ2CrF+6dMkSl0nd1pLHhQT1MhaW3rp1m2JiYunK1at0MfwSnT17jgeuP83SGfbz+fMXKOJyJEVdv0EJCYmUcjeFz1J+dF9IjnpZThw/IfysMfqnhbsGgMusWKkS5czCOrcnAQstISHeJTp/c8A9nvqzS6Cwy3lt4ED69deZao599OrVi2bNnqOJZ3q8ZKvXrKWuXTrzIPv2ki9fPlqxYiWFhTUT7jvgVof6M1aro7MRw8AQ6AsXLtDliMu8szkmNpaSk5J4rQrRwQuNe5wBXiY3NzfyYM1Lb2YRYDFpkSJFqXiJ4vzFLVOmLJUqVZJ3oMPZV4bYYBeiBQ+RGHu/2Is7DRehU6dO9OfCRZo4g8ez/mfrVur47LN8AMJefH19uZP62rVqCj9rw3nUF6crpDt3U5S2bdvhsQil995/XzOfq+DkqVNKYGCg1WNlNcEX7O+/z+L7s3acpyX2sXyXbUTHxCo7d+1Sfpw8Wenb92WlVq1aSpEiRRQPDw+rx7Yn4Xy9vb2VkJAQpU2btsp7772vLF6ylDvNvptyTz0by3k9fq5PS+yjxMUnKHXr1bN6bFvS22+/w8/D2nFsTeDM2bMKs4StHiurCc9h5arVfH/WjuNMyaWaS6glU1JSKDY2Rs2xDyxqLFVSfOZmBig1qN0DA8Um5aEZgiaTLeCeoHZlryW3VP5evoJGjx5NHTq0575r33zjDZo9exaf7IcZ0lpGW8T5Yj0RZl8jyPwXX3xOL/bqSa1btaI+vV+kST/+SIePHOHPLKNZlVXwp2hOwJ2HCHjW6JjXCjxrHx9f3gEswv3794WvzSy4lsiwBBMVpr8IrBbRZHp4BmgaoHNRi1GHyMjLrMmCovxkMsQFL/mmTZtpzOgx1K5dO+rZozt9//1E2r9vH79PrKJUv6EPELGIiAhasmQJjRwxgtrzc+pJ02fMoAsXw5kwpfPzxvk/jZjoGEpiTTkRMAlPq/4YkPGsiwWKObHCc8HkS1fA5Tp+ExIShEUGBa9w4SLqljag8zckVHy0Ci45U+7dzfQl5NYAK6AREZdp2vTp3NlWly6dubAcO3pUqE9Ia2DpYPh5xYrlNGzoUGrbtg33q/vP1m10587dp4pN1PUoYVceGPkrpsFK+UdBJRUgKDIAnb/6VgGOweVEBjW36IuENUs+BQuqW9oREhLCXposVNFPAE2a27f/d3geLySsgOMnTvLQLB3at6M3hg2jzZs3aeICwdGgQ/nihQs0ZfJk6vz8c/RSn9701+IlrMJIylRsMPUezQoRMHGukL+/pi8zzjdQA3ecqDDTXWCujMuJTHxcnHC/AmIeYyRH61qkWLHilDdvXnXLPmClYV5IxjuHAq0wi+DY8RP07jvvUsdnO9Bnn37KFw2KDu0aBa5x2bJl1PelPtS9ezf6448/WbMo2SI26t8ALSbhYfgablK1bjVinpUomM2club8XvJcTmTQiQgzXASITB5BMbBGYVbwPD291C37wFAyOjwBXriLF8NpwoQJ1Knjs/Tdd9/y2l3vfhZHgWe5ccMG6t+/H/Xq1ZNWrlrFmoqWTuL0hwpFa+DKAw7Ac7trE9f6Ufz8/YSnP9xj1/rgQXqW+qfMjMuJTExsjHANjo47tKu1flfR/ocrARHQFExMSKREVrNPnTaNOj3XiT777FOXEpfHgdisXbOGXnzxRRr02mu0b/8Bbq3GxootHQGYz+OId7gga26LigwmN4r2OZkBlxMZLYZgfX3Fa6HHwevvXcCb/Fn7XwT0QaxiNXrv3i/y0Rn4tnVVcXmcW8nJNHfuXHqhaxf69JNP+EibCJhIWLx4CXVLW9CvJ+pYHE0lVJhObsi4nsho8cKhgDwpiJs94LTgmlG0rY5CN23aVFrNhMYV2uv2AHekX3/9FZ1kAisCZilr0XdiDS+vfMIziC0l2fkrENfr+I239FeIgBrIEbUHpt8X9PFRt+xHi2B1zg7EVrRZjFAmiPjpCHLnzs2TCHdu35bNJTMiOjkLBGowx8EabrlyOqzmlNgORpUKFhQXfWugTwZJBAgMooc6Oy4nMlpYl+j0dRSiQ9gS7UBzRotFkY+DIgirFUniiiJjcgoXLqz+JDEaTFXA7G7n7/UwN1JkdCaPYFweiXagz0RaG45HiozO5NB41EoPMJzvyWp8+DjBXB/4wi1atCgfjsc2RuPQxBRdMqE3OXLmdPqJbs6ASzmtwvs7ZMjrNH36NDXHPqZMmUqvvz5Ec2dBOL8lS5ZSz549TDtChD4KiEjp0nA4VYZCQkO424vCLM8ytJ+TC0ou9n/qfcs8DkwQhPN2hPKAK4oL5y9wR9hXIiP5uimzzuNp1bo1LV26jDztDN6XGRCu6OgYatWyBY9tbS8Q8C3/bKUqlSs5teMqKTJWcKTIwNsZFgBiFqtZQN9E+fIVqEmTJjwYXaXKlfkIm5eXJxcTW8AtQ/RDTCXAgseDhw7Rju3baP/+/XxVMbzZmYXOnTvTgj/+FB5qfhwpMv+NbC5Z4UG6eV4ER4G5QDVr1qL3P/iAO7JatXo1ffX1V9S1axcqX64s5c+fj70sOXnhtiWhysJLW7RoEWrcuBENf/MNmjN3Hq3fsJF+/mUm239X3tQyS9PKUaeB9XOia+hcBZcTGQ8P8SFJLVb3mhX0q3R94QXuvxjC8sknn1Czpk1YPuaL5PgvsRAB38/YF5pgZcuE0isv9+WCs2r1Gvpw7FgePM/ojlfBy7QKdAvztUTnbFmGwbVd3mIELicyWjibun3rtssNa2ISYP/+r9KSpctoDhOY7t1eoCJFMJxuERZHN5ozBCePhwfVrFGdrxxfuWo1TZz4PQ/tapTYOMqeQj/VPcF1dN7c5YhYUEAz4HIio8Wy/ftp9x330rEd69kRiv6WPn36cHGZOm0qt1rQVNJDWKyBQ+LYeL1LlChOw4YNZc215fTtd99R5cqVhUOJ2AJOw1H3AH1PDwWXPbjlctN8oa4RuJzIaNHWj4mOFl4XkxkwofXo/ES/SIsWLXjzZMZPP1PjRg1ZnrtFXNS/MRq84DifgICi3Ivf338vp7ffeYf32egBRr4wyueIfpnExAThdUcoy0hmeV724nIi4+vjKyw0t+/ccZgQJCU7XmRKlChBn332OR85gae8vKrlYlYgNgqzbIKDS/M+ooWLFlGHDh00H/V5nOQkJjKC7jsz485t8TKkhbsIM+ByIoMHI+wsKD6BDzFrWcNhX6mp93noEUeBfg28nHhJR48eRf7+fqayXJ4GzjVnzlzUpHFjmj17DhdKRy1WBdeirtHZs2cd0i8THSNuDWMKgSPWVumNy4lMfiYyojXg7du3LCKjbmsB9rV02VKaP2+eJUNjEOvn/fc/oN9nzaL69eqxA+Y0pM9FCyA2Pr4+NIoJ5dx586lRo8bC1qk1rkdF0aeffUqxcXGaVigAFZVo3xsqTFQczvocM3A5kYF7S1H1hyNrLVxGZIBJeOfOn6cvPv9CODi8NULLlOFxiz788EM+gcvMTaOsghcL83SahzVjQjOP+r78skOaT+vWrqVffvlFWBAeBXtCID1RMN3A0U1GPXA5kYF/ENQAIkAI4Cn+aaD2g4A8LcFl5vcTv6djx46q39SOBg0a8KZFt24vUC4XqPUeB4IZVKok/fDDD9xSg/9lLUG/yZQpU2j/vv1Wn93jCc/8aVYPnH9HMStJlKIBAfyYzo5LLSvAw79x4ya1btWSTpw4oebaDkzU2XPmUq+ePf61CnjhsvzIX+T7aWlq5IAES0A5llBgE/kkLERm5H/JV13HxcfxMCX4Oy1p374DfTdxIpUrW8YlrJcngfsPsf71199o3NgPs1QJ2ELHjh2pV68XKfkW1lohRyH33O483CwmeHp5ejEr2YdbF2iSozM9V67/r6PxFXwP55mcfIue7dCBduzYbvmlnUz6cTK9MWyo0z9blxMZBD579tkOtG3rVjXXPv7zzTc0ZvRo/nMaq5kQhuTSpQjuV/b06VN0njV/oq5d44UdQ6EYrsQ0cgjNox1+6EvA3A8th8Sxz85dutBEJjAlS5RweYHJAM8Xc0/mzZtPb701RtMwrtaeE/LQXMH/aIIjFhdEBhM+g4KCqHyF8lSxYiUeSxtB4rw8Pfk5XmXlosUzLejcubPqnmwHFd38+Qu4hSpFxmSgkMCT/6KFC9Uc+xg4cCC9OXwE7d27h7Zv20ZHjx7j3vHRX2P0mpQuXbrSpEmTqFixwGwjMBmwd5hd80NasGABjRo5kmJiYiy/MAgMMRcpWpRZk2WpXv36FBYWxptLvV/sJWRtQdBWrVpNTZs2kSJjNlCTIJ7yJNaGFwGmMQoQakstrRBR2rRpSz/9/FO2smAeJ0No0HQaM3qUqcLwQhxQdtAnI1Ju0B+zceMmqlSxgtM/Z5fr+EUBhCkrCvpPMEJgJoGBWf75F19ka4EBuHQ0bV7u25cGDx6s61KEp3H79m0eskW03GCtmZ+fL79WZ8flRAYElw52iUlMjwLfwJichsWF2VlgMoD97e6em0aPGUOdO3dRc12HYoHFyNu7gLrl3LikyBRnNb3WQ51GgggHY8eOo+c7Py8F5hFwLxBfHH5wGjRoqOa6BqVLB/Hmuit0ZrikyBQtUsSl4ht1796D+vXrZ6pmgVmA0IQEB9OEjya4VCSI0NAyLjFHBrhcqYXwI0ojFgm6AmXLlqMxb43h61hcq4teOyA0zzzzDL06YAAfbnZ20NQPDQ1Vt5wf1xMZVuDQvKhQoYKa47xgrsTgIYOpciXn9vGqB265ctFrrw2iatWqqznOC5aGlGbWmavgkvY3zEy4dnT2Wq1OnTrUq2cvlxhhcDQQYSw/eG3Qa1ycnRlY4cWLFXOZ5+5yIgOBSbmXSteuRTm1yMBdRZ+XXuIOuWUzKes899xzVLVaNXXLOYEHAISXcf6GnwWXEhkITNT1G/T222/R119/5dTe4ksFBVHrVq3VLUlWgDUTGBBA7du1V3OcE4RReemlPnzGr8LKsLN3M7mMyEBgjp84Qa/270dTp0wRdn1oNO3bteNCI/tibKdjp058xqwzc/ToUeqPsjxtKt1LuefUQuMSIoP7v3nLFurLmhdr1651+ng3ISEh1P/VVym3C4TD0BuIco3q1an3i72dvk8OS1ree/ddGjd+HCUkJDrtkLbzi4yi0JIlS5gF05+OHDmiZjovWPcydtx4ql5Nzuy1l9y53WjkyJHUpm1bNcd5gTuR7ydOpNGjRnI3Js4oNE4rMrjXysN0mjd/Hg17YxhFRERYfuHElCxZkr755lt68cVeao7EHiDOWKE+adKPfMW6s3uXg/uQ2bNn05tvvkFXrlx1OqFxylXYuMfpTGBmzZpF777zjuYOjGwBw6UZfkb8/f25Q6MihYuwPC96kJ7OTV7EhY6Pi+OLLuHWMzU1lRlgltuO7yPAfevWrWnQ4CFUp3YtZubnlMPWGoCXMS4+gRYsmM9f0lMnT/K+uox7jxE8Lzw71RkVJnFitjieJxY44tnBCVl8XDzFsecHZ2QI2qZn3KxHQfPv2Y4duXhiuN5ZLF3ndPWgPKQ5c+bSmDGjdRcYiAIcFFWoWJFq1KjBmzVBpUtzoUAgNQ8PDz5jE+FFcWchKEgweyE2kZGRPPA8vLzlZG+Bn68fVaxUicqUKUN5PCxxkSTawbtl2D2FYBw/cZwiLkXw54FfwB90qVJB/Hl6589PefLm5c8v49nhGSFlPDsMK585c5pHnDh+7BhdvHjRIT6bn0an556jKZOnUPHixZyivDidyKDQLP5rMb3Bmkh6xazGmqHixYtTkyZNqWWrVlSvXj3etPFkhfLRvsWMG/n4HcXfPPJnVpHi4lie9gye9Oz4/5b/OPCUCNE5efIE/fPPP7RxwwY6xkQHYqQHsGh69OhJP0z6gS8QNXvZcSqRgfm7fv0GGjhwALcIHA1qtRo1a1L3bt15J2JoaAi5q+173DTnkmeJlmSIFspAHBOcvXv3ssrvL1qzdg3d0CBSwdNAxTdgwED6+j9fc8f5Zi6LTiMyEJhDhw7Tyy/3FXISnhUgLnAd0L9/fy4uhQv583xpbUiskSE49++n8blac+fMoUWLFvJmsSNBh/Y7777LQ+GgiW7WN9kpRAYCc5lZLnB3sGXzZjVXe1A7VK9enV5/fSg937kz+fn6SItFYhMoq/Dxe+ToUZo+bSotXryY+4V2FPCb9O2339GrA15lW5A682F6kUEtAZeGI0eMoJkzZ6q52gNfJHAVMGjQICpVsqQUF4kQEJt7qancT+9/vv6Kdu7c6TBXrugvnDVrNj3zTHNTWtumFxkMF0787jv64IP3eU+/1sB6adS4MY0bN57CmjXjIwuyWSTRAtgVqCSv37hBk3+cTDNmTOdD4Y6gbt26PIRKSEiw6cqvqUWGd/Ru2MAdRjtiJMnLy4tbL2+//Q4VCwyQ4iJxCBAaTKhbs2Ytjf3wAz4S5Qhe6dePfpz0I3nl8zKVFW7aGb8QmMjIK/TRhAkOEZjAwED6lllIX37xpRQYiUPBC58rlxt16vgszV+wgJ577nluQWvNH2zfc+bMUbfMgylFBsqfej+Nvv/+e9q1a5eaqx3wmvfLLzN5ALc8efNIgZHoAspZpYoV6aeffqJBgwZrHlEDs5G/+eY/dOjQIV5JmwVzigxLa9euod9++9WSoSG1a9fmQcHatcPiuRyyc1eiKxCawoUL0VdffUVvvf02eXp6qr/RhvDwcGadf0FJybd4ZW0Gco0fz9ojJgIKfC3qOo0YPoLHm9aSBg0b0k8zfmJCU0taLxLDQNFDEP+GDRqSW253Hgo5LS3N8ksNwHIHjJDWqlXr35nMRmI6Swb90L/OnEm7d2vbTELv+7Rp06latapSYCSGAwsaTfXRo0bxCXV58uRVfyMO1mb98MMPdP7CBVM0m0wlMrghhw8fpl9++ZkPXWtF5cqV6cfJk6la1SpSYCSmAUXcI48HE5rRNHz4cE1dUpw8eZKmT5/O11kZjWlEBu3He6n3mbUxTdN1SVjI+N3E76lunTpSYCSmA0KT1zMvvffee9S3b1/2HmhnesyfN4/27dtruDVjHpFhaceO7bR0yRJLhgZ4FyhAH3/8CbVs0UIKjMS0QGgKFPCmjz76mK/y1wpM/Zg+bTql3DPWR7ApRAY34M7dFJoxYwZfQq8FcEj0xrA3qBe8zBms5BLJ00AlCG9+X375JZUvX17NFWflyhW0fft2Q18Bc4gMS9u3baMN69dbMjSgQ4cONGLkCO6aQcPuHYnEYUBoataoQePHT+AO0LQAizNn/jKT7qakGGbNGC4yuHAEY4MrTbim1ILg4BDujNvfz082kyROBYpr5y5duJsRrfpnNmxYT3v27DHMmjFeZFjav28fvxFaAF8wo0ePplq1akqBkTgdfMTJPTezwkdyD4xaAN/S8HEDfzdGYLjIPEh/SAsXLtRsdSqaSb379Fa3JBLnA5VjyRIl6J133iVvb22aTevWraMTJ08YMtJkqMjggjGrd9WqVWqOGEWLFqWRo0ZRAZO7I5RIngaKb9u2balbt26WDEGioqJo6ZKlhswANtySWc0E5vJlbWImIUB9/foNZDNJ4vSgksyTx4OGDhtKpUqVUnPFWLFiOXcJqrc1Y5jIoE8rITGJli9fzm6ouCqUK1eOBrw6gNxyGa6bEokmoLKsVq0avdS3r5ojxunTp/lwtt4YJzIsHTp0kI4cOWzJEAC98HgQZcuVlVaMxKXIyco2ZgKX02DuDDxLrli+glId4GHySRgmMtACBMdPTk62ZAgAK6ZH9x6GTjiSSBwBKs3Q0FDq1Uub0MWYVR8efknXJpMhIoOmUkxMLP2zZYuaI8YL3bpRSGiItGIkLgn0oHv37lS6dGlLhgDoAIbQ6IkxIsPSsWNH6cyZM5YMAYoVK04vdH1BWjESlwWVZ9myZaljp05qjv0gYsLGjRu550m9MKy5tH3bdh7qRJSWLVvyuNTSipG4Mrly5qSuXbuSj4+PmmM/Bw8c4HG99Woy6S4yaColJ9+i7du3qTn2kzdvXurSpQu553ZTcyQS1wR1aM0aNal+/fqWDAGuXLnC/QDrhf4iw1LklUhNmkqVKlWievXrGTLBSCLRE8zyyJfPizo8+6xwpAOMMsHlp17vjSHNJcSyjomJUbfsp1Wr1jzyo5zdK8kuNG/+DBUrXlzdsh9YMrdv3eYtC0eju8hADw7sP8CDXYng5ZWPwpo3lx2+kmwD3h2MMMFBuCjnz52jq9eu6fL+6CoyUM27d+/SsePiEfTKlAmlqlWryqaSJNsAiz1vHg9mzTRXc+wHLQkIjR7oKzIsYX7MpfBwS4YAdevVo0KFCsmmkiTbUb9effLz81O37AMRDeBsXA90by5duRJJ0dHR6pZ9oOMLIU5yGbFuXSIxENSpwSEhrNkUbMkQ4PTpU7pEM9BdZC5cuCA8PwZzBapUqapuSSTZB1juBQsW5F0FouBdvHPH8Z2/uotM+MVwevjwobplHwhzEhQUJPtjJNkSeBqoWbOmumU/169fp7i4eId3/uoqMvCCFxl5Wd2ynzJlynA1l/0xkuxK+QoVyMvLS92yDzgZ12IqydPQVWQQ7/f69Rvqlv2UDg6Ws3wl2ZrixYoJRzS4c+cOxbqSyFiGr+9QfLyYL190+pYJLaNuSRwBnhUS+tXtTY5u52dnYMD7+ftRYGCgJcNOMFftZvRNdctx5EhHhHsdQMG7HHmFWrZsQRfOn1dzbcfT05OW/b2cWrH9yEWR4nBBUX8G6Q8fUkrKPd45n5SUyD3dx8cnUDorkPEJ8XzoEyt5UdJzMMF3y5WLChQswJ6LF+Xx8KBChQuTd/78LK8gf1bu7rn/3T8el2ziagOWBvTs0Z3+/vtvNcc+vvjiS3r33Xcc+i7pKjJHjx2n1q1aCg1hY37Aps2bqVrVqqYRGVybNcz6UmUIC07tzp27vAPw4sULdOzoMb6mDGvLbrC8BNZmT7l7l4lOCrsOhTd3rXXau7m58Yid+B/9BEhY7hHITPqQ4BCqUqUKVaxYkUqULMmeny8XJoB7Y7bbg/uSmRVmpueJcxw8eDD9NGOGmmMfbw4fTt9//71Dr0tXkTl0+AgXGZHwJ8HBwUxktlBQqZKGikzGi3o/7QF3zhwefpFiomPYOT1ktbcHFWMvGM61kL8/a+LlMFwQM873ITuRmzdvMsE/Sjt27KC9e/bSuXPnKCYmmu7du8fFRGsgQOg/KFGiJFWrXo2aNG5CdevVpVDW7PXMm4f/jVnuz11mxWFwIuJSBBPZBH4/8ub15M68g4NL/9sPYrTY4H366KOPaMKECWqOfbz++us0ecoU1xGZ7Tt2Uof27ejWrVtqru1UrlyZNmzcREWKGLcwEtdy6/Yd2rp1K/21aBHt2rWTCw2aEgA+h1Gbh4SEUIsWLal7jx5Unb1ceNn0PmecK44ZFx9Pe/fupbVr1/CQwBAWWChGgH41WDq1a9ehVq1bs3vUgi8T4SGF2e+NuEexsXG0ctUqWrp0CR06eJBtx3LLjf+enS/EpWKlSqz8duARHkNCgvlzNrIMTpz4PY0aNVLNsY8+ffrQb7/P4tfoMCAyeiSwctVqJXfu3Lwc2ZsaNmykJCQmKdilteM4OrHmgrJv/36la9euSr58+aye4+OJNRuUCR99pETHxPL7YG2/WieQlvZAOXXqtMLa3UqDBg0UT08vq+dnZGKFW2EWjtK3b19lxYqVSnxCIj93XIK169IysUepPEhPVzZv3qKwykBxd3e3eo6PJpxvuXLllO9/mKQkJSXzc7W2b0cn8Nvvv/PzsXaeWU3t23dQ7qXet3oMrZKuIrNi5SrFTVBkWrVqpdy5m2KQyDxUFi9ZojALxeq5PSkxK4YJ0wtKRMRlfi+s7188gftpaUwIDyhvvPmmwsx84YKoV2LWn9L8mWfYyzPrX0HGJVm7Ti1S2oMHyu/sWIGBgVbP50kJgtS//6vKjRs3+Xla278jE1i8eIni5uZm9fyymtq1aydF5vHUqlVrQ0QGrFmzVilevLjV88pq6tKlq3LzZrTm588+vFY+fOSoMmzYG0rRokWtHt8ZEl7gxk2aKLNnz+FWK7B2zSKJfZT5CxYo/v7+Vs8hK4k1l7jQJBpgWYPFS5YKv09SZKwkI0QGHDh4UKlQoaLVc7Ilwap49933uLVh7Vi2Jpj8IPLKVWX8hAlKyZIlrR7XGVOePHn4S7Bu/Xollb0IwNo9sDWBQ4cOK6GhoVaPa0tC8//9Dz7g52ftWI5KwFlERve1SznU/+0lNfWesMMrW8CoAxM1+s/XX/NVq6JgCHjmzJm0e/du3nknAr6fej+V/lq8mLp26UyffPwxRUZGqr91fjDatWbNGurVsye99fZbFH4pQvie4XneS02lH374gS8QFAWdw9OmTqWt27YKn5ut3MPUAsF1gOJv5NPRVWQwOYspv7plH1hvoeeoCB7Bhg3radWqVZYMDcBw8dy5c4WW2aNAY3LjW2Peolf796f9+/cLLzw1K/Hx8fTjpEnU7YWutHTZ36ySSeNiYQ/42uHDR9jzXGnJ0ABMWJwyeTIfcbT3vOwBI2B8YqQA+fPnc+zIEkNXkcEwIDOB1S37wGxUzHbU41miwOB4s2fP1iR8y6Ns27qNouwIfs4LsfKQzxXq2aMHTZkyWZMonGaHtQ64X9r+/V7h80Owethey2Hzpk38BdWSzZs30+5du3Qplxncum3/VJAMfP38+NQKR6KryEAxRVUzKSlJaJ6NLaDAnD13jnbt3GnJ0BA47zptY8QGCAzm4vz08y/Ut+9LtGfPbv7y6QHmhHh4ePBKAgnhaDJ+xkxfvYAl+/VXX9HAgQPozNlzNgtNyr1U7qlfa1AmV69epeukQkyqFAWzrx1tfek6Ge9ieDi1atmSLl26pObaTv78+WnV6jXUpHEjhz9QnPPMX3+l1wYO1Lwpgpd29pw51Kd37yxdB84liVksX3/1NU2a9IPmllUGaM76+vpR8RLFKahUEJUoWYLPXvZjeXB36qY2d1EuLaetcOGHZXHjxnU+KfFyRARdvnyZvwQ4T0cJYZ06dWnixInUqFHDLN1DvEyI+dWmdSs+MVFr6tdvwMrmavLxcbwbEjST+r7Uh/744w81xz4mMKtw/Lhxjn2XHu8JdlRiH+VmdIxSrVo1XI7dCfNN5sydx/Zm/ThaJvZR3hw+3Op5iCYMf2KINivXAWJiYpVBgwYLT2Z8PGG0q0iRIkrz5s2VDz74UPlr8WLl2PHjSmxcvJJ6P+3f0ausgmH023fuKhGXI5V/tm5TJk+Zqrz0Ul+lQoUKCrN+rJ6DSCpTtqyyZu3aLI02sg8fEq9bt67VfYkmTBs4fuIkvw/Wjq9VYh8+aRETU62dhy1p2vTpDj9fXUUGhQ+F2drF2pIwe9bRN4Z9+FA5hvisnYNowss9b/6Cp14HiGbi/PLLL3OBtbYve5Kvr6/Spk1bZdKPP/K5Ncm3bv+XoOBHa+eTlcQ+/8X9tAfKlavXlJUrVylDhw5TypcvLzyJ7NGECYd/L1/x1HNmHyUxKZnPfra2H9HEmo58VjuwdnytErhwMZxft7XzyGrCM1iydBnfn7XjaJV065OB+eju7k6s1lRz7OfsmbO6OEDGKFa0g5z6YKStaNEn3wuY9/EJCfTuu+/SHNa0Eh1JQBMNTqhHjhpFfy9fTn8t/oveGDaMqleryqMTouTBbEYSMffx3Yz9IKFjsVixQOrQoT0fOl67bh1Nmz6Dr1sS9e4G0DR7841htI7t90l9NDgv9CEFCPphyQz0l2nRT5IVrkRGCi00BuhXK1TIX91yHLp2/OZ2y8VX4opy7txZ3gHo8A4rdgAEOncExUuUoNDQUHXrf8G1IUbVJx9/QrNm/S7UJ4TrwIpntL9XrVpN//nPf6hxo0b8BddCVLJChvDABw18NA94tT8tWvQXzZs/nzp27MRFVwQIzYjhw2nXU+Yfebjnptq1aqtb2uPo4eAMTp8+LdwvBxe2hQoVVrcch64iA0JCQ9Sf7AcFKiLiksOHC1Hr+fk7RukbsZc8ICCQv3jWgNUydcpUmj59mpAFg85aWC4rV66kDz/4kMqXK8tEJ6cuwpIZGYLj7Z2fnuvUiebNm0e//z6L3xOR4dSzZ8/SqJGj6Nz5C08UmmZhzYg1F9Ut7cDoG+63o4Gv7IMHD6pb9oNWhb+/H7dgHYnuIoMaVdREhpmIOROOBC8CfJ3AtYTW4Pqfe+55btlZAy/IiuUr6KuvvuSzXu0Bw8pt2rShPxcupC+//JLKMXGBeZSZqBlBhtjky5+PunV7gRb9tZjGjR/PmpFF1b+wHQxPj/3wA0pIsG7p4vKrVq1GDRo0tGRoCATmSdapFuCa4MJWi/IPVyT583s7vLLRXWQQygS+RERQ2F3B3BU9+mXCmoUJm/KPU6dOHWrUsKHVGgQCc+rUaRo3bpzdbW7U0h9+OJbmzJ1HzcPCmHXgZipxeZwMsUEf1Qfvf0Dz5y+gJk2a8GaePSxZsoSmTJ3CLMD/bWLiWPm8PKl79+68j1BLatWuTSVZM9iRtxp3BH2ScJImSsWKlfRxyG+tN9hRiX34KMYzLVrgOQilsmXLKpciIhzaM84+SmxcnNIsLMzqOdiT4INm4aJFVs8bx7vF7k/v3r2tfjcrqVz58sqSpUu5Lxns7/FjOEMCkVeuKAMGDFRYE8TqdT4tsYpMWb9hA9/X4/vHIeLi45W2Go4c4jznznP81Arw8SefWD0HWxJWusNtCbB2HC2TriKDxD7KiJEjrV64LQk3acGCPxx+k8DChYsUb29vq+dhaxry+uvK3RTrq8jBr7/9bvd8koYNGyp79+3n+3l8386WQHLyLT5dIavOwR5P8E1zM9q6Ww2wbdt2YdcdGalTp05KfEKCQ4WdfZSExESlWbNmVs/BlgQfOidOnuL3wdqxtEy6iwz4448/NZlU1rtPH4cvU2cfJeVeqjJq1Ghh50/PPNOCu2QAjx8HXLwYrlStWtXqd5+WWjDr8PSZM3w/j+/bWRP7sOebqnz/ww9KgQIFrF73kxLmFf3nP/954os/ffoMu0UsI2FCIJyEOfreg02bt9h1Lx5PKC98bpSDzxnJEJE5dfq0JjUI3FoeOXqU79PasbRK7KPExMYq/V991e5JZPXr1+czaTM9V/bP++9/YPW7T0thYc2Vc+fOZ75vJ07sw33vQGjsEYPQMmW4C1Jr9wb7hoh9/sUXiqenp9XvPy0FBwcrq1at1uVlfcD+gbdDa+dha4JPI2v3xBHJkObSrdt3lHbt2lu9eFvT2HHjdHnAID4+QZkw4SM+Dd/auVhLsNief76zcjKTgp6x72PHjiulSgVZ3ceTUvXqNZSj7LvA2r5dIbEPFwM45UIz2dp9eFJ65913+Qv6+H6R2IdZqveUKVOmKiVKlLD6fWsJlc0zrDm2ffsOPlPa2r61TOD0mbNc1Kydjy0JzfHlK1bwfVo7ltZJd5FBAl8zM9baDbA1VaxYUQkPv8T3ae1YWib2UdJYrbpt+3budjEoKCjTQo+OwFq1anNzHOL0tPNDzWJtP09KaFdv2LDxqft2hcQ+3HH3K6/0s3ovnpTwYp4+nXlTkosE+wEO4rH/QoUK8bVlj+8HzWU0VRo3bqz8+ONk5cbN6Ez3qXViH+XTzz77n3OyJ1WuXJkv89Dr3HVbhf0oGKbdt28/n2Yu6tcDw5yff/4FvfPuOw4f788A53//fhpFXL5MJ0+eoEMHD9HFixcpLe0+O5+cFBAQwIdgG/IJd5Y5H5mdG/Z18WI4tW/fjocpySqY+PXV11/TG2+8qeZoC0aP2edfeOnM5Bps+VsRcK8uXYqgnj17sPKzT83NGp999jm9//57TxzKx/7v3Uul4yeO05YtW+j4sWN8nhLKGFamI2YU5tiUL1+ebfvw7+hR5ngZCQ+njh070ulT4t4ZBw0azGMt6TU72RBLhn1Yk+m2ZkOIWHB3hpmSeilzRsoAP6Y9SOcLAZEQ1SAj39r3Hk1g6rTpNncqv9Ctm5KUnJylY9iS2IfX6leuXFW2btuubNy0iY9YWQtVgp+RYmLjlN179vK/3caaD1HXbzDr4KFDmhHg7+XLlYIFC1q9L5mlOnXqcC8A2IW1/WYk9dFx/uuZ4pcq+Onx7zk2PVTGjRtv1bqyNaGphPsHrB9L+2SIyCABrADW4sYhjRw5incQWjuWWRP7WMS2rW1iW6xYMfZS7+H30Np+7U3sw+fp/PDDJKVKlSq8ozVvXk/Fx8dHCWveXPll5q98fkkGiLrAakSlUaNG/KVHAc6fPz9rJtZSfv5lppKSck/zF5J9eP/M4MFDrN6bzBLObdnf+r5cWiSwf/8BzRzE16xZU7l+g1UCOt4HQ0XmzNlzmnRkISG0xbp16/l+rR3PjAkgCgL6AKxdU2Zp9Jgx3G+LtX2KJNTYH3/8SaYT4ND/BOtz85Ytyuo1a5RmzcIynYrg5ZVPmTTpx0w7XEUSOHz4CA8KZ+3YmSW4mYBF8vj+zJrYR0m+dUvp2bOX1euxJ40fP15XgUEyTGSQEFxr8BDbaqQnJUxSunotihdCa8czWwKwGqxdS2YJIyBHjx3j37W2T3sT2Lt3X5biNUHQfXx9rf7u0VS6dGmHTfiCyI4YYdukzmrVqis3bt7U/SWzN7GPMn3GDO6nxtr12JqKBgQoBw4cdMjzeFLSfe3So8C/aM8ePTVbEbtt2zb69ttvKDUVHbBqpolJS3vA/fTaQvsOHahixYoOWYuEAPw3btxQtzIHnfUJ8fHqVuZgtfw+B7i5BHDB0aNnT5tWPWPl/rlz5x2+el8L0NnLRJ+++tL+RbKP06Z1a6pcpYru69gMFRlca526dXjAdS1gAk2//Pwzd/CEn80MRBAOqbAYMqtgoSZGGCDOjiA6Olr9SRvgAyc+4eliZA94ulXYC1O3bj1LRhaAL+ITJ46rW+YFAhN55Qp98P57Qv6wHwWRQnr37sP96eiNsSLDSopn3rz08suvcAfhWgCv8RMmTKB169bzh2VWcGpwuh0Vdc2SkQXKlSvHHS45Sj6LFy+u/qQNcDdRpIj9bhueBMqOl2deat2mNR9iziqnTp409Yp0lFm4qRg7diwfRteKli1b8SkVRly6oSIDcNFhYWGssLSxZGjAtWtXaeSIEbR9x05TC83lyxHcw19WqVmzFvmz5oGjjLSw5mFUunRpdUsczCeBSwtHUo9ZMqils8q58+fVuS9qhonAOd26fZs++vgjmj9vnmbWOO7PwIEDuSgbYeAbLzLsor28PGnQa4M09VZ29uwZ7vf1yJGjphWaG9dv8DCnWaV69WqUy0EXg9odfT3DmThr4T/H29ubxox5i4JKBznMcsBuS5YqZZMFhj4nR4WTEQECg75EuEZF2FstQzE/+2xHatK0qSFWDDBcZAAKYdNmTalLl65qjjYcOXKE3n3vXboZHWPKmutmdNadTudlzcoyZcuqW44BzY6BA1+j9957n4uEvfj5+dEnn3xKvXr1UnMcAyooHx8fJmRZt75uJSfTnTt3TNf5i/NZ+Oef9P3EiTxCqlYULRpAr7/+OvfyaIQVA0whMsDD3Z2GMcsDLgG1ZOOGDTR3zhx1y1w8tOK5LTPgsjMwwDFe9jNAIczLCiOC20+eMpUqVKjAhSer4G9r1KhBP//8CyvYQyi3e26HF2wPD3ebLBmcj9kGBWCcXoqI4COjWkZHxfPo168f1a1Xz9B+KNOIDG5C1apVaeiwYcJB+R8FTrj/+GMB3bwZbUprJqugXe1tQ9+DveD9c8/tziNbLl22jIYOHca92j8NWC9j3nqL/lq8hDp3fp5y5nJzuMAAPNIAVlvbghmLwapVq+jEiRPqljbUrl2bBg0eRG65jH3NTSMyGfTt+zJ3gK0lCB9x7NgxUxaurJKbvfgYrdEDaANSOdY8+/a7b+lFJjhPA3/z+eefU7AD+2AyA1ElnBVUfIjPvWnjRk1DIXt7F6C333mHSpUsaagVA0wlMqj5/Hx96IMPPqRSpUqpueKgDX4pPFzdck6Sk5N077BE4XRHbGwfy4rjJ1E6KIjP3zGiQNvSt2VG0ERCc0lL+vXvRx2f7WhYZ++jmM6SQSGtV78eN73dNfQmfzflrvqTmch6EYDAiEYMtAdEhMjKhLCIiMuGCAxiEN24fl3dyhpmePEygHWNkaRUjWb1ggYNG9KY0WN4f5UZup9MJzIANx79ALZ0Oj4NLQVLKxDzJqtAZM6fz7q/GS3A7U9OTqazZ59+3NOnT/Gwvnr2e2WcH/zxZBV0bOfx8FC3jAcagIB2WvZDenl6kqeXp2nE1HQig572qKjrNHnyZB5bWAsgMIEOin8sApxbZdVxENrrmK2qJ9ALWAmY3Pg04EwqJiZG134vHOvmjRsUeSXSkpEF/Pz8KV/+/KayZjByqOXM6K1bt9GiRYt0fRZPwnQig4c/b/482m+j57MngdjLVapUVbfMA+Jh2xJNc9/+/ZSUfEtXawHe/+KzsBgyJiaarkdFqVv6cfjwYYqJjlG3nk7JkiX4nCOzjGLjPDAZtaGGM6PhoXH6tGl0OTLSFBNRTSUyuCFwY/n7b79p2tPeunUbCgoqZXgv++MgmibiEWeVo0eO8GFOPcvNrVvJWZp9yvsVNJxElhWwin3turXs2FmfNV25cpVMwwMbBZ4nVteLhOd9HIymLpi/wBQWm6lEBjdk4Z8L+ZCzVuBFfnXAqw5buWwvuNbChW2LnZyQkEArV67QVSy983tnqb8Af5Mnj359HaiQ4BN56z//qDlPB0PdVapWUbfMA55nzZo1uOsKrUAlPXfuHIqIiDDcmjGNyOBGXL4cSQsWzGcmpDZvEZoi77zzLlWvXt10VgwuESvQbXFVAJYsXkwXL1zQreBUY/eucuXK6lbm1KhRkwlmGd1qTty/hQsXUiRrEmSVYsWK8fjPZiS3mxuNGDGCmjRpquaIg8p6yeIl6pZxmMqSWblihWZWDGrWkSNH0SuvvEJajlJpTbNmzWxyc4Ha+/dZv1O6hs3JzIAwBwYG0AcffkglSpRQc/+XMmXK0Idjx5K/n68ufR0QWESJQE1tC3Xq1KXixYuZrsIBOKegUqXou+++o0qVtBFCWDN//vkHXb9xU9d+vP/Bmrs8vRP78DjCTTWI8ZuR+rz0kpKYlGRqV4vswz3916tf3+o1ZJYQb2nHjp3s29b3q3WCq0vEmurXr79Su3ZtlurwmFJ169ZVBg8ezOMVwaO+te9qndiHxxIf+NprVu9NZgnB2H797Tfd7pm9CaxctVopXLiw1euwNcEv87z58/l+rR1Pj2QKkQEI9SkakzgjIZ702bPn+H6tHc9MCXz6qe1BuxDhAMHkgbX9ap0AokHExSfwFBsXz8OkpKU94L+z9h1HJDB79hybywrC5lyKiODft7ZfMyWI+ieffMpjeVu7FltTly5dlDt3UwyrcE3RXMKszeXLl2sybR7Dk6NHj6ayZcuY0iy2Blxq2uqVbv36dfTlF19SSoo+DphwL3PlciMfn4I8IbhZwYIFKKeOSwnQTNq1azd99NEEm8sKfKpgKoMzlAn4Lx742kAeIFALduzcySdLGtViMlxkUHDQebdly2Y1R4w2bdvS8527cAl3BlDoK1aqSM8995yakzXQ3p4+fRr9OPlH7vhKrzY3+lweTXqBcnLi5CkaOXIEn+ZgC5iICd82OU3cN/coKBNFChem4SNGauKWNvrmTVq/br26pT+msGR279pF4Ro4TC5QoCANHjSYvPPn0/UFEAXD6y+/8orNs5Ixjf+zTz/ls6PvO0mEBnvgAnPiJA19fYjN4WlB1xde4G5EnMGKyQCn2qplSz7HSwvWMcs3MSnZkDJiuMhgAd6GjRvogQ1uKDOjRcsW1KRpE6exYjJA4a9Zoyb1eeklNSfrYO3O+HHj6NPPPqVkVojwQroKuBS8FDt27OSrihHyxlbgBA3e/txMNgHvaaCSxExgXHe+fPnUXPtBXG+M3BpRPAwVGbwQWBcDS0YU+KXt06cPn3viTFZMBrly5aRBgwbxeSm2gv4JxOcZOvR1On/eMofGiMKkJbgGrF2bPWs2vfRSHzqwf7/6m6wD/ztwPVm5ciWnsmIywCk3adyEGjdubMkQAEtDtm7N+sRFLTHckoGjb1smVGVGjZo1+UQmJyxLHLwEwaVL0zvvvGNXzYV+mXnz5lH37t3oz4WLKOVeilNaNbBckM4xsUT/y7BhQ/msVXtAUwPNUGcFlaW3d356oVs3TRyWbd++ne7c1XelPDBUZCAI27dv0yRCXqdOnXSbDOYocOqdO3em/v37s4JgX0mA8/QBr/bnVtGevfso/cEDp7BscLk4z+joGJo6dRo9//xzNGPGDLtHHBHaZdz4ceTn69xlArRs0dKm5SeZcezoUR6GR/eyYG1cW4/EPkpiUjKPX81OQygVKVpUOXjokFPMgXhaAteuRSmtWrWyeq22pCJFiihDhgxRdu7cxSewZWDtuEYk9lHP56Fy9do1ZcaMn5QGDRpkGsQ/qyl//vzK77/PMmxeiNYJ82a0iBmP+/rHn3+q91y/ZJjIgOMnTioBAQFWb4gt6dlnOyq379x1mUIFDh0+rFSpUsXq9dqaECC/S5euyuw5c5TwSxFK6v00y0EYOJy1c3BEYp9/YbqiJCQmKTt27lTee+99PoFSVFyQMMN13Pjxyr3UVJcqD3//vVyTwPujRo/W/b4YKjLzFyzg072t3Qxb0jfffMP3Z+04zprAps1blODgEKvXbE/CS8zMbuXF3r251bB3337l+o0bSmrqfcsBHUg6u6ik5FvK2XPnleUrVirvvf++0rhxE8XHx8fqudqTMEN22LA3lGR2HNzCx++psyYQGXlFqVChgtXrtiU1b96cPwfs1tqxHJFy4B92cN1B+/vd997joyIiILjXylWrqWGD+k45gvAk0E+xds1aPmqkVeD1DOCRDy5OMTenbLlyVK5sOe68vVDhQuTr60ceHh7ELCDe4Zhy9y4fncAEQCw8Rahc5COAPYbQUX7z5vXkEUCxX+Qls9/dZd+Dt7xrUde4I/dTp07R5cuXeWB/LfrhHgUuLF99dQB9wcqTr09BlysLCO3zav9+NEcwhhgWurLKi8qEhuh2jwwTGUTJ69GjOy3/+281xz7gKmH1mtW8gDt7B581IDTr12+g4W++yUPvOhqIBwQGYoIoknh5MZQMj/qs8uNLCwoUsOTfYSJy984d/j13dw/K752fVR45uLggYcQL38X3HAnO97VBg2jChAk8soKrCQxApYygeYMGvSZ0PzHVY9myv6lVq5b63adHzRq9EvsoUddvKJUrV8ZlCiVWuJQHbKePH8OVEti9Z6/SsGFDq/cgO6cCBQooH3/yiZJ867ZLNZEeTwDNW1aZWr0PtqRJk37k+7N2HEckQ4awMYR29coVunbtmiXDTjDMW6d2HYcFoTcLqHHq16tLs+fMpRdffDFLnuqyA6VLB9PkyVPUuUVeLmnJZoBLw7A8kijHTxzX1dozbJ4MglmJxv1F6NaseG1zBVAoQoJL8zkkn33+OY90kF1Bk659+/b0x59/Uu/evdm242NuGw2uD/2PWnj2C78YzpuzaIrrgWEicyUyMksOqp8EXrQSJUuqW64PhMa7gDeNGjWK/ly4kNqxF82M8aQcCTouP/3sM5o1ew7VrVOb1/DZBcS01qJSvX49ijuI18v+N0RkUDC0GC0JCirN1T07FTTUaDly5KQmjRvT3LlzaeLE73nBy2r8JmcFndAv9e1Li5cspbfGjCE/P19dTX6zUK58Od7RLUJsbCzdvBmtbjkeQ0rmvXupdMWGgFyZUb58eR4R0NVNZWvgBYPADnl9CP29fDlNmPARlS1b1uXEBv5Unn++My344w+aMX0G1aldi6lszmz5zAH6oTD1QARMMYiKEusPtQXdSyTagWgPRtkYv9gaWM/h2l2+TwYvGhIWVn7wwQe0avUaPk+kdu3awrWdkaBDv2jRAL6qfuGiv2jO3DnUvl07HtIkO1ovGeDSEafLllhd1sC0ghs3bqpbjkd/kWEJi94SshCV8EngJSpRMnMP+tkJ/uKxFzM0JJg3JVasXEWzZs/mnaKYYIc5Lc4ArJaGDRvRhI8+YoK5mn75ZSa1bdOah7bBNWZjffkX3CMIsAgKq5lu3ryhbjkeQ2xrzBQVHVlCwdMy4p4rYHkRc7CarjD16N6dfv31N1q7bj1/WV/p14+H2kAhNUuIGAzFo/O+ZctWXFiW/b2clq9YQWM/HEs1a1Sn3O7ulmuS6sLBfUDlWqx4MTXHfuCSU6/bqvuMX0xp2b59B3Xo0F5IaOAUevOWf/iwbnY2oZ9GxhSiB+npvLMP/nER6vbIkcN07uxZus6arYhMCesSM3QxfR01nVagjwiWFGaaQuAKFS5MpUqWoqrVqlK1qtWoXPny/Fnmz2eJCY4jS1HJHDzP91nT+IvPP1dz7ANN0d9+n6VLH54hIgNTuGuXLrxtaC9Vq1WjDRs2UqFC/rJQZhEYMKrm0EOmzLfv3OFWJdYl3WBik5iYyNcawXewFuRgD9vfvxAV8PamIszqxFoodFZjpMjD/f8nFEphyTp4fyb9OJmGv/mGmmMfiJCB/i49pkAYIjLz5s+nvi+9xBfc2UtYWBjve4AfVFlA7eNR0dELKShi4P3548+F1Kf3i9zqtJfGjZvQ6jVrdJkpbUifjMJqUVGTHDUkVFgWWPvBvUNTU88kn5c4/v6WVfIiKMpD4XcwqxgiMolJicIXmCdvHpefgCaRWMPDI4/wiOEd1lQW6a6wBUPe0ps3xcfo0baHh3+JJLsB5+KYMyRCRme/Hs1lQ95Skb6YDNB5qHd/gkRiBry88mnQXBLvssgqTmsKmGWuh0QieTLO296QHYgSiVMgOzUkEolDkSIjkUgcivOKjOySkUicAqcVGa1DakgkzgIifYh6ldQTQ0QGC+VEiY2JQaQFdUsiyT4kJiYIry9DnCy9fA4ZIjIBRQOEh6BTUu5pMt9GInE2Uu+lClsyvr4+lC9fPl0GaQ0RGXibFyUuLpabjXK6jCS7gVXzoksCcubMpduyHENEBqFMRJeYw0WBXmsvJBIzEZ8QL2zJYPW1Xh4TjemT8fYWDlAGvycQGmnISLIbVyKvqD/ZD8I64x3UY2WBISKDdUeiC7zgVS8uLk7dkkiyBxjsiIqKUrfsx9fPj9zcXNiSQcB2Ty+Lu0V7wVL1mGj9YsdIJGYA/ZAIziZKIf9CurUCdBcZWGf58uXnrhpEwDyZK1fEzUaJxFnAIAfcM2hhyRQN0M8JvyGWDIbOtIjlfOlSuPqTROL6wPKIi43l/ZEioKuiWDHxiAdZRX9LhpkyuMiSJcRjJp05c5bupd5XtyQS1+dSRAQfwhYBlXyxQBcWGQBnyCVLllK37OfChfPcw5ecKyPJLpw+dUp4tq+Pry/5FyqkbjkeQ0QGBIeECE/KQ9sU/TJSYyTZgfSHD+n4iePqlv3AiilYoIBuLpkME5nSQUE8CqQIiBN04rj4TZdIzA6s9YQElPcTao79BAcH89FdnbxvGicyxYoXFw4zi7VLe/ftlQslJS4PrPVL4eGaDHZUqFiBcqHPQicMERlIgp+fH4WwJpMoRw4f4RaN7JeRuDpHjhwR7vTFoEuFChXVLX0wRmSYynjmzcMDwIty7txZOnPmtOyXkbg0aQ8e0LZtW4UjDCBUcGhoqLqlD4Y1l0D1GjWEO39hxWzftl3dkkhcD7Rsrl27Rvv27VNz7AcCExBQVFc//IaKTJUqVbmyirJ5y2ZKvnVbNpkkLgsE5vLly+qW/dSsWZM7jdOr0xcYJjK4xpIlS1LZsuUsGQIcPHCAjh07JptMEpfkftoDWrlihbBrE6y6rlu3nu7viXEiw1QG4Tbr1q2j5tgPOsPwEOQgk8TVQFPpwvnztHXrVjXHfjCaW7VaVXVLPwxtLkFRmzRtRnnz5rVkCLCCicyVyEj+UCQSV2L58uUUycq2KNWrV6dSpYJ07Y8BhooMqFGjOpUuXVrdsp+zZ8/whyGRuAqoMK9evUYLFy5Uc8RoFhbGR3X17I8BhooMmjcBAYHUuHETNcd+0tPTafbs2RQVdV1aMxKXYenSpXTs2FF1y34KFy5MYc3C1C19MdySccuVk1q1bqVJeIbDhw/R/PnzdTcHJRKtQUUZfukS/fzLz7wCFaVGjZpUtlw5Q94Nw0UGNGjQgMqVK69u2Q8exvTp0+jokaPSmpE4NWlpD2ja1Gl0/Jj42jyEH+rQoQPlz6ffeqVHMVxk0GQKZE2mtm3bqDliXLx4kT7//DNKTEyS82YkTgkqyJWrVtLMX2eyLXFVwFSRlq1aqlv6YwpLBmLw3HPPazIxDyxbtoy+m/gd3U+VcZkkzgUE5tChwzR27FhKEFynlEGr1q0pNLSMYVM8TCEyuHYsMWjWrJklQ5C0tDSa+N13XGjg4EcKjcQZ4AJz+DANHTaUTp4Qd+kAEBmkW7dulFunyATWMIfIMJXB0FrvPn3I09NTzRUDDpc/+fhj+uijj+iWXHIgMTkQmO3bd1C/fv1oz+7daq44qLjR52mQEcMxhcgA3ITmzZtTkyZNLRkaACvm+4kT6btvv+XWjURiRiAwh48cpaFDX6djR8WHqzNAhf3yy69QfsS8NlBlzCMy7CbAJeCAAQM0s2YA4tRMmvQDrVu7jj9MicRMwMJOSkpmVvdHdFxjL49hYc2pZatWhloxwDQiA3AzWrdpzTuqtATOxmfMmC5XaktMB4rjxk0bad26dZYMjUBfzJAhQ6iAt74rrq1hLpFhN8M7f34aNmwY95ynJbt27eIzJ6XGSMwEVlgvW7qU7t69q+Zow/PPP0/PtGhhuBUDTCUyAMNsTZs2o5de6qvmaAOsmeMaOGGWSLQCVrUjymVQUBANHz7CkHVK1jCdyAD33G705ptvUu3atdUcbbhx/br6k0RiPLCqb91KZkKjzXwY4O7uTsNHjKAaNWqYxvWJKUUGN6d06SD68MOxmjabHioP1Z8kEnMAS0PUb++jPP98Z3rllX4WBTMJphQZAKFp1749dezYSc0Rp0iRIupPEonxQFoQMrZgwYKWDEFQIcOKKVjA2xTNpAxMKzKW9mo89xOjBQUKFKDKlSqrWxKJ8UAIfH19qUJFbUKUJCcn0+nTp9Qt82BekWFp/br1dPDgQUuGILXr1KFq1auborddIsnAwz03derUSRNXJ5hwOnfOXIpPMFccMlOKDG5Q8q1b3DcMJtOJAvee/fv1J5+CBUxlRkokKI5t2rSlRo0aWzIE2bdvL/cHbCKNManIsLR//wHavXuXJUOQJk2aUPv27aUVIzEdqPT8/Xxp4MABPLqjKJhv89eiRZR63zzLaEwpMg/SH9KSxX9RUlKSmmM/6FgbPHgIFZRWjMSkoFi2bdeOmj/zjCVDkC1bNtPJkydMs4zGdCKDGxMREUHr169Xc8Ro3aYNd+8p9UViVlD5Yd0elgEg8Joo169fp1WrVqlbxmNKS2bTpo106dIldct+sH4DCy7zeRnjdlAiySoons2bP0MtWmrjwW7VylUUExtrig5gU4kMbsjdlBRazVRYC+fJeGhwHSH1RWJ2UAnm8/Lk/mS8WKUoyokTx+nAgYOm6AA2l8iwdPr0Gdq7d68lQwB0ovXu3Zs/OGnFSJwBFNOmTZtS/QYNLBkC3Llzh9asZpW1CdYWmK65tG3bVrp586a6ZT81a9Wi5s80l1aMxGnI6Jvp1bMXubm5qbn2s3XbNoqOvml4k8k0IoMbcefuXdq0cZOaYz8IAfFC167k7+cnrRiJ04GBivIVKqhb9oMY2ocOHjK8yWQekWEpPDycDh06ZMkQoESJEtSmbTt1SyJxHtC6KV68BLVt21bNsR/MmdnyzxbDrXlTNZf27tnLmko31C37CQsLo9DQUNMsdZdIbAHTOJ599llNFk7u3LGD4uPjDW0ymUZk0h6kszbkVnr4UMwdA9aAPNuxI/dJI5E4I6gbq1evQTVr1rRkCHDm7Fk6e+asoU0mU4gMVDYmJoaOHD6s5tgPgljVry/eOy+RGAX6EeGbF2uaRElMSKADBw+oW8ZgDpFh6fTp03T58mVLhgCNGzeiwMAA2VSSOD1hzcM0cdq2e9duQ9cymaa5dOjQQbp165a6ZR9wPYj1H7lymqqrSSKxGdSR5cqVo8qVq1gyBIAD/bjYWMPWMpnibUxLe0CHD4k3lTCqVKdOHXVLInFeLE0mb2oWJh66+dq1a3zk1igMFxn0x8SzdqMWHr2qVavGmkrFZFNJ4jIgxKxosEN4zDuhUWxtezBeZFiKiLhEkZGRlgwB6jdoSHk83NUticT5qVixEpUsWVLdsg84Kkd3hFFLDEzRXDpz5iwlJiaqW/aRn5mWsqkkcSWgCXB+X7VqVTXHfk6dOsX7PI2YL2MKkTl75ozw/JhigYEUEhKibkkkrgF8ANeoIT5f5srVq3yaiBF9v4aLDMJ0nj9/Tt2yn3Lly1OhQoVkf4zE5UBfI/xUixAfF0fXmNAYgaEiA9MNnVLhGjioql69uuyPkbgkZcqWpcKFC6tb9gHXDxcuXlC39MVYkWEpNjaWogVdO2BZfPly5dUticR1gGEOC72EBp2/4ReNGcY2vLkEf6QIOi4C3GyGhMr+GInrgfkycIZfJrSMmmM/cGmLNYJ6Y7jIRF27Rvfu3VO37KNo0aIUGBiobkkkrkWunDmofAVxSz0q6hqlpKToPsJkuMhcuXpF2J9vABOYAgUKSi94EpeldOlgcsudW92yj+joaN4HqvcIk6EiA1EQ7Y8BsGLQ+w7TUiJxRQICAiivYPC3JCYwEBm9MVRk0tMfcnUVpXix4tyklEhcFX9/f973KMKd27c1CZhoK4aJDNqFiHON0SVRAgID1J8kEtcDBjocjPv4+Fgy7CQ1NZXi4sTfN1sx2JJJpxTBTt9cuXIJzyGQSMyOp5cXFSwoJjL8fUsRe9/swVCRgbLChBMBc2R8fX3VLYnE9UBfI+KIIZ67CBCZJME1gvZgXHOJJQxd3xYUGa98+ZjIiHsPk0jMTC63XFSkSFF1yz4wIS9b9clkgAsXIY+HhyZhPSUSM5MrRw4qIGjJAMWAiR6Gi4wWyHElSXbAWcu504sMOn5zsiSRuDpubmKT8YzC6UUGsyC1iBsskZgdxBRzRpxeZO6npvL5NhKJq4Ows86I04sM7ziW6wkk2QDRQRKjcHqRefDgAd1PMy5wlUSiB5CXe6n6T6TTAkNFJmfOnML9KZhno8XSBInEzDx4kE5R16LULfvJLbiS2x4MExkoM+LJFCxY0JJhJ5b1TzHqlkTiemCdHyauxsXFqTn2gZHYQv6F1C39MNSSgaqKOkhGc+nmTfGV3BKJmYGP3viEeHXLPtByEA0UZw/GWTLMlEHsal8NAopfiRQP1C+RmBVMwouPj+cRB0TAELivn/7r/Ay1ZNzccpG/n7+6ZT8XL4bz0CoSiauCeNaiARDRaihYQKx7wh4MFRkodKlSpSwbAoSHX2QPIEF336USiV4gAKLoPBk4vtKi5WArhooMCCpdWniE6fLlyxQRESHXMElckgfpD+nQoUPqlv0UDQjgAy16z7bJidrfyJezRIkSwquoYUYePXJU3ZJIXAe8nwnx8XTsmHj5RqvBCF/Y3DMuLgQ/GCE4xYoF8uBVIiCO9tat/8h+GYnLgffx5MmTdP78eUuGAGXLltXVFzaOxLXFsmnh30w1OVp0IKj+/oUoOFg8MNuePXsoMjLSopoSiQuxefMm4SgDGFmqVKmSuuUY8OpZ048n9sngD/7nS0jq70SB2ebpmZeqVa+m5tgP+mQ2btigbkkkzg/eues3btDqNWvUHPuBH+xyGoZyztAAa6LyODZ1/GIHPKk7zEx8kLIK/rZmzVrC053hv3TBHwsoLi6en4tE4gqsW7eOjh87pm7ZD4L2Iz6ZLd0x/77P7J9H3/fH3/mnocnoEg7EU8aBWXr0hP7rpDKS+h1QrWpVCgoK4rMR0Qlsbzpx/DitXbsmSxcukZgZvCPRMbE0f948XgFbK++2pAb161O+fF68jyLj3Xv8ncz0nVX/3l5yKCZYP56WlkanTp3iU6dFKVKkCAWHhEihkTg9WPyL9wJLZ0QJDg7mMeONwBQiI5FIXBfDJ+NJJBLXRoqMRCJxKFJkJBKJQ5EiI5FIHIoUGYlE4lCkyEgkEociRUYikTgUKTISicShSJGRSCQORYqMRCJxKFJkJBKJQ5EiI5FIHIoUGYlE4lCkyEgkEociRUYikTgUKTISicShSJGRSCQOhOj/AK3lxsufy4nwAAAAAElFTkSuQmCC;" vertex="1" parent="1">
          <mxGeometry x="610" y="186" width="44.94" height="53.25" as="geometry" />
        </mxCell>
        <mxCell id="7SB77RebNlp5_hPHHmRt-14" value="" style="shape=image;verticalLabelPosition=bottom;labelBackgroundColor=default;verticalAlign=top;aspect=fixed;imageAspect=0;image=data:image/png,iVBORw0KGgoAAAANSUhEUgAAARsAAACsCAYAAABLlQhYAAAAAXNSR0IArs4c6QAAAARnQU1BAACxjwv8YQUAAAAJcEhZcwAACxMAAAsTAQCanBgAAL/eSURBVHhe7P13cGXJmR8K/gBcfy+8LaBQhfLedld3te+mnaZrejNDzlCjkTa0G6t92l1tvHihiN0IhVYR+17E/qHV25W08pqdGY7GcYbDIZtk+y7vC0AVUCh473G9A/b3+/Ie4HaxHdnN7mIT38VB5smTJ82XX/7y+/LkyVOxRsImbdImbdKvmCpL7iZt0iZt0q+UNsFmkzZpkz4Q2gSbTdqkTfpAaBNsNmmTNukDoU2w2aRN2qQPhDbBZpM2aZM+ENoEm03apE36QGgTbDZpkzbpA6FNsNmkTdqkD4Q2wWaTNuk+IG8hv9xy/9vRm90jeqf7PizafF1hkzbpQyD1uooKgUSFzuivKIV5172wt+6e3nW5IsVkh7ZE7D66Ol+TazF+SSqlZa5H5eeeX+7b0CbYbNImfYBU3iedX93PA43y/vtGIHkz8q57XVgxBSxK5N77XC4b7i9MyqM8zfLzt/LfQ79isFHSzNgKUDqVRwwuIbqReb1wndPvFcvzr4fdE8/LY5M26T6lclAwkaW8OpHe0GzcoVkNhvG/Irwd0IgUs8L6TSmA8U2T0SF/KVi0npaulc69cr0jMZ7SNtfze+ciz/8Oaf1qwMbL2FK+txA894DlDewoOy8v+HpaXtibxLOgsvBN2qQPmbyO/POuXV0XXTvzxHjdXcPq6qpds3vMV05Miz/FZ0xUVVatxzOwcZFQUVlp56u8JtcFOhAqLw+dtyfvXpHKpRu8m7wE5DK/t0vw/Qeb8szliC30l/DUfmsEBkNkC/Pi8yjXWErFKlcLXVEthVK0Ujw6pX8kF2eTNunDoHLp8/wbHduBTGWl6+QuXGEV7MPyr1p4RQVBgjfqHrmWirtQ5rr7SxlglYedC2B4vVLn7mZXHvrlKp5crzwuiud38d+UPJDx/CLvvNxVGd4infcJbJSEMnCuV/C1tVWeeQXhtVWGyVti8BvA5c1onQGMr5S8iiiI9bUkLC0yWAlZMvZvkzbpAyUTY+c1v8luyb/RH+TqoospgJFfYQIgkdcd19ihBQzFIo/VAgrFgvkV5vf5EPD7UClQ4n1KW4eSEFCJ1sFH1+i6fkRSeClPR/KUylc6+zlSOh7pxlwOyOeBQABgWdZpI9E3pfdRsykDBDuzxM21QliAEIIeQwn+iS+rlSBW8FQRnM1KTtk9VjQClsUXVSmO/O7QPZanrgl0eL8DJAvg4cXfpE361ZHk1AMTkSTONAhqGQINjxRHAGODMIVfAOPCqNEwPJ3OYn55BfOLy5hbiGM5nsByMoWVVBbZTB75YtHk3U+giYQDiIYCCIeCqIlF0VRXjZb6GFqa6hCNRCzdSpVJ6RelMamMrgw6PFKRnabl6mBhPH6u15RrNoUCiHwOaKqqXCIu8Q3/m9D7BDZioCohV8k5TUM+qwQPcw16BSheYRRD/jcpwnpw+XWmI3VTLitkjGO+a5W8rvwVhf+8svx8Ppu0Se8fmUyXOpbnF7RYCM/XSeEGFOybmtewoAr21yJm5xYxMDqJuyMzmJiZx9TCMhZWUkgQYFbZny39KgGHz/pPFc+VdJGAZSDCSFW+SgOe+uow2ppqsLW1ETs6WrBnx1Y0NdRaGkpGmpFKp75h6SohufeQrpXXbb0u5XUqJy+tD2LOxhWslA/PPYbbuTQTXbQI/GNFC4UMMql5ZBILWC3EGS+FQj6B1WweVf5KBMJB+AJR+mt4NMAXbCKaRwlhUoEcqBiUlYq+plFiHXRKWf0c4GzSJr1/ZLJtcuZksHRiXk/qdEjDUX8QSHi0Qo3l1sAouu+Mon94ElNzK4hTqylyIK2q8lPegwj6AwhRa/EHgrRWAgyvMrOpiuCyyj4lsyqXLyCbyyNDsyZPf4GHQK2ychXVBJ/2llrs37UFx/Ztx+5tHQgxXZVNZXZ9ln1EACGtRVoYrwkKvWvrpHp59fP83rnI85ff8yb0nsHGK5hUQ9NapCZ6E13s8Kaike3Z1AqSS3eRSg0itTSCQnyGdUygIkiVzEd7lGqi7vVHfKYmFrOVZF4lg8KoCjYgFGlFMNaOcHUrYjWdCIQarW6rgn8DFubDc7FMFXJlci4jKETF3aRNes/kSZMn++r8pVnDUhjlUjFKpofNrfDq7OISLt+8gws3B3BndAbxZJYC60ckEkU1TaFYJEx/hCATgs/v5616ysQ+VTK3rH8xE/U1KjWWV5GgU6BZk8/nCTw55LJZpHmkUilkkknmW0RLXQQHdrTi4cM7cXBvF8LMw0w31YPpWl14iMyvsFLd1sl1ptIJqfz8rfz30HsCG4/Z5Uk4v8LJYF5LpaaxOHYd8ambBJy7BJE5rGXSRO8qhBsD8PuqsFasIqD4EKjmedhNOOVyRO5MFpk0GZgr8j6aivkgGV+NYKQTtY2H0LTlBCI17QbHzjb2GOQq+/P11z+Vr3RhkzbpFyBP3iVQ5Z1mQ76cdFEYnZSxD2jeZHF5Geev9uHMtX7001xKUbYFMPV1dairqyfQ1CAaiRnIBMLsAwECjZlbBCr+r6IZ5dGqJox5FDgwy18Q8BSK1HKKBBxqOAScbE5zPGmk0xkkEgnEV+LsO2k01fhwbG8HnnxgP/bs7DQtyptIVjlFKrfy9Orn1dcqKNej8vPyOG9DvxzYlCVcfrvnF6Ny2SXM957F9LWXkF68jYpAioysIrgEqZ2QqXVSDwkylTwifvjrqdFEaZeqqkxbk8ZiRIEMzVFVzKdySMczSC4nkUrmGR6hprMbrR1Pom37KQSC1U7LUf4aAQxQ3ETcJm3SeyXJ9vrAap2rFC4Zo7BqesC0ewuvYEeuRJYaxtXeAbx0oQfX+8aocayhluDS1tKMhqYm1NbWIBaNIBwNE2zCCHGgrfKxB/BeGk1MVxnoqVQFcgSXvDQYAlWBplKeACOTSSJfLGr+hyVh9uovWV7LZwk6WQJONoV0MoV4fMVAL59OoqMhiCeO78Djpw6hsaGRWpKpSQ5wSmaVAzsFl+pttXpv9MtrNrzNeMFDhZRapsKokKnFKQw//z1MvfC3yI9PwR/zIdQag78mjHBDCLEdUQRq/ZotQ6A+gCArL01H6qKZRKUGlVnEqlomakfNxmeTROulFJZXklheSpPp9WjufBo7938ONTUtVg6R03DeSC5MJf75a5u0Se9EXsezJ00WwD/2SU0VehqC5F9iPDYxg5+euYbXrtzBfDyHuto6tLVtQUtLK1pbGgk21aiJBRElwISDesKkOZkKe9CTI2Dk86vI0DSSdpLOZJBNZwk0WWoomjguoKKggZQZsw+trdHcqhRQBVDBQ6ZZgdZCtkDgoVVgaaTTSNKsWlpaxuLCPKpW4zi2sxnPPn4C+/ZuYxoOSO/tNwY0bxL+y9B70mzKb/UKlEssYvAv/zNG/vyPsLqwAl8ggqoQwaTaTw2mEqG2IOoO1aNudzViLREEGkMA0Tybkt25aiqjfoIygY2AQeDjQoTcqzSvijTP8lhaTmFmdgmJZCWa25/C/sNfRUNDp5XFK4945PkdyCiV9864TfrNonJZv5fsGo/KKnZwAsLlG7fxo1duoHtoBr5QFJ3tW7FjWwe2bGlCM0GmsT6MmkgVQpR7H8FKt2epnSTYB5bjaSwl4ojPzyNOUEgsziG9tIjsyhIKKQ6u2QzWOOhWEeUqeXOFJo95aFLZH6tGoLoGQR6BSDX7XQ1xJ4ZiRQDZ/BoyWfabNLUcmlZzM7NYnp9GZ1MQn33iMB4+cQA+AlVR9bDusdFPrA+pH9rZL0+/ENh4nfYNt9BvxVI4dbrh5/8KA//5X6E4M83Ks7IV0ljcxC98ZHBbCFsfbYa/M4Lh2STm59NoqPejs6uO6mSANqhm5MlIITZrZ1XUnyrMjHQUmI/mcZLJHDWcLAFnkW4Bja1P4tCRr3P02Ml40nDIOE1Qa/gxk0p+AZCV2K47d5M26efpTeVdpHOGS5sxlZsmj2R2kVrDT1+7gp+c7aU2s4qW9jZ0dXWia9sWdLXTfKoPoSbEAVddgWJXpFymOMAuEGBm5pcxMzWDmbERLI+PIjE9ieTcNJLLi2YGZanRyIyyORo9hLEf+wl/PlkIfj9CNMXCBJxITR2ijQ2INrUgVt+KSH0TAtF6IFDDvlOFFEEnmUphYXEJ4+NjqK5K4TOP7cfTD59AmGk460CdTn+quzOp1F9cP3SD+C9K7w5svCglxqsBFOa9SmDGItXHxYE7uP7/+pdI3b6EcG2UQSwkVUKtA6igqlhFVTHWGUWqzYcX78zi1fMjmJlYQnNDBJ94ZieefKwL9dR0KmlSBSN++BhfjVghbcfyZgOX8pSdqVFEGs7icg4zc0tYXMnz/kfwwIPfpl28i9E8wKliEYXYvFdMsurwn843aZPehtbl3fwasCpNlpxsSYTcE9ehkXH89QuXcO7mMCoDMXTt2IldO7diz7ZGdLbGUM/BNmzj7prJcJrm0uxSApMT0xgdGsT0nbuYGb6LhYkxJBZmkUomkNZcJeU8zzyLGny1gI4ue62Vy/oCzSmYpsMBnSIdYFiwSov+IojV1qCmqQnVre2obu9ATXM7gagFFaE65Ag62VwB80srGB5lmTML+K3T+/CJx08iGo0aoAlitLan1L11xnx/+W7zC2s261TKVfgq7WO1kMfQn/8xRv7w/0OQICdrI8QZPfPnVXtRDETYKizUVuG/nB3B918aoEbTgBNHD2N0dApTY3fx3Cd24Btf2IdaAk5VqIqMCSIQpIroZxqaOAOZrdzIbI0q+dUCGy1PlHaAowVSc4sZNLd9DI+f/i6aG2VSkVMl5hC2DGfWeWWeX5Jzm/SRp3u7Rknk5XODl+QaBVzvvoM/+8kldI8soKG5FQf27sIeAs3erXXoqA+YJlPJHiugyvCOeWoyY+OTGOq9hZHubkzd6cPC+DiWl5eQ1JOkCgIMe3ehym95VPl8NuC6/Jz8G9hIdlUeirjNGTGPtXwBFQQfH48Qw6LsP1GaVTXNLajd2oE6mnR1bVsRre+gGVaNDO9dSmZwd2AIuZVJfO6J/fjUEw8jGAwxTWcNlJNOf1nNpur/Rir535RUKaUrtpufuVgjuFytgoI92ZHjr/0IMzcuoUig8OndDTJoTY+2GbWS6mMFNZofjy7gv/1oAMsEhT27d+O5L30TFf4IXnz1IuYXkziwswFtBJsk7dci7UytGNZM+5oWFpCRYiYKRUP0ItXKIsNXmb6YXVyrIgBlMDZ1Bxlysa1tL8LBqJXRPeVSkUvgUyq/1acEmJu0SRJt/i/5y+SdJJFxWo2eNlWhkM/g1QvX8b0fXcDd6TQ6t+3A8WMHcOLgNhzaVo+OWpo2lUyD8YsEmuVUjlrEJHquXMX1l1/GrVdfwtDVixgfHsbMShwrlM00zaEitRJ/dYyDbTVisQiiMa2/oYkU0hNcPwdgnz0e9xGEVA5bmU9ak/rBcBBgCr4AMgxPsb9oniZDcyy7yIOAlkkl2G/SCPpp0hFUwiGad9XViKfz6BsYRiSwhs6OFktbdd/Qajy+iBc6dzx5t/SOYOMxW67lKn9ZuEiFkr36wgsv4vWhUUyDzCD6+on6bBuiNOO3+BGvBn54dgw9fUvwkxEBVjabXsXc9DjGJ0aRJ3Ds3V6H3VtjyGUFJgQGNjyrzDwIB7xHOUrBszfHxQDeI5VPgKPHg6vMNZVNYnRyiDxvJODshq/Sx7KulphG0GPZvTrwv/02aZNEEgmTDztcmE0HkCTvkj8f5T2RiOP5V6/hL392BcvZKuzZt49a+n6c3LcFe7dE0RDmfYpPkMnSnV5cQW/PbVx75RV0v/wiBi5ewChBZi6RxApNo3wwDD+Bpbo2hrq6GtTX6mmVAxgtctVEsuZmhCs2DUotp5JybdqO/MxHfXOV2j47BQd6xgv4sOoPmJaUoTKQSSWpvawgH6eJRjMtn0sgSIshEAgiGgmitr4Wi/EM+u/eRVN1CO1tzeSBzEbVnnkbG5zZaL5fsNu8K83mDamWGmIdaIiuk9NT+Jsf/C1+/PpljOSrEKd6llQhK7OoClALqSE4NPsxm8jh7MUpzC2vob6+hppLFpPjg5ibHUM8kUIwFMDp4604tLueDK5EOOZHtCbEI4iQ1ubE9IicyE1tqUKoHiCTqaIWCDx5Ao0ml3MFMZzgl1jA9NwUWhp3oamxnSV1I5LmbZzIiEp14W8TcDZJ5MTak4+S/JdceQU0c4sL+P5PL+AnZ29RY6/FvgP7qdHswcm9zehqoKzqhWH9sVOu5Aqmzdw4fxHXXngBt869jlGaTTMry1ghamTtKVIE9Q01aGKfqI4SdDTHycFR62gklsozpAlgaix6dcFH+VdhCt6qYfYjafkVBCM9/pacF7NZrNIC8AmI/FUo0s0JdAp5FDNJrGqFcSJBCyABX6ACwXAIMQJOHbWp6bk4JsbGsK21Hg0NdZaeBwEldpQw4I3Q8E70lnM2ClaCmpkWsstMUbpemEjhwyPD+KM//iO8+OJLyGVyCLPQlUTiqmg1uggyh2tn0VYXR7gxRnWuCv/tB7fx04tziIZiiIYrCQ45VjiLiell7N/biH/xP57Gk6c7bIWkn8hcpYVOdB2qOjXWvWovBmiiOI8V3r+SzCHB/JeSBZsonluKEwSXsW/7p/C5j/8jtDR1Wrm9nc1WaRfLXw428m/SbxbdK/6uA6kjScalBWvw0tyFRvYKTMzO4i9+dAaXbo6ivrkFO/fuw949W3F4Ww1aIz5UqG9QjKhbYH4lhbvUEnovXMSd8+cwdqefcrmEBONkqXFURUKorg6jjiZMmAOtTRmU5L62huDTqEfljairb7AVx97KYq0STtEUWlpaxOzcPKYmJzA2Oo7F5RV7wlXlC2kah/0xQ0DKGTj5mKYsAj3R8jGshmcNNNfCDfWo79yGjr0H0drRhUhtE2YWM+jp6cYhWhlf+dzH0VBfv97nzbpgGe/tK++m77zjBHH55XK/gGZkeBT//j/9f/HCz36mSRN70StPWzBHNS7ath+Hd27HQx3j6GwcMxVNqyZfuTSE/+V/vYSbvUmqiRFUUTXRAr21tSz+4DuH8M/+p9Nobo3alhkqv0BB2drkF7UWlcAe/SmMZlaOSB1n5BUCTZJIH08XsJTIYzlRxKTW4CxX4JnT38UnHv0WyxdmMd2klzGHaZhg8Sew2aRNciJu/4w0uIn0VHRkcgr//Yfn0N0zgZat7dhxaB8O7dqKQx1R1AZ0r+uEObqTM0u4fbMXty6exd1LlzExPIilbAZpynuRWkpY2gw1mSgBp6qKAyoBQQCzvasLO7t2oL19C1o0qVtXZ+8yVRGcyiVU/SGTTSMej2N+dgbDQ8O42X0TN27cwCiBJ0OlqCoY4cBcRJbARHUBfvZPZkSNh32A/aaGQFpPMy0cqUFtx1ZsP3QA7dt3IxhrxPD4HMZG7uLZJ47jyUdP0SzTa0SEK+sv7w5c7qW3NKM8xt3rF8JpjmZ6ehr/9b/9F/zt3/3Q7MVoNEYVrYAkGao587A/htbaEI7sLmDbngCizbRF22LYtbuOKmEF5maSSOpFNDKhscGHz31mO/7BPziG3QeabMn1Gg+tzxGKSgDWVh0oiMl6tX41t4pCrkiUz5sWREvV5my0VDtLZmbyjLPmM3NqdmEGHS170dq4lbGYGOtiT6aUcBn9MgzcpF9vulcGRAqzTlWSewHN4Mgo/uQHr6Pvzhw6O7dj15GDOHpgG45sjaCGlr2lw7hZyufw+BSunzuPGy+9gD5qNBOjI1igXCa1wjfs56Bbh7bWZns8rfVkTRyET5w4jk98/BN46qlncPTECYJNB2oINEEBRGk+RnnYwTyk6vt9fsRoQTS3tGI3Naxjx06wf+1GTU0Ey/MzWJyfo5Xhp4kUNTNLK5CrmJbMsjWaVRl2mmK+gCpaF4VMypaS+AKV9gpFA5WDRCKF8YlJbG9vpZlHc8oxx+r5ZvRO/efdPY0qMV6HgCZNe++v/vIv8Jd/9ef2NCgWi9oTJ3X6MO3KhoZGWzkcqsrg8N41dO7U2hk/VTjGjQZwmIDywPEW7DlQh2MnGvHlL+7Gb3/7MPYfbCLqMp18UVBgqqAGFsdgmU8EEDJNQLOW4zkZZdsJscG05ifD9NOyY6kB2ZJvnkudnSXT11Z92LH1IBtY71A5AbuXOZtg85tB5TJdfl7u9zq0TKeBoRH80d+cwd3hZezYvh17jh/A0f0dONgSQFgDopLhPQkOfncHR3H11dfQ88pLuHv9OqamZ7HCCJqbCUZDaGlp4MH+QU1F61mOHz+GT3/603jyyaewY+cuhMLhN5RLK3rLycomD8N1XYO/XB0B5tHe0YHjBJ0d1JAK1HxGqVHl2Cci1fW6xcwq26qCdVulaw9VqOX48hnks1o4WEQoErQJ6ij79djkNBEph+3U5AR86+ZUiV8e3Xv+ZvSunkaVk86vXr1C8+k/sBPPm5pnj7lZ+BABJVYTQ7S2HpWBIOqCaezqKqKp2W/mkvSJIjWOQMiHrbvryeg2PPxABw7TrW+kyidthCAic1mVsnpRHTSmEjx0XUAksJEqqHeleNm0Gk0Oy4xK5goEHNrEjJcTOFHPymRzLOsUmho60Nm2h3WwtrIyi5S+59+k3wySHDs5+HmgsZXBdKsINH39Q/ivPzyLgfEk9uzowv4TBJoDW7C3wY8AzRDeYXGX0jn09d3FtZdfQe9rr+BuTw9mlpaRpAaRDfgQqQmjo60VDY0NtGT82NrRjk998pP4FIFmx45d9kRI+YvK+5zk0pV14/BkVW65DHuk1ya2btuO49SQ/Lzcf6sHK4k4NaUm02zyGVofmkz2u3VruVUO2QSZqiKtBPYVbcwViYXQ2lyHHAf3yclJbGlpMg2svK94/NLh+d+O3taMUqLllZBWs7S0hD/53p/g7MVzLFDU5ml8AdqgwRBRWYvwwvAHaIeyPNX+JDqbclTrtMuYGyVUoBzBIpel9kKUkLqqR9yFtDb+Iagwv1WChVYIG2oTTTQhrDh5jhx6L0pukWBSUBgZlaU6JKBZyeUINkWCDcMENkpXz8TZ4Isr87ZEe3v7ftTXNFt9ypnl0btl3Cb9+pLXtvc+ZfHaXiSguTs0hv/8g9cwMJnBfgLC0Qf2U6PZgq5aH3wEGt0s8ZqLJ3Grpw/XX3wRt19/BcMDA5ilCZJkJyiEA6hrrEMnwaWmutb6yLEjh/H5zz+Hkw88iFDIvR6gvL1yeZ25PMzz6yiXT8+ve8rDdGhq49ChI2Z53O65jrn5BdQ0NHHIp9ZPk8k9Nmd83lckLyo5eFfp6VYmZ0976+qraU7VYXp2nv2wgM6tW20bDE+7uZe8/N+K3rVmowykft3qu40/+t4fY2Vl2Ww7AVAwELBDqqEtNCoxS2pcaySDhhoyiPeqHSvEHI0GLK/W1Wi3MYGJyBZMMUxAI7NJ+qJMp1wqj0wih2zSbTVRJKDYhDGzKTKpDBNLaKJYmk22YHM2OQJWvlDh5n8sbWBmfhqRQA3NqQO0dwOWp+rn1VGu13jlDbpJHy0qb2MTMpKeNrlzAU0lxsan8F//9gz6plPYt30nTp7cQ42mFZ3VlfBJNnm/BsbZxRX03OjBDQJN/7nXMTwyhHmaI1pQp8V1TW1N6Niy1fYFbmisx5NPPI5Pf+rT6OhwLwzbgFoqjze4y+8d3rlXNo8U9k6uJodlWmk+p4Ym241rV+xpWGNLm20HniPgVFRREWDdi4yvwd7HflRJ64D2A/zhCLa0NohhmJ2dQ9uWLfZkyiuL+r5I5x5Avh29I9iIlJgS1gTSq6++ghdfepGJa1Fe0BrGr8d4ekWeBbfFRiy4Jr7S1GBqfCm01kiDqbK3uoUrMpM0ASxAsZW/JT9RxrQVHVLrigUiMDWgbIKNt6JJLLOpbOm23mRb5VHkkeMok+K9cTOhNEHs7mUyBmhKv7LSj2QmQQ1nCR3NO7GlWa/Vew3r6ijSuRe+SR89Uiu7pla7y7PRqRUu82JqcgZ/+MMzuDmygr3bduEUNZpjB1rQESXQSIAp+zLbJ+eX0H39hgOaC2cwOjGORcp8mqJTGQmgbave9G5H0O/H9m0dePbZ38Lp048hVl2zDjLqpOUd9V65K5fH8uPeMJ2LPNcLVz7a9W/n7t0IsG5Xz58DIQYNrVtoTXCYpmUgq0O3sbvwyiqqaDpJk5F5UtNA7aauxrQiLS7cyjr5mZ6oPK9y963obc0orxJyxZA47b4XX3oBN25ctXka7fSluRgBjRqJEfXHMAGRDymWN59NUrvJIaTVwmwIm5fhUdAhYJFmQ01FoCITKUdzSppMjjdn07IheZ3prDKequIL0tbUyyYEnBzPM4RoaTZ6EpbIUQMi2AjUCNDIs+zSbFal/kioWK7FlRmeV6JrywFqZjVvYJjn9+idmLdJvz6klnVSID/l2XnW212Dni3Ym5/HH//wdVy8s4id23fgkVP7cfxQE7aECQoaEHmjFpBOzMyh5+p13Hj5ZfSzA49PTmGRA1yaRoo/FkLnri60trTwDDiwbw+++NxzOHDosA3aNrAyf0++5Hrl8IDHC/P85eT1yXvlVVR+j+eXFRCgQrBz1y4klhdx7twZhOqbUFddh3xyhb2H8finVfmrtAv1XlUlB2ztcxyIhAmYjeyDtBxWEujs7EQ1wdLLujwfz30rekvdx0vES0AV0z6nKyssHJml3d6t5TRJxnNtTajFRrlsztCyWMxjaXEJN24voH8wgfRKFrl4DomFDFYW0u6YTyO+kLWw+EKKYSm6aSSX0kjwSC9lkI1nUSCIcBxQKbCmZdh+MjpITalyzdbYLGcySBCU9PRJT8Tc6wsaqdR4BtAEGj0pC1KzrUT34Blc7z9L0FGqYrDj3Dsxa5N+fcmUGJI6ieYs5OoJqhbvycTWqwDaQvOHL1/Bpf45dG3djlMn9+PI/ma0coAzoKF86Cnn2PQ8uq9cw42XXkLfubMEnikssTNkeD0QDWH77p1oa2pBkMDywMkT+OKXv4yunbuYj5uH9IBmvX9Z0s7vAcnbkXfdu8c7vDABltJx8u/mcgocjKtravGVb34LR/btxnh/L6qiEdQ0NqGSPNCG7LI+bKUxy63Ff6mlFUyOTGBpYRF1BNB0chlTU5NWB2Xn5ftuyix6W7ApT0SuACWTIZh4SFhinp7hF7J5aid5dnRqJ9RCpqdnMTE0hMmZJPpnKzC/zOtpbe2ZJUISXJZ5EEzii3JzSC5nCUgZZJIEJU+j0UFNRSaVZrLWfJWmvmaYZ5YtlKEEpYi+caabYN6aq5HdqcKpjFZ+xtO7JAIbAY/2ek1mZ3Gh58cYnb5DIHJ2pwmB4v4c85TeJv26k4DFuU6L0c8DIL13l+Ug+erFHrx8dRQtrZ148OQBnCDQbAmxE5aARhrN+OQ0eq5dQferr9B0OofJ2Rksr1VSo6lAqDaKnQf3ormhCQHK6+nTD+O5576IjvaOknyxw5nmos5jp0blMuf5f1Hy7pdbLr8OGFy6msPp2rELX//6NxFczWJudgoNegOc2ovxg/EraYHkCTY5MqyYzmJpeg4z41PgGA1/5Sr79RRSada2LC+R574dvSXYeAW2RErpyG9f5iO4eIHaD1WvHOhTEgIfIeLc3DzGR0Yhy277jh1IBbdgbGGNWgrjpQhYSZo7SSJnvIB0giCTSCOboFZEEyqfYToEDSsYhaCytNQ6oM23eOR9FfbkaYn25kouixTBLaMnUsxXe39oXYJpQfRbs4rRdC09SpeWfIu5gxNXcbHnp8hkUyUBUP1KEml3uPrK/24YuUn3J3ltJ8fJMtu21PkEPPJLbq909+MHr/UgGGvAyeP7cYxAozkavUypOJKt0Ykp9F67hluvEGjOniXQzGGFsqOBL1Idxa59+9FYU48gTa3Hn3wCv/XsZ9DQ0EBR5IBJ7UF5Sp5srsiKUZIznq/3NZIX/ouQd793r9x7/aqnzLhHn3wajzx6GtMjg/ZVy7qmLewfKpPuZ9ehlqeXN/VuVnZ5GZOjk0hl0vbi9OLcNFLUANf7RFme70RvCTblBS31PZ2Yo4xkegg1VQGb6GVBc4Us5mfnMcVG0fzI1q6t2M7DF23FeLway0miO22/QoZxUwWCSw5ZAYzmaTK0EfNKS9lpo61Ke+mywl+FVWo0azyvEOqyxAk23hJNp2Xtq8oRSaqtFvc5o0hMEAN4sAyyzXXIb9pNxSpi+pRFRQaXbv8Ut4evWR2tmrzHNZirozXQOjNLzN2kXytal+NSO7JF6VfHo7ywSfUwY2R8En/z8nWkCwEcPXIQxw62o7O6ynYbkDDINB+fmsWt6zdw68wZ9F+8hKnFRQOaNNMN1sawc/8+1NXWIhSowlPPPImPf+LjqK7WAlJpNDJtpEF7sunkzZMte19PsRT4Hmi9rnSVdrnf8mF5pd20tLbi07/1GfjzOczRLKpraUUoFDEcZkzGJdCwz+nBS4GWzOLMPJYXV+DnQJ+KL9MyodGo9JRfWfrvRG8JNkqg/BAxeVsUxAAzV2RWqfBSSzPs+PNUuZZp3wWDAbS0bUF1XQ3NlFUE/T4sFhowvBKx9S+V0o6yvDcngClSG9I8i0wgHsyqSGBYI8hUhFlpqkdpmUrUZvR4W/4U800x31SOphM1qoIAj1CjttRTMikq2h3QR82IQK7XQcxVOHViE7BYNIrZlbt4/cZfY3phwoTBqsl/HujoEA9d/VkmZbBJvzbkmrPUaqVOoVD9bEKYArG0vIIfvXwFEwtZHDl2GKeOb8eO+ipq5YrlnjpNUIPpvdGDW2fPYeDSJWo0s1hhenowIY1mx+49qCWw1ET8BJln8PQzH7M1Lp7ptNER1UFVJpXFhVuZ3rmf/kLk6vlGUpjkXiRZP3r8JLq6tmFy+C784TDqtOCPP1sLR2tCuwJqDx5ZKgl9EnhmznYDLOY5yC8tWV91vJRDt3S405/PX/S2YOMxw2OWzA2ZIcpCaqHLgA2SLRBklpGkORQKh1BXX0eVy0/NJWtPsAqZJPJsvqFEDYaXaA9SMxHQC7dUOake2uJQz5v0BCnLimjTnwxBJU30SbDC86k05pJpmk80u3I5Xpf55B5v29yRysc0DE/o6olYJTUZe1u3SluT6mmD/NSSeB5kPSIhH26NvI7Xr/+QamLK1dfqVkJt86vm5pOomG+Tfj1I2syG67Wba0PJR5ba8avnb+DywCxNoIN44Pge7GoJwL0zTZnkfTPzi+jvvo3+8+cxeO0yJmhGxHlVplMwFsP2PXttW4baaBAf//jH8djjT9kb2hqEvb5T3o+cbG30Kc99P8nLszwP85dcsaOxsQkPnHoQaWopOSoK9c1t8FcFrP+oX2p0XtUIzbLmUxkszC7YA6DVQgYrS/P2MTxLk4nZR+3W096o2730lmBTfqMDFXZWIp7e5xDo6Et8MqWy2QySK3Gbx9GGy1pEpKdWmtlPJJJIrCQQX1aFElhMVKF7Ooi+pQIWV6mVMB89vi6wbPYYm3lIY9EeIIspqnjxLBbSRFKmF6cWtJLJY5mVTLDSmqPR/IyBHgVDn98Vk2QqGY+k0VCz8RFkzOXh96/xIBAxrIKAEwpFOXLFcb7nr3Ct71VVWjW3ekk0vbpLPslzhlkoD7mbdL+T1wnk3ivLasX+uyN48XI/Ys0dOHliH/ZvCSNm78foXmBhZQV9vbdx+9JFDF2/jMnJaSxRo9cA6OOgum2XNJoaajRBPENt5uGHH7U9Z6TRqI/oWM9vvQwfjAzdm6/I86t80Vg1HnjgBM0+H5YW51FT32Bbgcq8tLKzv2jnPykBRVoQK/NUJgg6a7QuEivLyOQIt96gXErz3vzupbcEG5F3s0iuthBsbmpmB/bbB7i0K5g26NH3aLT7u56Gyw7KZ7LIEi31vZs0C5gk6CSXWUACx/SKD9cn13B1NoV+gskYQWVa7y4RPOYKBBhWTMcs05ihNjOTSGEhmTVNJ6288qtIMq72HxZjbF6GwEG+8FAj85yoo3U/2rtYm3DpmzzO5cEyBgyEGJ9xYpEYEpkRvHTtj9E3fN0YrSpr8yLxzGOmhM/Jh/6tn2zSfUiesMv1DjWq59ck6fziEl640IPkWgTHDx/EwW21qA8U3aDCuCuU6YH+Oxi4cgXDN65jfGwCCxzkMkoqHET7rt0GNBFfBZ58+mmcfuRR29hKnU4yI7ERuf6z0Y+c7JS7vxpyZXB19vI2PjBfDdCS867tO9DUVI+l+RlaLAFECEBur2O9qCmTyodV+mU5JJdSSKaTTIQWRTzuVh+TWeXpi1web05vCzblhRUTZSJ1bd+OaqqP+paw5mweO/0YPv/cF4iMdZiemrF3p3L5nK11sUfiRMIczawMNaB8Ic3zCo4YfvRPF9A9n8St5TTurGQwksxgMlnANLWX2XQO82maTjwWeSwTjOy9J2o4eitV5iKLo5qpkDzIEIKMTCbNKQmVfayZAMUBjgc6FTSfBJp07cNgzpyStjYxfx0/vfifMTY9YMwWy1b1YpYExRpIfBBXNhpN1zbp/iNP+NcnheXy3NqQbavP1F66cQu3Rhexa88eHN3XirYoByxe18qJOAfKwcFB9F25hpGeHkyMjGAhk0ZWaQX9aNu2FY01dagOVOHpZ57EI48+VvZG9IY2Y7Kje3g4+SkJ0IdITrNyvKilNrOlrc3mZLTrXyRWwwhVNrDqKbDmPZ12s0bLRJ/yTZs1kc0kzARVH/Dq6tXt7er5rjQbubJBNSLsIqJ3bOmwF7m0evjJp57EP/kn/0f84//t/x4njhxnfGCZ6uc8VbOFxQUsU6NZia9gie7S0oI9NtN3uzPZSswlcpgi0EwsZzG1lKMWk8d8Mk+A4ZEtYjlTRJwaTZJ5S5tJrxJoiMoqkzfZxaJRmKiN6CcmldbT+Kjt+AhA62ATgDtK5wEd+nQ4TSqpj+GQHwMTr+OlK39EMJxiGtqVp8RM5rPuV37MR36FbtL9Ra6NSgcbytR7hsvVHIzkZnJmFq9fu4NwfSOOH92B7U1++LFqg5jMg5HRMfTd6MbY7duYHBrCPAdQ23mJJkd9WysaG5psT6bTj5zC4088hWgk6oCGaUs2XGdzi+lcWRTu/B80ubI4cn53Ln8wHLGvQWhXBCkF2t5CbwWIYWZKcYC2J1jsRwXtqBmnssABWJ/0zUrLIXm89ur3dvV8S7C5NwEb7enX50OPHjlKvwobtMdobQz78pe+jH/+z/85/s//p3+KL33xyzhx/IR9bjQY0uY/oMZRRftQmwVpYncZBTbfqpZ3pwko0l5SeSynszy0zWfBFuklOQLJdMroHamCFg/yICfcY26WkVqMlY3Iq00PfQIaorGfmo3N00ibIaP0yE47yWv1sB1BHiGWJ1ilZQamAelFuWBwFT1Dz9OO/0MsxqcNcBwvLDers1Md1ViORwp39OYM3qQPliQPnut8Jb/khDKc4Yh88UYfZhNFHD5yEHs6a0GoMNnS1MDk9CQGCDITfX2YonYzMzdrj7cLHOlj9fVoZOcM0n/qweN46ulnbOm+Axp2Jubh9RcnJy5fT5uQ/4MmJ6OOyvuySDsEVkuboXzLCvFTa3OfASbQsL/aDoKyGHifFuumtdg2X6SlkkaOmp7I1W+j3l7Ym9HbvohZnohcHXqsLbvu5ZdfYSetwuc+83mCShv9PnP3H9hvQHP64dN44PgDOHr0qB2nTj6EJx95EkeOHkRidRZTy0PWONKOrDOrfKyYrfBUfjpXI9Ev84iOrCWbo5HfbQAkxglseE5NxraxYNksLd1nfOY//skwsvsZrvv0AqkmksV3CYPCtfNZfjWH8blBpDNJtDV0IRquLdXdxXWJK2FXDgmUzst5tUkfHt0rr94gqUNtfpcm0Y9euYZo41Y8/sgRbKv1wc+OpvlE7c90d+AuRnt7MU7A0dcPtJ4rS9n20dRu1dvb4RCOHNyHz3zmsxxo20zjF0keRfe2/8b5hyMXHj9EAkVKrZ3r0Gbply5ftrmp1vat6kRYXpzjPavsCxyIedsazSvkeDAsXEdgrg7RQqjC9l0HyY8O5cBjA8BE9/LAo40Yb0JeQb3Da7y9e/bSTn0YEWkDoYCFqSIFNppe+NLeqYrz5JNP4LkvPIdvfPUb+NpXv4bPf/6z+PqXv45vPPe7aG/utO/ZrAoL2GHtDW8eTIKHVioLTWW+uf1shD7MnXVmRVZlNkklVnlYRh6as5H+sb4PDu8VDtjH7ai5SNOx9z+MObxG/aiiskjNpgLRaBWiMY5csSCaGmoRiRZxY+hH+NG5f4fR2T7m4dYfeELrsU1eD6jKG1Xpb9KHR66NHHl+DVjZXAY3bw9iMbWKA/t2obMhiAA1Z310f35hwcyniYFhzA2PYGp0HEvJNDKU7SLBpq6xGeFICNs7WvGJjz9jb3Nb55WMldq9XA68w5HnfvC0UQYHiO51DfUU8WbVBudwJFh6usy4lX5Bhy0TsZet3Qht9dIufxlaHO5jA07r96ic529Fbws2XkE9BnqgUk918utf/Tqe/cxn2EFj1nV1TXGsUEQMHTbPw3BtuKOtBivYsf3BEJ489Ul84vQXEA5EkaU6tlbUo3TdR6Ag0OjQuTcRLECyRURiklXKVcx7pKkIAhl1/BARuSYWQkNjGE3NEZp9HJHaYmhu5dEcRVNLBPVNYdTWBRGrDlKNDKC+LozW5mq0Mo7ib9/awvgBDM69gucv/zvcHb9qWUpgLd91xjrw8c6d613bpA+axH9PBkWeX4cGi6npGXT3j6CJGviBXa2IVdB0SiexsLSIydlpTI6NYn58FDPj4wxbRo7JaK1JdW0dqmvq0FAbxdNPPoZdu/fYwCayuT3m41G5/36gN5RNJoDqpE5Fsk3reOj1HX0+xsJVHwKNtpOQGcW7rNvJVdwcwUZbyUjJEJVYbeTx3XPvpbcEm/IbTVOg6xVc5sapBx/C1778NXsU7l0T4JT7RQIiu1+aBo9VImg4GMannvg8Thx6xJ5cabJZrWe78WkSuBRfW0Oo/lr34oDHUjN0ZibMS1oMw8jEKCsvYWhpqaZ6GzVgaWwgsNRFUFsrcAnZ1qONTQQfAktbay3aWmpZ/hqCZzXqFK8mhJpaHvVBbGmrR3tHNdXoa/jZ9X+Lq3eeZ1nTro4qA/NWPaWViVXOL8F2YZv0wZB47rleGzjXRKTsehH9AyOYWUhi795t2MLBqEigWSbQzFGrmZycwsLEBBYmJzA3M4u05JJ9za9Nr5qaEA77ceLYERw9dpIjflAJltJVm2/0Dc+9X8irv8j84ov0e/qlEKRTabNQtKXv2mreHqpovxotb9ETXc3XuD7G+OyMmvPyVflNgfDS9Opfzv83o7cEm3LmlWstcgUeyqyjo8MKymwsbjkoeffYZBORUn49u9e8iuLt3r4Pn3z0c2iqa0M6m6Ymw4JTjZMJZRteScORy7hOq1HFHPgoN4ZaOj6/PoERRmNjNeoJLhGaQvo8qTQqVyjeqHuMyU79EzLrM6aRSIAmU8AYTd6iMrAGbeCnCWN/oBKNBKGO9nqq0oO40P/fcL73L7AUn7F6KDXtIqiEWbUyhstlZpv0gZB47rmuDdQWOt9oE8mivtja2zfCETmEHZ1NCHDQ02LUhaUlTM/M2TtCKwSZOWo/K4kkcrxvlUIRpVbjDwbQtbUNjz36OKrr6k1j9/L0XOUl8tz7hbwyisxfkleRtsmNJ1OIVNewz4QIBqsEmkoENEdFjU4PdWRGVVAD1F7e7N00o7LsKyHGD1sabj7VYYI73+DFvfSuwObNDiXoJXrvuef3wu3FNwtzcfUIUvTQscfw4OHTDK+wjZVtD2KCjHbxE8DYbn6MKjVO97j0hcpMj2EBgoY+UaojSIAxLZFxaIYTpBifh7BGYMOcySqXhrSSIkc6AZkxv7JIgdQEouaBpLlpstjNCUXCQXRQy/FXL+PmxF/g5Ztai9NrAmyP361MykDuBh9cWV15Nun9I+Ot577pIfn0rjsZVrtMTs9ilGDS0taExmgYqZUlLC0uYGFhCbPT04jPzmFpdhaL8wvIEoiKbN9AmCN+OGqTwo88dArbtm1XwqU0f56Up+d6/g+bysth5SIvjEGkxcVF0+Bq6hpoGUQ4AFchoO+J6yDgCGzYg0r1kWw7UAlHowZOCpd5qj7NE0vT/G9Bbwk2XiFdRhvM89x7E/XOy+Ovx1mPqoLx/lKhW5u24JETT6OpoQVZajdK2oCF14QDRZsMZhjvdK8msMAMos86ujZbD2pXeqJuIa95HjKG6OIpFppicU+sCAw8xLwAtRKpiqVVNA6RidyKK61LL+dVaY2OXnPwa1OhIhlfhabGGtQ1FjG28jJeuvkfcHPwVZapwHTdC5w6RM4tNYB89/Bpk94biZ/ri/V4vEHOSPJuXNNYrNZYxcTEOFKUsa3tLdB3PhYW5qnVLGBmdh6LBJo0NZwFugmO9AUlws4WiMVsZe3BfXtw7PgJygNNDebnae1e3p577/FhkspUXr71MtJV39ErRVMEXy0aqWtopYYfts/vas1QJBS2z/1qU6211aL1SbIMRfYTubFq9z0rS7uUl/qO5av+9Bb0S2s2Orzryszzlx/llXVhqrQ6v0W38IO7T+DgzuPW6bUiWZpIsUgThWXeMKF4v9VKIEUPz21ijod7YiVzi67uLcURg7TYj1FtBSTPWFmZV1Xwl0DHAx4xkLcxPe33UbT3plRevU9l5lUVw1nmupoo2lrDSKIXr9z8d3j95l9gObFgZXH1cfM4zq88N9xNen9I/PQeDOjw5MtauOS374tJThTGXyoVx9j4mO0F3NbUYF+IXJZWQ4CZpTYjLSfDY2V5xV4E1qrZCo7cVTza21vxxOOP00Rvso7k5Vuet6g83Ds+TFLZvPKV+8U7UTqdxdDoFPzhWtQ2NiFG66C2thq11dTkIiF79K1XkYo5WhwCHZpVsgY0X6XPAXuajcCLiasLreej483oLcHmzchjoBW6dHiVEHmIL1dUft0VQPe4eEIPdc72tk4cP/AAVdWord50QKFG1Vuzpca1OzUxK63HCVAlgcQei+sJFu+RbGlC2eZ6qBEpzJlTzm/ApfT406y8VkP7NKte5YefYKHUdWgiTPjj1uAwnhYJ0o6VpiPbNRYJoGNLNcK1s7hw94/x04v/FVNzo+t1t/Kqkipzye/ON8Ll36R3JuOd55Yd/LfuX+e52rd08My1ndqV7tTcPIZGJlAfi6I65Ed8cc4mhmfnFmk2LaKQTiC+tIwUtRpbQkGtJsi4McpkZ1srtnd2sv3dt9GUn8ko8/RM+3J599y3Oj4I8vIpd73+J1fHHDW7cWp1dc2tqG2otzfXGxvqUKvvvoVCtjm6Ns/SYj/pKhV+n/mjsQjqmqgdkh/WT3XNawPlV/K/Gf1CYOMK7Fzv8CriZSbGe/7y6yJ66ZeHf6yBGsvPQu/qOoiWBr0CkVufr1mlWbRmGg4bVyqLamxpsYKrAhoywx6RO01otSCgKfmlDek+ZUiVRT+VQ7sMuvU7Lm+FCVl82rRdE138sYRkCg8W1BYKEhRtPkfrdHjwbtuxbGt7A1o7Crg7/wP8+Py/x8Bot91rdbYm8PjlwjZckedu0tuR+GWck1t2eNdE6hDitg6FuUFEX/LI2/eO9Kj7xy9dxMj4BGpifprbaSzMz2GOms3M/LxpOblUCosLK/Z0RhruGkd1fQ1S33maXkrhp69fxo3eAUtP+Wkxq/JRrpIhtxPfhpx75Xyz44Mg5WPTAyW/SOWz+Sz6s5ksevsHkWEfamvvRD2BpqGOGk5NLcI0obRCupL3F7M59ifWTWWnVqi1OLV19WhobFyvr6X/Jv43o3f1KZe3Ii/Rcvet/OWN4ZGsG4Vpa9G+wR6MTQzQRqatSFTVh9adq0dxWmREUKC/ys90hZFrFCrGcQ3vAMLWEdifzhnirTsSk0tZE59IbvRToKBBwKPpIQtTORXFZtlNhNfvdXWiR+1IT3UkjHBkFVNLdzE6OQZ/VR0aa9tN2FVfd4/nWtKWhnKiz8I36a3J4+G9VM49xdEAp6eP6hhTcwu4PTCKs5d78eL5m3jlYi+uXbvGHhbHrh1dtj5kZnoK09MztiF/RS5NE2oFs+MzyBfZuShDFRzZ61taqN3UYSpRRM/AJHrujOHu2CQByu3rokVvMba/TGhp1SY3bNtyOX+z8nvXfpXklUHuvX7xampmDi+cuYZioBbbOtvRWhNAbTiAVDZrm4mtEnyzK3EszswgmUiZplch08oPnDzxAE48eBrhcMSlzfws/ZJr9BZ1fE9gU14RuW/ll+v53X3uFXd1bntTm51zcKwft+7esGv6PGmlgMWeCrl5E9sm1FYCsy4afogOAiStANZ2EgY0SpuHvbbAvAQ4hu8MZInsmrhjZhXLI8gxc0tPprwyWjz+Vx4uSSPL19BRi7g87Q0UOK3NqcJKZgIjk0PUxqJorGm3zcNUF6c8Ws4kL0F3Xs6jTZJcOF7IXT+XnOic4XZNF0qjtmRIhzbgHhydwBkCzE9eu4afnevGhZ5hTCxR1fWHsZqcRaQyi3aaQ6vUeCbGxjBL8ymXSsNXzCOxuMyOtYAi21e70wWra9BAsFmtiiC3xnas8GMxkcHA+Bxu9o+hm8AzNjVnK4/18KCGoFMls4LldE9t3ti+9/qtLs73vlKJTeukPL18JYuS2wK1t0vXCcB3p9Davh1bmyLYUhdmH/NhOZ6wLynkCb4rND2X5lTHDNb0/XGan3XVETz1zMew98Bh47vJMdNUpqqZ8pL/regXMqPuJa8iGxV6c79c73DnG51Vdl8sWo32lg4CRxBZCoPMII1SOrTuxh6J01zSMmnJmcwgrWbM5/R9KG0tWhaHZpRe2rQXN3kuLjCn9U+8rOkzmgrWOe9xH7FjgkrYTC8yS2WzuKqkK78z41h+BTFM2pRc3S/Vc2dXLaobxnB58L/gfM/zSFKQ3cSxmzR2dXc88w6R527SBi/ewCMyzfwMN5OJ7WKDCQ+tE+nuu4s///EZ/Js/+Qm+96NLuDG0xBG7Dl079+LRxx7BQw8eQ1MsyPu0PUkeywtzmJmZx+JyHMV8lnKUc6P3GoFJqjDbTK8laG8ayYzaLEx/Q00UzXU19qRmfjmNFy7149/895fwb7/3PJ5/9Qomp2ZLc30qqe6TpJC8epi3VC87e/+plI3l4eXv+d2DmUp74/1S7xCqIo1oqq9Bc02QJlTMrql/yHwq5LJIrSSQTWdt8/NVmVCrWTS1NGHbjl3UcALWN5WFsrSng5Ybyav3m9B7AhvRvYx8M7/nOqDheem6hfGaFv61NXagOlzLStBuZqCbuxFAuHkYe31BYbymw8AmWyBjeE5A0j459qhcgMR4+s53jjevrhLYVp1ZYxPHNoEscVDePEoCZWsIeG6lFai4YlsIY5Ti8Jz/VAV6TXvST4BYWRlEe0ctGtoW0DP5p7jY+9MS4JSAlXnaffIrfSVG8tzfaCrjRflRLjNyRdJiNUcyPDqJv/rJ6/g33/spfvDKLcynAujYsR8PP/IQPvn0w3j26eP4rcf34NjOagQrc8jk9NHDJMFmHvNLcWQyWVRoDi+Xt1Wx2ixNg0cFVdhwLEKNmmBDU11vP+tpZKBqDbXBSjTHfOioD2JrfQgaSq70TeA/fP9V/Me/eBFnr/YgkUywjNJ+NTBKokhe+UuuV5f3k1y6Gzx0PNuQL/FNW3levtmHsYW8vb3eUB1Aax35Ewwa0OiDkWvUfHLJNMEmzv5ToAkVsA20qsibnbt2oqWtfT19HaI31KYU9mb0nsHm3ZLHhNKJ+QUyniA11jajqbbVGsgmiDXZy06sp0gFnjuwcdf0CE6jTjZbRCbLc4GNXVMcJk/gEQDo65gCJdNwCDS8zdIXeGnyWahjj8p5GJAJeLzDyujSVFwpNgzmP91Gj+Lwp5dAdQjpBWYtTTVo2rKIvtk/xbX+V5DOFHid+SmutYPyKalc+u/x5DeMvFrLXX+UTb8nDx6JZ2p3hasTLy6v4GdnrlKj+An+5rU+xFej2HfgEJ5+giDz1Ak889BuPHakFce2V2NnYwD1voJpMLlCEalkEosLy1jhIKDNoqQp5bM5OzxzwBeQZhPhqRaJViIW8qEuEkR9dQj1NSE00m0IV6EpvIbO2gp01tPkZ8nPd4/g3/33V/Bn1LL0tQYz49cHGld+I9WNfidfOt4fGfD45uUjWXTzhQrTjCbQPziC8zdHEa5uQUtdFB0NYdNuNGDmyI9MOoV8IoHU4iJ5FUee8l8g2BQrV1FLre7Q4eP2oTsVV/noSZ/Iy/ud6AMDGxXIOzym2DtOxowKq0RjU6sBgqfdGMAQMAxMBDw6BCbSTNiAWQKNOrO+2GBxZE7pKAFIIUfAyVCgCDgEbNNqpC3zVhNgZmPAIvCwp1N0bS6n5Ld4do2gQ9fKJtcOhikerxmj1TBMUxpWfU0MdS3zuD375+gdPmuApzraY1lGdUK40VC/8SSmkA/SGt/YYRy/NCrLBOq9M4w//P5L+MO/PY/RZY60ew/jqSdO4xNPHMNTD2zDg7trsLuxCo2BNdseAWxf7SiXI9ionQQ2S/EE06J8FQk2eouZGo4GCuWpzhkM+mk2yezSvF+e/jXEggQXagBd29uwb18Xdu3bhS3bO9HQVIemqB/batbQXlNhO9n9zUvd+I9/+RIu3bxN+cq7trYqSkZcPeV6dSw575nW+xRdHXqC6jRoyVsFpmk+/ex8N5YKIbS2NWFLnQ+dzbW2+6amApJ6w53aTHphEUvzC/blkmKl331CiYzctXMH9uw9QI3Pz3ZxT988Gfbyfif6wMBG5DFjg9ECBcccfXe7qaGNjPFZp2WQM3kIOE5rkZZC+ckzDVZfC/WKOQIOwSRFwNH8TTHrAEeaSGXp0Xg2V7Qjp+u83y36EzAwLWk4ysPyoZ9hUjo8W13valXQT59O6PKiVlHyXBt3WWPyPgWpTMJOaV6FQhVqqqsRqR3H7ck/x9BEt0vPjo36e365jjz3o0+2GKzkegeZ4ZhEEk/kU2ddiSfx4tkb+Pd/9hLO9U6joXUnHqO59KnHD+NjJzpwfEc1OmorEakogn3MwH2FoDI+NYXRyRECCs1ZtleCYKN3gWztCBu6QCHQFqEaOAQJ6gz67JAW/2kOZ62QZtsmGTeFgI+A0lyPvTs7cezwPhw/cQwHT5xE596DqG9qQ1PMj866NdQEgOu3p/Gf/vJ1lvkaB8OUPSmzWq3XzdXv3v7wi5InN+Xys+H38qhEmhrLa5e70TsaR2NLK9obqrCjLYb6Wn1uZg3JTI78WkaGJubi9Kw9kbLv5GvzdjKlNhLCyZMPoblty3r6KrNXbJfPO9fhPT2N+kXJFXSjUOUdTW+ZDo3dxdXecyYImoSS5KihJChy9ca7rXcR2jKZfMaBgy284+hXSTWb1V5nhL75w77vEFV5KW+GOfxQOaQpqQwWbIeBioGHGo7ApLttJTLvY5jzM0yYI1I6dp/iM7xUp7ViFYJUwXPFWcSpmtZFdyAWqXe38LrK502Ue3xwDabE5H50STU0BpRcO2f9iSyOj2wg8UIj8uzcPP76pxfwozO3kEYEBw4dwsMP7MeDB1qxtzWMhghNH6awxobO51ftix6jY2Po6enBDR7dN65hhqBTRW0lT60zSe1DmqqP2bMr2UfYcikKkrRpyla0lhr2lhaO7KtYWFiAnzLo0+QMi1cdi6KtoZ4mfzVN/hiaG+pQ3dCIykgDihVBoRwCaxneA8wt5zAwNmfaUUdLvb24rDYWee3uyLW5a/t3T7r7jXLzRrL0GS5t7cK1Xvzo7G1UhZuwvb0eBzqrsbuzxV710ZagkzNTGB+4g4n+OxgbGsZyPI4s+9NaMMx+V8SRg3vx2c9/CW1bttpArQGgPG8v/zcrRzl9oGDjCqZOaXxQiBVY51rcN7swjYs3XqemEkdAr/EzkgMZCp5ARocehRNcdJ7Xh+6ordhWhgxXXM2P2BwJtRJbei5lhIBQYoflR35ZnvonbPHKYJqMBbv7XS9g2Hp8HgrXoROLJ1fpSGNy6ZuGYwkScIJrSOQmKeg+2vs7EfS57yorXUfyq6qlNNfDP3q0LpziF8/ZJ13tS+GOEwznoKGtSAbujuFPfnQWZ7snEWvqwIMPHMNDx7pwbEcN2qv12gnh3wYGIB5PY3hkBNdv3MClSxfRc+M6em90427/ANuFIMDOnsnkbW5CuVN8CAyUH2o2uRTNLI5aWtdVU1eLutZmLCUyGB0awlo2b+8JFQgkeZpj4VDQPkgXDgcRpcnVENN30mrgr6lnc2uLULZgIcFxMofFVBF3R+cpPwV0bWm0N85tvo/539sx7z1/JzJp8fgmfvIQCIjkF2mO69bAXfzFTy5hMRdGZ0cr9nVGcXTnFtTqI3osxyI1msG+AYz13MJoXz9mZqZtv+9CKGxfo62L+vDsZz6Lhx553BQCkZdnueuFvx19oGAjUkd2E1dewejnubr5cnwRV7rPY2FpFj42sHvEKa2HYOOXRuOARodelrQvcnJQqhLYSHpIjMmfnkxpoKFtSTNMk3UiAxnlywa3Vxc8SSU58ef9vGZtxdHHwIR+XTMAsnt5bmGWjPPzGrMpaT6uARRDJqDG3YqqHBKZKQQrq1FfvYPlKQ2VvHpv+7jzewI/IuQJo61IdQFinoWLGwJoDRjuqclt/MnzF3FnIoWu3Xtx+iFqNAfasbslgOoqgQwP3qelEpOTM7hx/Tounz+L7mvXbJvLkdFRTE7PIEOAcPtgVxFoZD5pro2nzMuvNuL9+bTAhtoOBzy9H1TX1oL5lQQ74R1kUissn1s8mstkkaRJogV9+iKH0tU7RDFtc0LQ8cVqUPTVIk+tdjWbZPp5DpzA8NQStZ0idmxtMbn2OqjVm343h1fig8r2Ns3vXZfrkbzrvC2lI6AZGh3DXz5/AYMzq9jSvgV7tsZwYm8b2hrrLU6GdR8eGsUdgvLwrVsYHxzCsrbXkFURDlP7K+D40cP4wle/gZaWNkvbIy+/e923ow8cbEqscT4rvATPMT6VSuL6rUsYnRiktuK3lbj6FpWtENYrBQQdLfLThKH8okxStrZAyAmsaRX0ad5FYEPRsni6aGCjPOnKL6ETrYfrj6aQ5nXosXN1AE0K6x4BkdJWXDdJLNCym9bvdwm72116sg70wmgCyewMNZsG1IQ7So0jwSippDzT5L7iv5uG+3Uicsfa2HhUqqP75+rq8VPtra1iX77YjT//2XUspX3Yf/gwHnn4AB7YXY+OGAeaCj31441k1vJKHH29d3Dx7Dn0XLmIwTv9GKAZMD45jQTTiVbH7BGvQCSrp07UclUWAQuHB/g04GguMJejGeW+HlJXV43a1haO+GlqNgPIZlL2eFxyURUI2CI3mcUaMAU4/nCElXAr3KMRaluREPK+aprwNNIySVSu5rBCDXxkegmxUBXNmBbLx3hRqr/nKsyThTeTgPXrulcRdK/CNCLTLyAVKf3xqRl8/6fn0T2keZp27DSgacUO5c+4kulpmqj6isTQtRvUavrs9Y2k5DESJc/W0NIQwxe//DUcP3lqHRA9E6q83F6ZvLC3og8cbFx5VEDnukMdUqsb9cThBnoHb8Jf5TbwkUmkawIT03BKmo1761tvr+btMXmADSlSUwkrtBu8njjJL13HFuw5VNGfAY2u2bmCeb1CZpArjhNKgxaR03J0QpZSY1EGms9RZB68z5lWDFPFlA4PNb1CV4sqAUfGwiLi6WlEAy2oDrev569Y+lnqrNRGw7lrv86k6jlhlF8Dg3ipennhzq8Osry8gudfu4IfvNaHPLXAEyeP4vGHduMwVf8GP3niUMZ4PDU9i6uXLuPGxXMY6OnFnYFh3B2bwBJViXB1LTq2d2Hr9n3wB6NYWVmw1b7SbqSFiq+VNMG0hYLebF7NUQOm6aDtMBsaqtHQ1ozFRBaDdweozSShr7wyc/sGtt561pchFxeXqFnnUV1NDYego7k9TSJX0+zwBQk4FWEUij4ClRYMZrGULGJydgnNddofqZltz3KIHzL5HQvW+aRLb0Yev0w2WA9J6LrWXrpRfJyZmSXQXMDF/nnUNLVhZ3sdTu5twoGuNg52muGC7a/cd+s27ly6guHuHkyMTyDOjlSk+VQVCSJQVcCTTzyOz33xq+tfkFC+6oselbeflekd6EMzo1yjC2S0xoVDDkk24d2xfty4fckYaZPEjGvzNX6aIwG9ZKdRhF2X92kriLwWa6UYNyBth4xgZ+UlyRMZxFTY6cUIBZnWw3z1dEtQYGxTowl5SLrPnoroj3Lt7uG9knERw5WGR95cjsMwaTkMtMP5XbKCJwVJOPRdIqr2uSVqN50IB5oUwci1lf1bb0TXgLrLhf86krW1uXZmf65GrrPIL9NpdmYOf/Gzs3jx6giisVY8/PBRPPLAduxtCiBGbUbtoR0W9Z34gbt3cen113H7ymUM3r6DWwSa8YUFhGpqsXvfQezcsw+x6mqsLM1hanjAtpNQZ9QAZQsxS+y0tpbsUetZpYkl8alvqEVjeysWU3mMDA9hbm6KeecRDvptEZ9feyiFqmlOCXAW2MgF1NXEEInGrHxBDojVYWo41MyzFSHKGgePnL4kWcB8PId4fAXbt9Shvq7O2tjKofY2X4lUxpK3nFx8XSHf6PXqYbJCV3ycm1/AX79wAa/3TKG6rhm7CDTH9zTg8M52alZuK08tFblLk6nn3HkM0ezU3NRiNmPmky8aIY/y2NvVhW9++3exY8fudaBx8uioXEbLw9+OPgTNRoxSAd/AXiOt2pyencCl7jPskBl7pq94NvlLu1hgoidSmsgzwGHr6ylEciXPu7UVBLUd+sw0YYMY2KhVSllZW/Gfm6sRs3TIr8OLQ23GUIIp6Qb6ZYrZroH66VzXeU1zMmoIF85bpEnxsNtFul3XeVFzRJW2mhk2YZzLJ1Eb2UEhdp+KEblG2/B7jenC3l2D3i/kld0bVFT+UjXpc3UT56S9Tk/N489/eg5nb8+gobmTQHMIjxxtx45anz0xEpjLdNYj2mvd3bjy+qsY7b6Jvtt30Ts0ihRRf/vuPTh0+BjNoBokF2cx1HcDw3e67VPLMY7MKS29Z372iVy1MfOXZiNtaY1Ao7UQGnw0Z9NEU2MxleVAtoZ9TFc0PzdHTSZn70JJcwpFaimjeSwtLZpp39RYjzDND3X4CPOMEHAKFT6kCwEoeT1Gl8k2t6RN4nLYs72NZSlNGJNFkllrZhspN1p7g48l5pXI6z/ijUj8mV9cxA8INK/eGEco1kCTqQ5HdjbhxJ5O1BBEJKcsCkZpZt66cAEDly5h5M5dzK4sIaXBOxaDL8C6VIfwpS99Gacfe4oKADscqVwePdcLf7f0IczZqHAbhfXIOiMbaokVv3D9NSwuzSPoD1k8gYsm4vQY0s3blCaEdY1OOp6lbQ2EqPmY/SoBF/PUIDJvyBw1qjUM7yG76NE1ZawSKQ4FTw1K21wuQxxTdV3xSn5F0TXdJ7/I4isf5qEwC1c8mzUW0DAHBlaaW4UipW8lPcEs86iN7WA9o7zHJVbOlg1/WeCvAZULparlTAXHlPXHvmwm7Zw4MjaF//78OVwdXkLb1t149NRBnD7Uio4INVSBt+5h+y+sxHGFKn/32XMY7bmFm7f7cXdmGtVNDTj+0EPYRrMpHV8myFzHcP9NFCkQx0+cxDd/+9vo3NaF27dv27tUoYh7W1nzNmrzSrUvQUCvLkhcIrEomjta3LflswV893d/F1/92tepOYcwOTVJE2WCg0wRdQ1tiFTXI53JIpNKoDYaRkN9nT1O1pxImHIaoDae4QCTLVAjK0iTJoBRq5hbTKCh2odtHVvEHCuPWth4xp9AT41v4WWu5/dMGcm0wgQ0mm/5awL2y9fGEIg0UKNpxOFdBJr9+lRwNWOv0fKvwPTcIm4SaG5doFZDM2pqbhYJAW44gnAsiGhlEU899RS+8OWvo6a2zvLwTD2vDKJy/7ulDwFsXEE9kt/NpYjvWngVx+Xu8xifGmJjUe1jVKfZuE2sDER4kL/0uqdTekwaX86baeWjOUUZcg3Gm20FsLwKLGVrXjFPjSgAKDWwLuuQXmQgI63Ki2PxeK/uU/oqL88NdMxUsypYuubRoWu6SwJCvwuT0PmRL2YRT41SdfejLraTAhMoCZVXEkuNh8ph/3lshN2vZPxhgb0O4pF4aUsSGK6f9g+6OzSJ7z1/Br0TcXRu34/HHtyHU/sa0BoiPwXUvF/3TFGruHzhMm6zk4wQaK7c6sN0Komd+/bh2KmHbEHoxFA/+m9eQpym0/4DB/G1b34H3/jWt3HqoYfhD/lx9coVjE9MIipzx8rntBvJgJkJBAFpOvoqZOOWZgRj1eijedZCMPvsZz6LRx59FHv37oN2uOvv77NPSms7zZr6JlurUmR71tXWoprmm6+S5gjz0NdXqboRuCqpBdF8Zx5VlQWkMhlbzbx9SyNqBAQen+iYT+cl/nl8lOsuubjeueZo5ucX8VfPn8UL10ap0TRSo2nAwd0NOHlgG1qo6Smu5rnmlxPouXodPa+9isGb3ZiYmkI8n8cqeRKsjcG/lsWR/fvwzd/5PbbHTscXZueB273tWu5/N/ShgM2bFrhUKW161N1/A7cHe8hInwmbkLWSWovby4YRTRApsEQc28+GPX+F6mku477kxwQtnjHHtA31dIUIRuxWR+Yq/40A3mHAIj9hzOIrnk0HW1l1XdfoamThsXHfxrnly59I11gICqSuE2yYqB6n5rMJJFKT1MjqUadH4tYZ3R2eX+0sVyxy5qcleV+S15ZyPdpoaxeuK9pB787dcfzR86/izmwOO3ccxmMn9+DU7ho0cHyxwYCaqyZRx6ZmcPHMeVP5B2/dwuXbvcixgx1/6BHsP3gM+UwafTfOYYgmUzU77rOf/SK+890/wMOPPIqGxgY3MBHYtMjvZncvwmF9I8lnJrDJhdpeDrUVgY34HqOG0tTWisnpedxmngf378f2HTvQ1dWFY8eOIxQMMLwHM9QS6ls6EK2hSZWm1kTZq6+rR1BbTrCOtOrhC1Yht0rAyayZpkQpYHmAxYUlplOB3Ts6GZeSZnxynVo8coD4Jnws8VD8lPxrb5q/oGb48tVR5luH3dsacWR3Ex440InW+lpLTNtmLCWz6Lt5E9cJNHeuXsHkxASWBJLBMIIEJF9FDltbmvCN3/4ujp04VWoz5lJyPfLaV+69196JPhSwEZUXdL0C6mRk4ODYAG7cumymlcBDLzquf2qX8R2A8D5eM/OKmk+W9vPKUtZkp4rAJCbr6wiSXKVjAsVAF8QThjkQUr5MX/F5CDAUSZOBiqtDN1tUkqndjK9oyoMndrhwxtQ98susIqm8FXrkannyolYZ80ZWhWlXUUgXkUrPozq6FbEI1WpL1CXseOQa9o3zXC7t+4msxKV29MjzeuH6qRPevTuJP/7JaxicL2DvruN49ORunNwVRR07ny3CJHNoQWGYJpYmgocINHep8l/pu41QUyMefPIZbGnvwNLsBG7fPI/Z6TEcPnoc3/ndf4DfevZz6NjaYSN+oaB37NZsE+/R0RGcO3+e8qUXLcPuoQSvmSkiHvPcp5Gc7RaMRtDY1kItOYRe5hug9nzs+DHbAqWmtgaHDx9GU0M9bvd026bherRse/JKu6mJIUYNxx/Q7o80pdTcHDRTBSCVyiGbX7V5H23wH6fZp7U3tXUCBZVDjmvve8kLcyxVXwCGhsfxJz96HWe6J82k272tCUf2NBNotqGNgKk0ZTotpzLol+kpoLlyCWOjw1ikhpYPRRBsYFmRR0MsgK9841t46mOfssltPc3V4O+1nee33N+kfO+GPnQzyirBnwECSRN403MTuNJ9ztbdaHd7zc8YEBGhhfj6nK7Ny5DztqpYIwMFJR7PULuh0PDchFs9X64edsnUYR6moUjA1Kj8CYQMaJiuyiWtxj7ry8Ou85qFieEqtuLwZ8Ck6/ovYFF5RHTlU/7KW/kpTGBhNVV9lZalR4lhtERymsK3gvqanYiE63WbEaPafSKxTOG/bEP/qmm9zqojy+h1Gs+vQwAwMjyNP/npKxhY0Gb3D+HxB7bj6A52Ymqttv6FCeWYxp2RKVx57SUMsnPcYofvHR5Efec2PPjEJ1BTHcXkUC+B5jK1www+8enP43e/+w/wwAMPUHMJQe8+KT/JlgEc85UsXb50Ecs0JWLUgHRd+C/+64XgSsqIXx1M8am51FArquMxt5jE0NAgdu3sQue2bQZOQQLL7j170EiQ6O25iaWVJJpa25mP3q2idlPvXk8QsOlLDlqykWNbJ6jdpNKaonUyu7S0gEhgDbu3d1pcybDKLCY4/gmpXJt7PLSFruTRzVsD+OO/O4PrAwuoq2vAHmo0R/e24eT+7dRoaDoxrVXeH0/n0UegufbKS7h98TLGRgQ0GWT8YQQIisGqPIgz+NwXvoTPPfc1A2btqiDZdJLs8i93f1n60M0oIyejFm6CkY7jElXj2fkpG02kLpr5Qga4J1FuglhgojC1Cc9s8i0Vz9vLldKCSlhj4KJMlKd1dJ5LqKR2qBTu3DFTrrQaXVCeTjty/irThnTJhTvthOnqXOmbK9K1ErBZuZWVQMxdKzl2r0Z6PaVYXhln4Cqa6vZzZAkzH9cTNvjEG5SKyuNSuG9IPCkvkk5FKrvXSdSuU1Nz+NOfvoaeySwO7D5F06kLh7p8BBrew+pKo8mS+/0EpJuvPo9Bqvu3e2+jb2QEbXv24uFPfJraRwEjt69gZKifwBzB55/7Cr76tW9h27ZO5ljqkGpHdUrJgAYZuto58W5/P/r6B1BTU6PMDJTURprAVx1k4vrVZmyTkC0IbKb5HsXg0Ai15lkcOnSIHbveNCaZ+F00raT13LhxjcaRH3UNzbarZB3v1SsNiqNBzM/RbI1mczxbgWQyhxzlVJpPjgCYWpnHnq4OMwHXqcRQr+lVJ5F4qLU9567cwveeP487Ewk01jdi59ZGHNvfjgf2d6K5lukwvvagiWdy6L/Vh6uvvIy+CxcwOngXc8kkgSaEEIEy7CNwruXx1Mc/ga9+8zs0ARsM8KyfKPN7xGxDFn85+lA1GzHRG33KUVQbk/fcuY7B8btmXxvYUGCs/nJ5D/ku2XL3OjXD0sjRLs4k9T0npwUZICkfdXqlb+3GmJJuhlsZlAbjMmmqviU/hU62tVasarJSQKN7naklIFEqHIk4ChgQSUiVVime4ri4SsvLX2UhYPFe02zYsJY/BbFQyBBwJtgpqMLX72OahC1eMzDlvaYZuSArn1XeSvHhkte5SwVzLkn8l+CK1EmmZ+bxp8+/jhujKezfQ6B5oAuHuypRzVFfywpU3SzNyr6hKfS+/CMMXb2Mnt5BDI2PYMfRE3jg6U+jkF7BnevnMDE2jPaODnzzt79jZpPmZty2Bw5kXDFcueSqSNWxGFaWl3Dh/AUOVAFbh6N9bJwGICniPQIb2m8SrUpfANXsfNUEkCyrcet2n71HtXffPls5LDNMW4HuJOAklhdxu+8OgtV1vBZGWFtoUrsJSitnGWROaZDMEPjiiSKSNKfEE61iXpib4gATwbbOrVZeT7vx5uxUfjWzNCF9auZHr1zCX754AzPLRbQ2NWBHZyNOHurEiX2daKDG5+pT4eZoem7j6ksv4NaFcxijZjhPcMv6gwjRxArTvvOvZvDo40/gm9/5fWxpa3ftxbyYO/nh+Gdtqz+575E+tDmbchJIuMqUBJc0PDGI7jvXoC0bbDEWe746mwGIPCTHB6mk/M9DrhiTSmhDJJpTuodt5RZ0CQh02TWevtKgVJTbOhAwgtI0cOAha03pmxYjVw1vZXRp6WYvXOk4E4rXSump0RzYCHh0TT/eoyJYOMm1r33hIZtewkpimh2jHXW125WcpI35eSX1/KXM190Ph8o7tHPFS16Qv3RdWujKygq+/8I5XOifx+6dx/H4gzudRiPtVLzgTTkCzZ2hSfS8+EPcva6vGQxjZHwUu089jBMEmvjcJHrPvYT5hTns2XcI3/rm7+DJp56xtS3qJJZ3SS688qyTgJ/lUFm6b96wd6Zat7TbHjl6jcHKa+zkfYzrt05HeYpFUdvQiEhNLRZpft3q6bHOvGfvbptoLlDD0erijvYtGB4ZxNTskj0uro4EUV1bg1gkYiChH7NGnmmupNeo3WRN65ZMz89OA8U0jhzcQ402YHVR2WWuqR6qk9IYHpvA939yFj8534900Ye2pnp0dTbg1NFtOLF3K2oiWrMjoKnCYjyD3ps9uPLiS+i7WAKaTIZAQ42moR7hIEtUSOOBB0/hW9/5e9ixY5f1M4mS2kKNZ4M6mWKgw58HPu+F7guw8ZgqBov0xvfs/CQu6w1we/GNlq8aX4v6pOVIskhu1NfI6cKt3/HQ5lvJlaxNMsqGVrBu0UfoxECBhRhoIKKeTwFTBHeuDuOAyMCCNxu42B3K12ku68BF2kiT13SfrrHhncbkhMel59K1jTAsXQ9wSmnyPBmfQSYt9fgABbpOV13ZlfA6ufzkfpik8qvtXDlU/7IyiZ/sYZlUGj9+7TJeuT6Kzm0H8ORD+3GwK4C6kumkETxHLtwZncCtl1/AwLVLuNrdh4mZSex/5FEcf/ITmBnpR+/5F5Ggea2d/X/n27+LB9lRtDG+TFCVw62vctnr3BVB7clWIH9FtbW1WKYWcuXKFZvEjcSqbS5H62Z0i2IpboAFk3azStmJCDRq6xGiZrS4tIgeagvaPnPHji7E9JoC42vjNz+Bo58mGsc4NDTUoSYWsU+j6LUbfRJI2o32QErk17CcyCOtR+0cRBMri0guzmDfjq2mDW2Q5no0j1NkP7iN7/3wdVzsnbDXL9qb67C7qxEPH6F2uLPd9kjWk041xeJyEj3Xu3HtxRdw+/I5jFMzXEinkQlQ46pvQFQ7t+QSOHb8OH77936fmtoB14ZlfPOa0AvTnNb6tfdA94dmU1YRVVwqphZgXbpxFnMLMzY7LsDV/rBu/kbxyQAbHvSaA8HGT2gQGmtEoNhksnlqOHrfpQJBXtdQYhqOHhWVuKk0dcmElCquwEbn6vS65jQcnbuOpP5taM+0lIJdV3lVDo2eSl+HnSsvp0JrAtrN7QholHspXbnKh/faFgfSWla1ZmiK91ehsfkAgTbohIF3qX5WbzoKMjYYrXs+MFKJrBAlcmUsIxaugnV67UoPfni2HzWN2/H46cM4vCuKBgq8+K12zLPow5NT6Hn5ZQxcPI/rt/oxMT2F/Y89gSNPfBIzA724/vrzFPginv7Yp/HNb/42Dh46xHO1A3kuJghoLE9ly3TlVXjJVdl06GFDKBS07Sdm5uaxrWunAU2agCOp0Y02x0Oviqh7KgMhxGrqqanQ9KDGsrS0jBvdt9ipl9DW2ozGhgaL19TYiKmpaYxNzDJuLfTRN/sOU1gf7BfYqCyVSBUrsJhUngXTWNZoPs9PjaK5qQZdmihmmHdMUAP7u5cu4K9+dgWDUwmmV4POVm3g1YKHju7E3u1tCBLM7AOMzGV2IY6bl6/SdHoRfTRDJybHsKD9eoJhRAmAtO5QlUvi2IkTNJ2+i0OHjhmPRMrPGrXEQ9G6axx97/Shgo01pipJ0gjh+VU3bR/R03cddzmqaRJVo4DCrXMScEyt4z0i7Rvr52F2Ls/dUygCToYjSEpPp9yqYwMi5ilhsogkLb7yK1ENs2wy6UE2E2/PYCkkjOfmX0wcDRSUrwGGAEpmnuZtFI/XBTya3xE5sKFbECDpHv14jXFUU92nzf+cGcZwCiJhEwUKxPLyJIJBCnPTnhJfpCE5TYvRS4KgEpV49gGT5e61n8rP8sjvmQHy68sH33/pOvJVDXj09DGc3NeA5iBLzKqq+PpG0+jsDG6+dgZ3zp7BlRs9mFpYwIFHn8bBR57GVL/WhTxPgAjgE5/+HL761W/YpKzyVZ7Kw0xq5c9D3DDSdXPWQ9ZJ2oN2rjt35ixidQ1o29KB+Moyspk0y8Tys2BsTfjYzgGmqClkf4iAU0ewiVYjFgtxIMzgxo1b6B8YtDK0NLegujpmi05l7uTJg+ZGAo60J2o/Dmh4sL6ZtUosUSY1USyqZA6LU8OIhHw4fvgQB06f7bN89mo3/uxHZ/HylUGkcxVoa6zD1vZ6HNzbQaDZZfvjSPPWNrZFlnNydgHXL13EtZdeQP+1qzyfxiIHXAFNjHUO67v1xRROPnDK5mgOHz5u+Vt/UOHk5894Whb2ftJ9odl45FVQXVLazdjEKK50XzB7UvasOrpd9zEG4wprJE5a7BcwsKHg+XQ/iRf0OD2T0u75BaqzlfaejMLdRK6n6WgthMNuvT0u5cK0G+WjxMV4dQ7dx/xNq+F5JdVWgYYATNAnvJJ5tG4qMV1pOKZ92SSyy9eAS6On6mJlcUBmczqskAEYI2eSi9TMFqmS66XCZqYoUoGsdkYbArER9kHRG0rCckhAvc6tttNb2X/1s4uYilfhwYdO4NThVnREpeUxnm7kPdOLS7h57iL6Xn0dN67fwBTP9z7wCPY//Dg1mm50n/uJ7Rnz7Oe+jOe++BW0d7S79TF2u8vTJcX/POR6PPHc8o4jIJQc1dc34nZvD27dvo3tu/YhEolgeXHRnhIJGdTpNGmtR+FqH+34GGCcaE2Dxa2piVFWCrhNML1Kk0UaTURvmre32ST0HLUfmWx1dbWojsbID5aLldZgKPBazFRghaaUVr5XESrSi5MoZFNoamnBwMgEvv/Ts/jhqzcwMrVi8z4d1Hq2dTTi8IEunDi4HVsaqlUxih9N0MKqLXy8ce4cbrz4M9y9cQOTc3NY1h7C4TCqqdGEKwvwUYN68PRpfPPbv48DBw+LG0pinTeict79KgDnQwWb8sp5rgBCR5Dqa4q25vnLr2ElqdWWHBLJHPVdaTamPpdAQK8zBII+CpKbnxFg8L9dk4DZpujZAsFGCwAdcovTMl9s5abuoluaI7NtHZkkOz+ZzvvN5mfGcs0Kk33MyDZ3xIP/DXDsKQYPS0TpCmx4UdqRBTPMRwHxSUtRgOLwmhb9WXmYhkTdPh/C82ScQkitqKn1COvmPQ6X0Fp089NX4p8CLNVfKXmA4uVm58xfZZBfgK/tHH748iVcG17C/iNH8ejJLnTVViHA63Yf4y6m0rh57SaB5jXcuHIZ4xyZ9z34CHaffAhTw7fRfeFF+660rf/g0drWaiaPyAYVktJRGcwtHV64R+UjtQ75BQSabznz+qu23+7e/Yd5DVhZWiSYsW14D9lugBLgwYztBUa9VxWJ1tpTptrqCNOIYH5hGRevXsfN3j4sLMWRTCRNs4lQ06mjGaVH4NrXWO2qlcxqwZXcGpbi2vlPb5pTvtJLmBodxc3hKZqdffYFTq0wb2uswZbmWnR1tePY4V04tLsD9dSsJCfSwROU68HhEWp/r6ObGs1ATw8mF1cQV30jDmgCyCFYUcATT30MX/+dv4c9e/Za/9KgKd6s80yH57/Hfb/oQzejPAHw/CaN/Gf71fC89w5NqbF++7YNu5lpObLXNR8swHHagjOlfEFN49rtvL90nT/ZtCltCZlbhb0tLpOKN6nv6pAQK3/+IzgREHhN9ytslSOHvR6hREt5CcB0owTIbhOoMExgY3MyDDMgIjKpW1Tq5U6Jh8XjOe9zwMRz9h8tnZc95Z5SKW2VoQqr+QziSxMU8hY0NO8t8URx3Sgpdv380ynR+ysk5aQ28Q6R1/ENtFkm1fTslR68eHkAjZ178NhD+7G/2Y8Qy6Y4mqdIUYO4easfPa+8glsXL2BoYgLbDh3DnocewezECPouv8oO7cNnP/9FfOG5L9t6F/sCgvJjvuu1lF98LiMv7F7Xu+a5W9rbkcum8dKLL1B2wti55wDWClkk4ismYxIAAY7eBvcXnBYic8VHbSEYitoXGGprIqhrqKcpV4U7g8N47cxFjE9Ms7yNaGpq5vUYGghs4YB2L2C++tGTYMLzBJtsOmdgU5lfxtjQAO5MLmG1MoDG6ija6msIsC3YvbcLRw7twp6OJvvKgyqvpYcLiyn0UTO79vJLBJqXMNjXh6lEAgkW2U+Aq66nRlXMIEpZ/9gnfwtf+53fwzZblMi6lXggbng8omc9vNx9P+lD12zWK0va8OvQSs0wR4sFXLp+3p4waZGUBEEdTltOuKglYaNwSOOxe5UOvV4/VJrs57bRlj7/ojmagMUV4Dh1Uv/MDOK52kONIhASEDjziGmaqSPXaTXK3jOVlIbCFE9akYGJ4gg7WEZdk4aj65qzkDkhV5PP1hn0uZeStmTv6EgDoiaWTS3QnFoi2BxGlOaUolodjezE8eEN9HMB7xt5HVfk+T1XQDJK4PjBK9eQ8tfj0YeO4WhnNWp8rCOvqx2kIfSPjuPmK69j8MzrGBi8i6auPdhD02lhaQ6D1GQrV7P4xGc+jy986atoZKfVExlbea2K8pBrhzItP+fhgt5Y//JwHRp8tFK9s3MbJsZHce7cGdQ0bsHWrl0GQMnEsvFZIJKnCbymRXiUP31rSt+fCkSC1HDClCMfNe4qe91AT6SWlpcxPzdjczgdNPk0odtYV2/vUqkIKrHyT3CAmSXY5NLOjPIVF7EyN26P/9uaWtDc2IAtBIZ9B3bjwO4t6KgL0xRS+auQJFCNTcygm9rg9ZdfRC95qH13ZrWXMk3EEIFG80qVNJtqoiF8+tnP4cvf+B20trY6wC7xwDv4z/nL+PSrovtizkaVdEAjvyYZtfWjTKkgO5wf13uuYnxyFAEykzFNcD1gsS7PAHVivXfkhFqhGv0ZR9FIplswD5lU2nBLE8M2V8MwKRNCGJs7sbIwgCBj361SuHJh53f56NqqM7kU33KkX2nw3MVxYKPtoQUqwkN910qfjAkwfeVtT7+YpuJpTkfXKXd2r5u/cdqN8ltZmGLx/GhqP2o7xVkmVj+XpdXOQFd3/+oERm3k2sm1l8jzi9f5XBbPv3oJveMpHDpyDA8faEObds0U//Qjv8fnF3H94hUMUPXv770Jf30z9p5+EulCDnevn8EqTebHnn7GOkhbW5vJgqtrqV7MzzqH8rXTt65vedk8Pz2uzXlU6+nO1q0YuHMLV65eRX1rBzq2dtlH7bRtBKWQzVSJLOPqG1OV1HCKmaytz/GFg/ZKggYQLfyMsWM3NjXavKDMJn2qtqWlGY0EDoGNrQWzEbACScrKXKKATEIP/Qlka4tIzU8gk/ehpXMXduwl+O7txM62GjRFfGb+58kD+974nbu48foZdL/ysr1QqSd3i5TXYphmXV01Ioy/lkuhjdrg57/0FR5fRUNDgwGNqJwXHoCbn+6vmj50sCmvpKu4+ezQeXWs2lTbqz0X2cg52r1uW0OLJyYJBCw2A3juxFpzOqwcG9cWA6pHCxwYqOj2KVaaVHrqFJQQsGPLfOKfdVfdq/RMK2FD2sblvKZFfrqueZR0VpOH0nrU4xmffgcSBDUhEQMtfysN86RGlUppenANYSZkc0LKQ/cyOjGtLB2F6doa/BS0Yi6NBQpjtHYb6pt3ky+Mq8hKnSfu3P6VqNz//tG9baVDg4JcgcGN3n68cGkAdW078NipvdjZ6OZpNJGpwWE5lUUv49wm0Ny+dAFJDiS7Hn4MiEYw0nsRqZkRHD91Cl//9t/Dtu3bSyOxAwv3jphrXTfcuDK8XUe595rnt/+8plRaWlrR1tqGG9cIkrd60dDSji0d23iZWkw6YWkUBDgaeKjZVErDSWsNF83ioB/a4M1GntWCvT4RDoZMC9d809bOTjQ3NzHMZzIg8198SrFtZwk06ZUMZYrazdoSViaHaUKFsfvESezd1Y72Wr8zm5j3Sq5o2kzv1Wu4QW3m9pnXMNTXj+mlZSS0wp59pLY2hmAV9cZCGnt278WXv/7b+MSnnrWV0uVAo/qIfo4vCi8L+1XQhw42bxQIJzxiikh+TRRXV9fi9kAPBkcGqOlwlKDgCgTEH4vJ+5WCklFaZmaxkWwOgRH0NMAi0lG4/GltjpTRPABHIrUpryk9PY2WOAtw7BYKeV5aCYVNu/ELt3L5VZpkbFjGl0kmYNCJm3Ohl+dKR3M5qkORJlIhs2pv/OoDahoNBXLScDQ/pMnmDAVKQOVnvqZqCWx46KmWPvCqd3O0AK2l4zjCUS3+UtoSIPqsI7o6OFr3vK/kCWo52RM9FkKfa/3Rq1cwlfbjlMynrhrUkCFWRhYsx7oMjk/j9vmL6H3tZUwvLmDbsdOo6ejA2MB1LAz3Yc/+ffj6d/4+Dhw8tA5i5Z3Cq5f+ex3kjdffSN79XhzPVae3RYAi+vWWeBvNjO6b13Hj+lX7FlRr5w5q0lVYpbYm0jYNGU0UE0j0aRZ94kUTyGscDDSaqUMXqBG5dikiSM2nc9tO+yqBtgrVoGPyyCJkyIvZRB6pOMFmTd+aImhMD6GCmvzeI4fRRuBQuyc5KE7NLtiLlDdeO4NeajN3r13F2NQk5nM0m0I05+prbe6oopCiXK3i5MlT+OZv/z2cfuwJ+AP6eiUHVdZVdX9jX3O0fn5P+K+C7hvNxoGMyc8bBI1Nh5pYLdVQH653X0Y8sUi11O2lqriMxXhkIu81v1whAklJe+nYm+OlDNTgavg8ASRFjUOgEOSNamB6nVmleEqD54rnvpLJE5anQNDQd8RZTAoLmcgw05x0nYdKrTxlAbh5HwceGtUEDDkCiwBMYCMtR0AzPp8xAItQwG3dTyk9AVMVf3pysTirFaTVaOo4zPrIpFRBrZTGA/tIXskvV2V17nsnq3oZiRee8EqYr97oxes3x9C+cz9OH9+OLTSfKrUxvLLn4DC7kkRfdy96X30Fg/230bBtB1r3HsLs9Aim+q9hS2sLvvG7v48HH3rEZUBS2kpAecsv1zDCwsvctyGvjIq5zg2FWUJO1lT+bV070EHgG+i7hetXrtCKrkBTW7u9lqD35bRDZEWVjxpOEVkDHbYrNZ0C/fomtr6smckkkUpnkMtmaM6EsXXHfoLNFoQoe2prW7/FbNOUp5mVPJLLaZpQeZrWy0hNjyLDArYQoGRiT05O4m7vbdw+ew79r7+Ou1cu2msHs4kUEjKvYzHUNOiVCAJKNmFvaz/98U/j69/6XRw4pEfbolL7lPjk+Pnz7gdF98WcjUfllZdfh0bOAFXVLVRvl1dW0HPrGkcRagd6hYGNo8lXCZFO1thJ1U/Vok4o5XWo7gYgu2iHltLLvNJ3jhMEnAKBQXMsfuuozqwSQHjaiU41hyMTqkBXsbSgSogjwHHbTLBxTZDJWOZpk895aUMEMpbDHnurXAy3TwJrXQc7ZJom3fh8FlML2o9nDVECjuZ2NBp6a3C0f7HWcCSX5tHQdhDVjZ1mEqogDsRYBuOZSqYLIs9978SkLX3xolzzlF8bR/3otStYyIZw+qEjONAehn2KT3Vg2VLk8eDoFHrPn0f/pfN6hoz2wyeQzKYw1HMBIQLuF776TXzsk88an5SuSGmvg4UKQPLcd0tefNNmeMj10vfS9uqxnabbnj27MTk+ikvnzmBpeRHRmnrb3S/CAS4SDtm7UEojR4AR8OSkYfDQbn2pjCaXU8jS/KqtqcO2vUfQ3N7CAYR1UYYqCoVDe9vMrGSp2RBsVtMIgmCzMIGpuWV7gDF3ZxD9585i4PxZDF+7grHBQcZfxIqeUBJUInU1TD9MjXwVRfKwtXULvvClr+HLX/sG2raUXqhUVqU6e+Sdl9e7/Pqvmu4bsFmvtBhSco0Z/MmVPdzWvIVCO4iB4dsUSm2A7rfOqZ91TXU03mePvNm6EnSPwfaj617aZFxGVWfW6wzaOlSfW5WZIy0loOtKVQqJzCGCi2EPz4sKVOfXj2FSWlRep0zJJ3DguYrCQyaXmWDM10YYxtfcjw5pN5r70cIsfR4mmS5iMZm3REMcSTUaKjuZU/qmeCa3hpXFKVUMrV0P2Hsytopa6TJfR86vupI17tJ7JPHfS9e5jqzNeHRzBH7txjC27jmIR49uRZP78oldU8ecW06hn3F6zrIDz0yjcdcBoLYBI31XkFuexlMf/ySe+/LXEYtVW0dRx7e0S3m4ungd441leLdkWqfS8lxL6+fTb29vx+HDR2gi5XHj6iWMDA3aI3A/TRytr4lqcV80StAJ2CNoNq9dl6aj9szStMoRfBubtmDX8ZNo2lKPMAXBZE15Ui716HtmKUOwSaCykCAwx5FenkX/zT4M3ryFMZpzY3f6MDkzgdlUwtbNFAky2haipi5ib2zTLreFqkePHsdXv/nbeIY8jBEUbZ5L9SIPmaHV0VwdqrudlvPzg6P7BmzWKy+GlDFF5IQdtt9GXW09evtuYHpu0iZPtfcIYxgvNdvPPk2Pu3fjUAwFMx4bwSZu6XqjneXDvxSFQI8WhSyaOxEgaG5IqrJ7C9ed8xLzEdzQR2HTZKE6lx6J25MsRtRjbYGUTKR4pmAaigDEQInXdLfSV1xNoCo/7Y0iTUsbHkmD0miop1TapydDDSlHHNJmUemVGdQ0daG2dbfVX3mqPkyMdXG8UIXeqOX88mT8MQ46v/GBP+WpeYqfvnoB8zk/Hjx1BPtaIwgygn66LUkgHZmYw62r1zHSewO+SAzR9i7MzoxhfqQHBw8csuXzWzu3rU9kem2idrd2ouudu7L8EuTdV3K9dLw07eEB/QK7xsZGPPDgA2hqaiTYDODO7VuY1Qfc9IUGxtEqZO2zZO/s0bxXk0tG2NzWftpsfctWakkPnCLo1CDEaxo4KK1m+CaIUDOL1IKW46jKLSJSmaF/Dt2Xb2JkeBxLiTjiBLtMgNo7zaVIfR1qaqMIh1hmfeB+rYCO9g586tPP4stf/5Y9+dPLyuvTD+SZaTfyWy0d2TUenv+DpvtOs3krV6sepc20t3UgHIyg/2435hbm7GmAVG/1K31HymLzHp1TLujXBf2VXKqi9pE7TdoJmSx9D6Q4MlFiktRyZFYxitnrulUajBIUgMitMu3GbrF5mUKBeRKQnBbCKJqvoMu+RvVaq5gpcEwoTIA0kFFcntuIp3R5aEsMTSZKE1J8AY5MMYGMnmbZvi9rlciuLLA8BTRvP4lQtI6FcILFf0zHueKb6u/x773QRmd32ehQPnJHRkfw6sXbaGjfgQeP7UBzkOF2F10ydSGVxcDgMPquXEV8fg41be0osGNMD91EdciPL37lWzh1+lHLQ+RA09G9MvB+1EV0b3oCRoG/THIjslOPtaXh7N+/n3KwhqmJcYyPjWFhjqCTSNIMLpg5rY/cFajNaM4mT9d2KShmsGPvIew88SDqa0JmUup5lNpaescCB5/Z+SQSywvw5ZYQq0pjSe+I3R7AEmWvKkrAro4iVhujtke/djHMpyhMOTQ2NOL0I4/ji1/+Jp75xKcIZk1v4F153eS7t64fJt1XczaiUnOLOyWPxzh2QmkcBJddXXvsqVTvwE0ss+PpywS2xQSlxO6n1qG7DXrsXoaW0lCy0oAU394WV7hGNcYX4EjW9S6MRp8MD92jN4CleWgE08hmyRFIrFvoRh60cAgABCGFM54pOMIAdkqVO5XlQQCRFhRiRnrCpOvWgy2eRlW6q8yP5cvznqz2K9B2Kwx3c0iKT4El8qWWZxCtbUPD1oOorNL3o3VRtXadVfXUuXN/efIEWaS0NgSbPGOBL1y9gb6JFRw4ehgHtzUgwsKqz4rHxF9MLiyjj51o4s4dK3uoqRlLNAVT82N45LHH8ZnnvmzvG9mrIGoLHur84rtH73dH2QBP5fTGvOzNe5JnznVs3UqN7RR279xhJvbi3BxmCQyLy4v2wbl0Js12ytjanHxOH6FbQjTox8ETj6LryBE0RasQVfKluukLZ/OJAmZmltiGswjkGb8ijenpadwen8MaNaZodRihIGUTBVv2oCdiDQ1NeIig/KWvfB3Pfubz2LFzl21BUQ40Io9Xcr06mqswu/Lh0X0HNh5D3sCokusmQtdscd+urn2mOvYP3cLC8jx8/ioCB1VJMZ+HmOsgh0zXuQsmcRQj0GiCWJqSgEakjbNcd3V3sZtDT7cTHGkEEBywOTrxH9OQtu+AwXUsy4yJC6T0GHt95bB+Fu6i5AleK6mizQ35WR97/K3yaXJZmXOkFGBJ+KX9SLsS4KkwViqpV5ZXBTKpOAe6DFr3nEK4usnASHNCTubEL41yiqza/PIkvntt4Jk0yktgrU27Xzl7DcmqCB584CC21xD0VQ/lyfzTLO/o+DwG+wao1UwjoA2neGlq+Baa66rxxa9+C7v0ro74qJ/yYZltpbbXLgx7v8lLc93lT20lV/z1ws0UIYXDEezavYem1YPYtWsHYuGQTYprD2GtNs7TtNEG4QVqO5lMAlu2bMHR05/E9n270BKm7LA+IlWJCipmltOYnZ5HemkawcIyNaE0xqenMEywEWitFjIGMMGAH+3tW/Hoo487kPns57F7916EyEfPXLeyvg2PdN3rPx823XdgIypnjOf3hF0kk0qPv/ftOmTrcAaG9BLcHDtAlW3nKIkxBisy/9Frh424Eiqmo0+l2kQxr+sjaNJwTL4V191mN0hjWeI/zZnoaZVS97QQJWr56AaFEZxyvCAzStqNsEHrSzQno8/N6GmUJpw1h6ND7125FzMZX2VT3jzsZUB6zManq0fvMq144sJpSmk1siYVYw0daOg8ZJPlKrnuF89cVTwe8L+7oLNfiDxBlSsyP38CtonxMbx+rR+NW3fi1MHtqLNPCShvxmFWi+k8hkZnMXl3AIV03Pb1TazMIz47YqbTxz/9GZv7UEmtzKZVyE9QK4V5+f+qyPIQwDlOqfjGKtG6vLFN5dc3ofQi48OPnMbRw4exfVsnGmrrVFt7+TSTyqDSX8Cu/Udw5KFPYtu2VjT62V5ai0GGiGdxDh5j83HMTU4htzyB4Goca7kE7g6PYmaWJhW1vM72Dhw7cRIfp5n0eWp+erdJW2voMbxovS1K5bOSi3/muHo4fm747we6L8HGEzAdG0IuxqqHO8ZpGbsAZ//uw6iJ1WFo5A5m5ibZsDSP/Ox4jKaOanMojK/DgYLuZtpEFh020SuUUX4CH/r1JGn9HnMrzKxaJuAoIES1xbZKoABZ+QwEGI/F0zyLwELBWpuTJqAoHUGBwENzQAKiHIe4RLqIJapPcR7SFkJ+lp3pWxrUtyuKjgcSdlvro7QIVqZ9sZy5ZIKgk0fz7gcQrpHtrnx5j35kl3UhT9A895ek8rawxJl6d3cvuodnceDgQZpQTdT+WDFFYRmKVRWYiWcxPDaD5ckRlrgIfzhIoBnmAFGFjz/7hY1d4lRmtYcxm/+YvJffevl/RWR5lPHJuS5fecVPT6M2DYyBMvu2bttmms6jBM3jx49ht8CAGndVqAI7D53GwZOPorMlgmrVxVVIy2cIwDmMTc5jYXIcBe05vZZGIrmCxXgaew4exbOf+4KZSR/7+Cdw+Nhxe6ytxXnK362odmX1Dq/MOsT68vD7je5rzcYE8Q1ULoCuE2r3tb0796OlodX2v5mYHrOY9o1iybHF5CG/OgEPN7/BAKZj2znYCCG/Dmk9vEM36WYeAhbdocVYKwQcLY/RepwANQztP8NTAo0DEWkrmmRm0UyjkUIikJBpoHexlLSP1zjgWXnSBJb5ZN5WlGo3g4ivkp22wiaW3UftVBQBGwGH182qIpjZm+QsV2ZpHpHaNjR2SbuR3qVqucIbuHrn4qWF/2Kke8Vzb5Q3/rMeSu/8lWuYjBdw8tghdDVFzKxUNrqcY/TJxQwmJmeQWZlFkEC6VkjZRlFde/bjaY7WelTrysW6eAz3/Pr7Jcr7i5LlwT9Prjy33O/F0yGZ80BHZng0FrVvWGkyORqNGGi07X0Q+48cwpZYBQcm1Ur3Oi13cjGJ0dFxLEwMYi0xS802a5+cbu7YgS/QrDxx/CSaW1rNVJIsakGoy0+alltg8XOki2VlLS/3/UROgu5T8hq4nHHylwuEngQF/UF86pnP45/8w/8JjzzwJLKZPNV1jfrq/OygOTdfokfIdmSLyKb0FQat+nSbo2s7SKIM/H6fraEIRQIIR/1sdB98QYb5qzhyVdnoNEGzqi9BdZgaSSqXpxq8ioI9mmYeWqyXZTiRIVtgXgQTzbvEWSZNENtufMqKZdfOJNU04WqULu8fmknhzlTKtJ4Ir9t8DusqsJO5Je1IOwPao3DmSahFmoI68OqfY37gaolB+mfira5r9+tcPHPkue+OPF7LtTR0zvBiNovZhWX4Q2HUVwdZPqVMoOBFzRUJcFMpqmdEzWA4hHAkRD7FOQhUYM/e/Whlh7I0mZbNLfEwrcxDyA+YyuVK5bC6OmYaeXXXk89y80pfcBX5OOgtZVLIV0TR2LKVPPHZoEGYEPctXe07PL+QwMrctL14WUwn7EN1iytJmlw7sK2j0wbJVQptQa9CMD9pVcqP/y0fpeO56/5SuVU+Oy+F3290X4ONyATSYyZpg8kKcw2/StvC5/PjsYeewT/9R/9XfPZjX2Rn9mGZHTHPDm/zHuz0es1A7ynlBQyZVWQIFulk1gCnQJCweRGm6SPgBAk4EXYQHcFwAMGQ33YDDBEYtCfOMlFngCDVl1rFLIFLgJUnAGhuJ6s5niwP5mFAxrwVpr1nE2lnCrnd+qQ1VSBKkGtSflVVmF7Jom86iSS1ncgqy6JXEBhXWpOfcdWp9RpAkYKbZV6FyiAm+6/ixt/+e8Snh2w0tFXP0rTIJ3JJXCOvjH2kX0wQ7+W7rU3iueYo5pfiiEb8qI9UmfUjTU7pa2NvgaFWRq+RV0G9oEieYjWD+oZa29pBWoFrW9dHlI0O+X/BIr5vtFFXJ2/31p3/7PDOy4+7w8O4eP02qmKtaN/ajpqABogSgDINPTxY5OCmr0MsTo0iRTeXSWNubpGAVIWW9q2mMQrAmIkDGKbLf+YXYJWXxa6VzhWndOLc+5Tue7DxGOsBjnNduBpA/+XXuhOBz+H9x/F/+If/I779lb+P+ppGrCxrCXjWgMRpN26HtJwOahoZduokhSBNWzpPjURrJ5g6zTOf7X0biQao7gepImtLgYDtCKg5hxDNHb2cN8mOf4uayFCaQJKjGkVNS+thBDIZhuV5rchOVzQA4sjGvJZT2l6UQEOhdnsY0ySjhlyrvVEqfVSrC7gzmyIw5Qg4BBmCjTbekvDahDJd++aUDmo3+UIl+l7/MXp/8ifIJpahjeFldglk3doRxym5G8e7JS+uOo7So4/8TieTrEcakRA1Pp+bANV18U4dLEOQz5EPlZX+0urbSpskb2hoQUOjWxviuoZrP3dfyf+LFO9XQqWSeeUpkcmc1dGR/DbYsR0uXLqG2eUiug6eQPuWemqs7Fy81ZPPNAezubklzE2MYHFizNopmUpinhp4fUMztm7d5kCllKYDmI18lIaXf3k5PPfXge57sPHojYwWkxXmXHlsRFcHY8Nva9+Bf/jt/4Fm1T/DoT3HTGvR5zc08VIwk0qajlOBcwSILNX9tF75J/AIILRqV3MseroVCPoJODp8iMT8CHIkD9C0EuiEtDsgQWeFed/hPb3UZGaoVa9JE+G5AC1FgNH7LtKq9KXONP1zzGeJZpWeTFUZkLh5IS36i1ITqGe+KsfAfAor6TxCBBq9XyWxt021CCDSiLSjQCXTraIZmUkmcP3v/hB3LzzPdPMGOMY3u8sTSK/jeO67Ie9+dRvHF6ntqVTKtJdIKGTL5p3Q6zrxlm5OCx3pJ4wSZPzkpVZla6OpJkRr660dlbTXwTbaljf9IsX7FZKVkeTq9kbXK6/K33v7Dq7c6Ed9Wxf27tuDljC1OcqiMwudxrdIjXVifBwzQwOIT42jkE0TrMlDaqid23eiocltjOalXcrI8vAOL0/PFXnurwP92oCN6A0MlldtIr+Ybw3rrmvWvq6mHl969pv43333/4I9Ow/RjMnaxKo0ijWOukXTcnQIDArs3AQczeGkCDrUeGR2aQTXjoB6GqAX8PSlwwhNKmk4Ic3jEGw0YuspEqUOswSOPoLZILWYhDQkHgK5NNPPMp8C89fz8CzDZpMFzBPkFObAhhqMzCvWRZ+eqZfmxHRGljJYYlxdC7COflbAgIbx9X1q+3ID3WAogqXJIXT/3X/D3OAt44XNfzA9exvcXGNYyX235O6R6/FY98fj+t6SwMZ9i911AMZkVvpCAfGdnYxAQk1NFwqFvFiE6voGhCPuW9sqhtdm7n7nv5+onFflZfT8ejn4xdcuYTnrx65Dx7C1rQbVsnXL+Jxk22uP5bGBAcwODiCzvGAvcS4nUqiJVWPv3oO2Zkx0b/peGuV5e+6vG/1agc0GkfHWARzjrT14Kr/96BYK7KA+Px499SSO7DvBTl9JMybPuJq3WbO5m6LmPHjom89Oy5FmQ7BJZe27PnoErfS0UlObqfup5WjXtTCPYEjajZvHCfio5VBYAjzSzHuEINNHDWeCaWsOZ5Xak0w3AxxpODS90nSnCTY238Oy6AmVT3M0PFQZfXqmVuYJAWd6JYdEPIfKLLUfXq/i/QIfTRjbfsnMT7v6aaJ88uoZ3Hnx+zZxrOZllyY/yCDxpgQ+65OwJUF+ZyoJN9Nw80BAIpNCRSFLYGQpbP7F8V5mm4y7IsupuQgBjpmwVCkryMNYdYw8085ArgPpkHbg2nGjQ33Y5HVy0b1ls2v063fuwnX0DI6hbed+7NmzA20xPU30gJRaNNtgbimB0bt3MHnnFgeEUWqEWaxkMkjy6Nq1Fzv3us8tSyt/K17cL3x5L/RrCjYSeNcYXqN4fl5aP1fjqQPWVNfynkp7ylPIC4goMKVJVJky9iSKHULfqhLgaCNqfZY1R3CSBsRkTAjcJ1wrqekQgDRh7Nehrzrwml/zPNJy9G3yKixReAaZ7kChAtPMLyktSnM3AjnZF8w3RyCaoUY1TsDRZKqfhWfSCLBcskE01lWzIwtcFqjdxAlOlbwnyPLo0blpRDaJzDrz/mBVGKvJJAZe/j5m+2+IEcYt44u55JHxqRReuv6LkKXFQ3vxrq3mbK7JDLxK8lN8V9swffF0TYBDcNd2DHmGVQX0VCpiPPSeoKy3G6nc/2GSyuCVpdwV2QQu/Xoq1dt3By+dv4ZAbRsOHD2ErpYwBwheV3swbpFxlilLQ0PDGOy5gbmhO8iuLNtC0TjbKRoO49jJB1FTU2fpvhkvvHw/CvRrCjaO3tAwcj2/wnXQr4V60XAEQW3HR9KcTSazRkDRIjl1EAZSPiRDOpfmoYnibNpNIGujK9v8yiXH3k1Bowajz6oGCC4CG9NuOGrrNQgBjeZyAtRK8hU+TJPFdzi6DxDkJpj2MtMrZouoYmf1EVSKLM88gWQsUUCC4QFmFSAQ2XyMNBiOklF1aKaxzPIsEXD0mFyTxkEe+hC+mVJ2EKyqQlga6MXg639H7WaRZS7Np9hoS+HloVOReyz+TqQ4ZUeJv5lcjiZglgDp1iAVxWtdZ530yWHFKbL8mqTW4sbCqioRJH/clwbWC3GfkfGoVEfPvTdMQKP1Qz/46etYzFZg35EHsLerFS0R6XKML8hlPGmyo+OTuNPdjclbvViZHLe5rCyFTg809uzZg0NHj9tAprTv1Wq8vD8q9GsLNhJtNch646hh6OeJXdOXEtXsWqeg7wRFY2FUUm3Q/jW21D+l7zJpvQ07L5HGupKNxlT5CQja+T6X4SFw0ByPOhF/tu6BHVg7t+l9LK3LkYkVIJgJfBRe6aP2Q21HgCMAyrIss9RQBmnqCHjGCRAr0nIojD7616jtzDG/oWQOSwIi9l6twfGxPBUCHdZJL28KLpO8vpTUVyIYj/cKnPw8dI+ebPl8Qb1QhbHXf4KF/p4Sf1Q3Ma3EKzOjxB3ROwmzkGHDZQouHfq1wTnR2fz25EseXrN2oV+8LLIOOYJgrqjvCMisYkEUUZM7RnaT877B/8GTK77jkZ2X3PIwAUIiEccPXziD22ML2LbnCA7s24FtdVWICNDVZkyJ4wVm55cx0HsLw9RqFkcGkU4nkSHYZqgR1lMmTz38GBqbWizt8jw8v/GRx0eFfq01G4+sccx1AiNJl1/NpEaTGaXd1nwEm0CA4KANqP1Ok0murCK+pAlimgW8WSaAVu7qKZXmeAQ8miyW5qPrtsrYtBuaVAQa970qpql0BTo6J8hU6GA8fXBeE75+glGR8RYCAdz1B3Cb4DNK4FlhwgKJILWeODWqQZpVs/QLPLQvjJ5WVbKz+tlx9UKf1tpos/YVml5xajocKC1MWo4+K6N1OUFfFMt9tzF+7kXk2DHUQUzjYHr2uVrjjBhUch3X3oK86861t7MJfJFoCPlM2p5KacdCJm/EXAxobJMynmnOJk8NJ0/NRp8q0dzNGgstqFPbiKfr4Md6rM8nfcBknbvkeuTK58qm10nsFZFsBj965SIu3RpBW+duHDp0ALvaQqizJeEqP1nNf3OJDPrv3MXAtauY7euljM0jzTbPUW60BODosWM4eeqR9aeoHrBYOUp+HR8l+kiAjcjTathC5rc3r018KlAdrbGX6PSY2h+sRCjCDhmqMtNK4CGgEeDEl/U0Ku/mVdgh9JpBgVqNTeoKbSh0vMHAxlReai3ed8Z9Ahse9mVOnuvhgt4kF4ul3bi9ajSnQ82KcRZDfgzR7fP5MUKBS7K8PuYj022CGs40tROt1wkziQCBxEcNx89OG9KherE4eowu00uL+7Qy2Z9nXJZZO/yvEggmLr6KlanRkhA708aK5Lq60z5UJ6bn3Dcjd91zpcGog1THYshmklhZXjEzU6xXHDUDq2p19vaH0WhfWPWxnD5b06T5MNeZNswGD2hc5/7gyOXtOriXt+d3ZdT8k9OQ1/J5vHD2Cl481426+nYcpAm0d3sdWsKSN92jilfYeqtB7eFz6SImrt/A0uQkEpKlUIQ8KaK9pQmPP/kxNLe0qAS8783L4bkfFfrIgI3NP7Ch1HLWieRnj5RjYMPOwYHFNBpN8OqRtZk+BB5pOpoollkVXyggsazFfuz41DJkrhRo7qivOeFjGgIcHrLdNdmpJebSZkzLIaC4QyMYgUbFUGdlxxKzNeJrgyyZXAKdhbAfA+EAugN+DHLUS7D8Wnsxww4p02qVAGQTwkxDj71ZUgRYQe15o9cZtGBQC8ZSBEW9rCmgFMjq+1Kzt25i6voV1q1owKjCewCgYrm3nUVyne/nyQt/YyeI1dRQ68vYBma5ghZUiunsMGIU/wSs+vIoM+GfdmYJsF5VWEmkkNGTrBIvHQha0czdyO+DIVeOUt1UCJL87o1qaTRkvkCR5Tx7uRs/eeUqwuE67Dt6DAf2tGFrDQct1t3qTSTX+3OjE1O4fekShq9cwtz4CJbZltlwlGa8D1HK3oMPncaxE6csH29iWMe99GZhv8700QEbNZg6hDqQ55cAkCKRGGKRKLQcRm9VqxOYKUQtw6e5FWk7YfeUSU9RMuk1LC/ksDSnhX7ScmQOODNLaUur8eleJqa09P1wn8CH1wQwAhQDGnZwExjdqE7lCSWDtE0kscm9oEjQW4z4cZfA0yuNhxcmWO7hfAGT1HCKBJMQyxCkSaJfRYF58FwaT0DJadQkKOndGz3Vymj7isoQ4lNz6Pnr72HmTi/LrI6veqhzu87ljlLxSryS761IdbFOSYoRwLUp+/z0JJLZNOvmzAFd18roMLPT+iOZHnp1ZK2CYLPmx1I8Te0mbvG8w3ik9lr3f3DklaF0snFuLktl7bmGCzdu4QcvXmbdIth95AT27e/ErkaCR1UpHotdIF8nxPOLl9B//hwmh+5iMZ1EmqZzZUSzcDns2bMLT3/i0/YCpwEZ6d46f9A8+KDoIwM2Ehc2+zrI6KcxXq7fF0CAhwk+QcYmds3coTlFoPGHCBYyq3hI09HcToGC4PdXo7Wxi+ch5KhCa72IBEuS5Xb6k8uDYFOpR97s0E7r4bm5FBr+yRxyppk6IwWsBDySKa1G0ZvB+txHBUe+FYLOUDSA25EgeghClytW0VMsYJlAEqS5VC1ziWWQmainWe71BYZR+fK+G17IFpgFNStqFJNnXkT33/7/EE8usv5V7i1yyTL/WacqgbPVi7yyApvryOuIchXPO2qoKerTsvOz07ZNJrO2eRuZpUosQjCOkq9V5Av/MUXt3BfA7Eoe84tLlsa9VLr1V07ldfIOx4ONOnoajT6PfKXnDn7wwmW2oR9dh49j/6Gd2NccRHXlqvFbZK+uzC6g++JF3D5zBmP9fVbPBPnpq45yMCqiuaEOz3ziWezeu7+UF1kjc7NUBlG5/6NGHx3Nxg4nwHJttav8bDdtTK0XNc2EIABoo3Q7Sk+TNM8SCGmyV64mfGUSrWJX1zY8ffpTaG3YZm+SazWwnrDIZLDOolHPzAUKpcBC4GIFcPlzXGd2AiA/wYFGDzUTdUgzdwggMm+0s592eRMAmXmkFmF6cWo44wKcaBCvsEwvVBF0Vgu8dxV1jF7N1KVNaQ5G4OOngAaZnzQdrbuRuRWJUsgTGdz5iz9G98t/yXE1x/KoDNLS1P0l6KVO5grOgzeXzkTlndDrBHK1uFFfIphfXMTc1Azy1LK0lkb8YRcyjS1G4NbCRzKzBK5+LKaAsck5FHLpUpqus7n5GvJNbfQrJmu7kusd5XV0k8FsN0LopRv9+P7PLiOXqcD2g0eo1ezGwS1h1JPpVlUmpUn3qcUVdF+9hltnzmKktwfzC/OIs60qqFX7KVuxAPD4E0/isSc/ZquFXX6u+22UY8P/UaSPDNiIKK7WV9SQXn/R3E1trA611Q080SoICgBrrUPzLXqqpHd7NIdjk8YEHIVTP7DvJT/10NPYv/No6bWGHAFCAqlsTDIsfQGY02aEPxQWnZcER6uTk8kEkum0PeEq0gSidFKgKcpScpiYS48AoPUplGA9iRJosBjIEhCnKayXaJf8LU29H/PCXaZblQNqc9QgGM8+gMby6P0q3af5HC0MpCWDYKwGxbsT6P2jf4tbN3+CAkdjBzLqUGKS19FcWVQYc8VI/bdrG51Rh0Z91bNzWyeWl5cwcvcO8pmce7StFAkYQaJgbYRmRiRATZImhNYmsS7ZtQDujs1hZmaW8UpmJvMqz8flXyrP+0xWs1Ieb5W+Pb0r5HDmWg++T9OJViI69x7G3sN7cKwjgkYyef1egtLsShy3rl4h0JzBcE83ZmansKStJ2qqEa4NUwPN4sjhI/j0s19AXe3GAj5XXycnzv/RBRoRufrRITZVaQT1GkxCsYrqSA21kzZqAn57usRQxuEhbYQ92j3Kpjml+RtpOEF2YGo3DfVNttfxiQMPIeSvQSqVsfs1hyNgcLkoLQko89caG6UlsBFS0NXWFBHa5yrXcjyOhaUFLCwsYWlpGSvLcZo32jBbT8AIgzKF7EdzhxqRj4Ks9TVB+jXJOsHyvUzT5M8jq3g5vIZZ5hvMVyDGQ1qNdgJU3fXelNbo2Nob1iPkDyNz9iau/tn/G73jr2NV5eNPGhWhw4BDncfYZgAgvnk83CDFUUd0cSuxY8cO8/ff7sby3Ixpa3oMzj+bG6unZlNfrTflwzRZw/bN6yp/AIPTCdy+M8IElbdStozlMdd1POXhwuT/Zan8XkuzdF6edrlf9dPWDy+cv46/efEK61SJbfsOYu/RPTjeGUVzkPUjWCgVzefMLiVw48o19Lx+BnevX8X41ASWcpSxSBjRxhpUEmi0zednnvsqduzabUBzb5k81/F949pHje7Lnfp+WWJTmfnyBlLbUShGxgdwtfsCMtmMzeHY4jJGtb2HDRwo5HSr2KFzHNVikWp84vHP4IEjD1PzCaCn/zpGJ+/aKwqVHKEV35In8NhcDjUJm0iWtmKPeteQzmSwa9tefOaZL+LwgeNoqGtEXXUdwpqs1kpallVPupL6EFkiYZ8BUfkEPrmCXtIk+hDcVAdlJ+BhxlhkBx2jlrMQZRr0hzNFRLIypQgdjGLiqlFSP2khelKWXEN8eRpzzUmEOtrRGNxigKhH2VaTEt/0vxSy3gnv7fwidUqB4ZmzZzE3t4Cd7Eh1TfUI60P3DFcq4lGqUIHFuHvfbDWfJo/ymF8RuGaxq7PZPnxvI73y5N+9fa28DL8s/dy992SiuilEk/oJDgg/ee0Sfny2hyAdw7Y9B7DrwC4CTQRNBBoznVhQmU7zHCxu0nTqOfM67hBwRsaGsZjNohiJINZSD18xi7pwCM999et46mOfNDkTmeZUojfWj1x4D/W83+kjBTYScJko7MUmTxtqOjAzN4srBJuV1DxCgZCBgpFrY4unJzYys7ICie378IVPfR1bmjvgIzil0nH09F0hiBRoZmnJvcwJAkx+1R4/C2gsewkie7xWHSeScRzdfwq/95V/hI8/+hmcPPwQTp94Eg+feAwnj5zGsUOncGDvEWxt6yIQNaMmWotwIMZy+E1L0AirXfy170lau8DlMqggOMlMKtIsWYz5sdgaQqqmyjQjX3oV4cKqLf5T+dQvrF9J29LEcmIVyUgCC40JAm4NNY/20vyBELLEDP7pHvUHx0PHP3VIr5N4fu3Ad+tmN65dv47GlmZs7Wy3/Xn1QipvNO1GnTKeLWIlQQCVPVKkOZlfw9xyGjUEzB3btlCr1OYaHphZQdbzEq2XQX7zvT25crtyGh8UQLJ0Sufl9RLJnF5cWMbfvngOP7vQSwuoAbv3H8HOvTtwZCuBJuRkykpA/s8vraDn6nUCzRncuXoVQ2MjmJcpGQojRtClDo0Ioz77uefw2ee+jBDDS1lZ3bwyeOXw3I8yfaTAZqO5vM7GHwFBjVtg573WexmTM0O2RYS9gKmnQ4pNcJIAaeTRRlsCk48/9iw++cTnqcm4Lx9GwjH0DfVicnbURkABmYGNnjIV3JcSHLlSCIRSBIn9O4/hsQeeoa3eYCuZt7RsRVfnLhzYfRgnCDanjj+G0yefxKMPPEUQesKOB48+gkP7jmE3taKtHTvQ3LgF0WDE9sdJplKWbjaVRgUBJlBHIe6qw0p7DPN+sPwFBKnGh+39KeOErWhd8xNMUwRKnx+JrQVMr02iKudHY91WA1OBrORd9XIdsMTDUg/xOoPXSeSKr/Pz89RuzkAfaNO3shsaqN0EadTxmma+/Mw3S188USRg6oleGr61PFa0xcbyCtobI2ht1l4uG/l4ndHLw8vz3XbHUlHXy2n3lvwipSkyrY7hAprxiWn8zc/O4rVrd9DQ2IH9hw5j94HtONIeoRa4AWD6N7u0hJ4rDmj6rl3B4MgwFtIZFIMhVDc1IFy5St6m7SNyX/3md1BXX2/am/JVfqLyMnlhH3W678HGawxPULyGKT9fj2MdxAmGU1ll1rhr1bFqTE6P42bfdaRyKVPxBTjr5oOls2pvfe/bdQTf+OzvYXv7LjO3JOYhdnbNt3QPXKV2kzdTQfmaUmCuzKhVM5+Ulh4/63H5iUMP49TRJ6DvRGcogAI9K7vyKwFhKBhGPU2s9rZO7Ny+Bwep7Tx47BE8LBA69QweefBJnDr2KA7vP2FxIpEapk1tYWFR37dFdTiCuu11wM5azDUGMB2gOSA+CHCodQV4aAGg3pmqLAC+nY1INuUwtXCHZahCQ00nQTXk6sFD5b+XHH/cNR3qPOqkkUgYF89fsBWzrVu2oG1LG4E5bC+oCrh8lawjTStt7B4n2OkVkMpCispnAZOLKZotSexsb0R1jcwp5a/c3tjWjujXoGCXVAbFddc3/Cqf2sO7bpeNvLJ7dRRp0BD1DwzjL370Kq7cmUAbwf3AYb3vtBUH7TUERijdK+V1cn6BQHMF3a+fQf+1y7g7Ooz5dBZroQhqG+sR8TH9TBKnn3gC3/jd76KtbQvlYuOrCB55ZSl3P+p034FNeQOIyhvj3vDya28W3yOda2+bhoYGLMwuYGR4FNkCTRLF0W0UToFHlp0gQqH53NNfw8ce+QyBwAGKAEcfxtOk7fXbF7C4PGvmh8g6CIVf2euJld7Itk/kZnOW5qMPfgzHDz5sj8DdUwjPFDGHHk0YltbgMC3lZQDJVFXmKNVvzfV0tnOU3X+cmtCj1IQew+E9x03D6Ru8jVQyy9HUjzZqCc07G5DpILAKdGr9WAlqfQszY5n04qbew8LWGvj3NiK3GsfUzB3bT6e+Wp81jlp9ReX88/y65mkFIvlra2rtE7wXL5xnQAVaWltRTVMqzHJLI1TW+nws1Sckcms0RwumPVYWU/bYf3Q6gQy1tV1bG+1RvTeB6mkB8ktL8gBF63g8v1xrwnW/4qusqoNrE4/K6yASUGYyWVy+3ou/+snrGJpOorNrHw4eOUStsg17moOICTgYXcsF9CLu+NQMbl68hN4zZ9FH02lwfBTz+jYyNZraZpafwFRMLuPYqQfwrd/7A+zo2mlAIyqvj/xWr1KZPPejTvelZlPeCF6jeEIi/73n9/rleuT51ZE1L9LZ2oWRu+O4M9CHCh9H/AABhf1P2kois4K9O47i67/FEal1K9MSOLg0JSD6SNjo+CD6BrrJOQGUXnNQ3gQJypSZVAIfppdKJ2k6NdEc+yz27TxkT34ES/pqpzqMmWI8+N/SZkZlZZeQay0MgYdhniuSWSctaO/uA9jWvhNXb1KNH75r8yB6RyoWC7COMdQ2RbDaGEa8NYqFrTEsbY0i3RJGriWC4o5q+LZWW31yuQTG5/up7aVRH+0g2NaoKGVl2aB1Xpaumcuyh6jdnL94AcNDI4hSg6yv11v2UZqreuRdRa3KfRNrlYCYzLrN3wv5HAJrWXup9O7kItLpFDq31LP8UWbkOiP/uTytQA5QmJRKYn5F2SCVTfGd3+LK54rs0iMJZMTvyZk5/Oy1K/ZS5XLGhy5qkwcP7SeIN2FnQwARYSpv0UMDfSVjdHwC189fxC2ajAPdNzA4MYG5XAGV1CobmqnREFDz8RWC1VH89nf/APv3H6QcOPnxwEXk8dBzf5PovgObdSEuuR6Vh3n+ciq/Zp2X5MWzawQBUZQmyJ1bI7jMEapQSKPIXyabRpqqb02sCc99/Ft4+pFPmVbC1GxU8/IK+IKW9vXuy5hZnoTe+tYTJc39rK8Q1ohKAEpnU9RETuHZJ7+EpvoWe7rE8Y33u5HSYIbJrtHMUMmk8Shtr7zeoXsk9fKxOgQdak8lId7S1qE7cenyefsUbEVVAIkkNSpea60NoykWInj4EagOYm1LDMXddag61Ijgrnr47fMrFbbLII0bTM/fxWJiHrFgC2oijWZmevyz8ilzdjw5Xtm8eYjmpmaMjlC7IU9lhlbXEWwIZNGIACfIuJXwV61R29FSQ5pUOSBbpKlZyCJQkTPTqn90FkuJOFobqlFXrUlyaYLKmcRMrSzy8mDWJZJHZXG88cJZLP03v8iKzrKrrOl0Brf6B/HXz7+G89fvkg9N2H3wOA4e2I2j5M/22ir76mnpJqRoeo4MDePauXPoOU/TqbsbQzMsK9vaR6Bpaq5DkEpuZnkR+w8dwe989+/j8JFjVjKRx6tyWfTCf9PovjajdHjA4YV5anZ5HJHXARXfu15OCtO1udk5vP7yWfT30XxgxwgGouiiunto90l84vQX8JlnnkNjvdv9XxqIJV9KSwCka2lqLbfu3qQmtGygYR+j0/obdg69IqAnR6FABJ//2Ndx+sTTlq++BeSja1NJSo8epm5mhpuUVQ4uH1e3csEUCDkgcmaEQEcdvQqdndsxOzeFaxxtiXLMQ5+wSRPcVqlxaI2PtiytRJCaV4RlrQsH7DtP4aBW5Thw1FKAisoC5ldGMLc0RbOnDrUEXntSJUApldlYocNAx/Fdrl5ElRZz7dpVDI+NUVsMsP7ap5n56+mUNBz+QmzKSNhnT9LS+UqacdIqCwhU5Wx+a2BsAROTC9SCqlBbG7P7VW+BOHMynjgWye/cDb/I+VUm9xNeOBDX+qgJmkEvnrmMH758CRNzaTRv3UGgOYzD+2midsawJUL+KgHVlYc2JL/TN4Cb58/h9kWaTrf7MDK/YNuCBAmkLS31CHCwyKxIo3FAc/zYyVI5nAxutKHze+G/iXTfgM2bNUJ548jlP1RRsCU8onuBxyPPX+7q0H2jwyN47dVXMb0wzY4ZwGMPfBz/m9//x/jip76KU0cfRRNHaaXLu5iuysBOLgk3tX2N4BTC9q07zayZnppFNpuhblSw/YyVXZ7mQYpgc/zAQ/jKb30bW1o63P676ihKh3Gk2bA0VjaBh4XTdfltlFfkua7OiuviyEfoRTQUs4/P3xnsw+2B2whEAjbXs7KcRlL7FhNoItV+6IN7ekI2P5vA8nwKVQQrPSnSnIIW4vnJV70ntpKewOT8IAGEmlHtVjMVZcZZ+dZK2piVwZVFZ/K3trZiYX4ely5dwkoiae9EqZYCDJlWgSABh/nojfeo1gf5A+SVD/m1KgPpQKXmuwoYm1pEL83cJXZgbSovzShE7UxAL+3E8lUBWKZ7eaRriqMFmuKXQDGTzWFqdh5nL93AD148j6u9w1gLUIPZcxB7D+/Dsb3tOLglhDqpMyyH0pDBO7u4jP6eW+i5cBa3Lpwj0PRjdHEFKXI+TFOvmRqNdMJ0YsW29vzO7/8Dp9GU2GL588TKS5Krcpa7v2l034DNvY2ixpLrTbDJ1tb8QEofcKcqrOj69K5ng3uN+1Zkn+Mlnac6/Pq51yjkGQpLFR57+El8/rPPob6Bo1QwsJ6WDpaGYkfBkI9py1WZopFq7N1xCHWhLZgZX8L8/ByKOffdqUpfCCePPoRvfeG7NKMe5D2uQzNFe/ClIrJLuDT1YpPItJiSl+l79S/nyb1kQbxd11qa2tDQ2Ejz7gpGRkbtM7B6vJ/JFbA4l0I6ThOO1clWAUu0YeIreWpfPC9oV8JVZFNu+1N9Jz0SrkQ2t0RNYxXtDXtp+tRa33YlJpWV0xXLtZf4K6Du7+tDb08vNT3Ng7EuBO4I+RqNCnBohjKxsF9vjfvhY3ixIsB4Mq+oYbGMMrfiBKs7Q1PoGxzD3OKSpa9tWJW3WsTavKzdN9pL+zrriVcOy/EkBoZHcebSdfzo5Yu4SJMpnqlEU8du7D14iGZTF47tbMCOer9pXMzCwCm3WsT41DRuXbuO29Robl26iDt3BzERp7bI61GaeM2NtaxclnxN4PSjj+HbBJp9+w9aIve2nUh+xy8XVn7tN4k+VLDxGkDum5EazUCGcfQE4+7wEJ7/8fN45aWXMTk5gTwlWl9F0GSje6Oa6ZSExhNA3VukwGczWVy5chl/9Zd/jtHRYXaiiG2UVV9XiyPHD6OmpsbuX1lZxtzcjGk3Qa0XYTmsdKUiKo7yioY4utW24vaNAYz2T6OCgrw4k8SerpP4p//on+HBI9qFjaM2R2ABDvuxgY2VT6ma/aRzV0alq0N+HV7n8YhBpTjeuYvntDtgx7ZdNFmCuHztMnkzhepYBLHqkIHMcjyL6fEVLEwnad5UoqUthkiNOrmAkDcTFGyTsIzjYSRcgy11R9HZfHT9kbiXZ3kZ3ZMf+V0Z9LRPL2hevXIVE9MzrLMPSa0/KeQRDsikijqe8t5wld5Z81HrCdHsCmO1IkSNghqMr4p5st3Jn8WlBPqHJnDj1hBu39V33OewsBzHSpJaWyqDeDqFBIFJ4DS3sISh0Sl09w/i3NVbePn8Vbx64SZ670zQZPOjtrmT2swBHDi4B0f3tuFgRxStYWpBLIurnDYjy+Du4BC6L19B38UL9r7T7aERzGjLDj/TqIuhqT6G1UKavMrg8ac+hu/8vX+AHTt2GqiK1G4ev+R656rzbzpVkBGOMx8yqdOoYeR6Qi0g0feepiYmcfnKFZylVtJ/+zaWFhcRoFbT3NqCpsYmAwwtnGrk6N5Q34Bq7TnM0V1xBAxzc/Po67uFaxSeyclJmgzapS9IIU1RHW7Cc198DkePHqOGsoCrVy+jmyPzrh278NWvfAVbt20rdWhPYNjhKZk+guAIO8D/8j//P3D9+nUQVzA2PoadOw7gX/zf/wUefOiYaTRaCcwbVUGbB1AdZTrZ6xJCHp5T5HnQb6fKYwN8PHJC6x6Luw6uowRATFurcDP5JP7tH/4r/Kt/8/9EPLmCHbva0b6thiaUD7l0EamVjL1wumVbLdq2ikdasKgnY86oWy1W2uK8KppQOzqewOl9X0NjdavV2GuXjU7jeOEOB3oyOXO5DP71v/7X+Hf/8T8hSBOvo3Mr2lqbcfTQQTx44jj27d2LOoKSWzqwhhzLv5Bew8h8FkMExJmZeSwuziEVX0Q2GacpGEcqmUKhmDe+6TMwsUgE0XDIQMlemiUwZTM5pNNZpDjwFArkc1WA5k41auubKCda/9OMbR0N2N4YQpM2TPMmkMlvfaJZb68P3R3AwPUbGL7Va3N6I9PztpmZ3ueqrY0QwIMEmSQ4euHjn34WX/vGt9Da1m51t6TK5FfHhsxskuhDBRuvMcqLIL8abWp6Gme0cIogMUEtZnBoiIKX4MjMBmcnljllcSls6vjarkGkycgghUNqvT4uJwHVegq9c6THzdpSwt5ronxI65DWozU04XCUQpdFIpnAwtwChTqIv/8Hf4Df+Z1vm3a1UVYrJBKpBP7sT/87/vRP/sQ6QoHq98zULEfaBJ75+Mfxj/+Hf4Kjhw/9nAAKZPRkzKW5aov81Flt4pdx+d/y0j1enpqDKCe3+K0kyJJl1kXxta5lKT6L//S9f4t/81/+V8zOz2D79lbs2tOMxpaYmTVLCyl24gI7fBCdXbVobam2p0R6KVUT2HrqlKYWKdNmW8tpnNr7JbQ17GQmTqPTpLQA0dYCSTuzArh2YxHI90r78uO//Jf/En/zdz9mR2+zAaGWA8L+/XtwioBzYP8+AtAWhMIRS5c1RYbNN5daxeRCFhOzK5ieXcLyShxZ8jNLXmdzKXvSlWdb5vMZahfUNlbFO3ZyDh766qZe+IxEYwYysZo61DXW08RswNbWanSwvg3BSpvQNb6RVPpUKo2xiVEM3LqNoZ5b1FL7cXdkBBMLK8gSPPVYv65G64YqkFpeJkBH8f9v78qf66zO82uj3VrutWTZsmTZkmxZjo2HeBPFYEiZgjH22CyZQDtJfiv5T8okaemkC51JJ/wUD81MkzEF7EKYCRRs42Ai8AqSJcvad+leydqQ1Od5z33l48uVLCfkopbzaD7d7zvf2ZfnvO/ZvoNHjsrRp57Vjo0dipVtMlKZfZOx7NQoPsdiMTn55pty/Phx+f2530srCn8CYqsuEmNjJEFAMiksQK+NHk4/Igdice+hTqOn4kDt5MS4TELU1kFcVIqpyS8kjp6SO64HhkYkFo8hrLgM9A1IfCSm/pLMsjIyZQyiOtWxmi01EimKwr9JGRwclPYbbXLl8mV5/Y3X5bUTv1ExnqtfJ9Gju/GlOens7MDVpZs5KTmR+Piut7dHLl64INevN8PejG7IzEZ4jLOeaYM7N3hMacXljbtINswne76lZlke6gwR3HBbxbfqdkrpmjUg7C651twqIyOjKgVE0asXrs5Ru2ND0xIfnqYGBQkEhJ1JdRVSF8iCkt/MzIR0DTRL/3CP5GWDLPJLldQZN6YRQWq48+HTQN+JFEKyXL9unbS2NEtTU6P6q9LD4JB+QXJmxk3Pc+V0Zk425DqRTMSpAGRQXJgJcsrFVQiCikIVhAQWiYA8osjnqBSigRdGcEGSLaBUu2atrCmrkNKySimr2CgbqjZJTc0mqdtcLnVVpbK1okA2RjIlksVzjBg7F2d+NLAbatmVy5fk0vnz0tTwiTReuSqNKN+u2KjMZWQhzDwQSp5kQk0ciw1JSek6eea7fyOHjx6bPyqC5eDnQzJSmX1TsWwkGxYcwcJ7//335eV/e5n1Ag2nDipQk/yhoUElk3xIIHn5VJE4LUq3PJSce34yJBdqE3tenrLHFbxcWDeGnpHEQTtUq7i8nna42pe9MDfI5YC4snJAViAZ+jkLaYMkQkLbtWuXbNq0SfoH+qW1FT0eVKW+/j4ZgGpGu+vLN+g4xSDEcJIav+80BUmHs1Vl68vl/vp9snVrrYzER+TyZfSezddhZ1ZqYbZn7x7Zed99UL1qVK2zPGC6uXaH/jM/WEK4VVieubQnJCD8KUnRIgiJh3lNgWwvXP2DnDj1H3Lmow9keKwXjRfx3QDVYk2uLgKMD/IjfCKrI3lQF/OlZM0qpDkT/jAwfsVhXOKxSeR5tezb+pTsqHlQydgtOGQcSHi3Vx9LAyW3D8+clh//5CdyvuGClK4rA1kU6qD+Okg72+o2y85v1UltLaSc0rX68TpNK9MOL3lNzkCC5B6zqTn9hI0e7p44E1rXTSEPmFYehJaTsQJlmyH5OfdIAVRFLrLjRlAKsZZXzJ4pqOX9UJfb2tulBVJMe3OT9LS26urgnpE4wpiWDORBUcEqKdAvSKCzGo+jvLbJM9/7vuyrr9dp/ll0Dkw//Waa/TLhb8CX8bWTjcEKjOM0p06dko/OfySP/dVjshcN8sqVK/Iv//TPuuGvOFIslei5SCL9fX3qluThDsJaqSoTpZVx6PC5eTlSjN5vLSpzecV6qaquwn2pxIbjcgMVbGxsTCYgkQwPD0PiGVGVhooMQZVhgpLRBER3SDWxUfgJkZskgjaBsDKkFP5SgpiamoL0APcgNLY9TiVTsuKmSfrHxW06ZY+aT6nBjRlxOX+WFJeskUcf/Us5eOiglJTwtP1bsErrV+Dkysxny0ea27MNrI+gR25q/Uwuff6pNLdele6BRjSoblmZw7EkqExjUAGn0EBXZYOI8qWsrBCqCCQYpnFFhm6eHI5NSG5GqeysflLqtz2uB8irhKOEo0HfFi9XlozPSqjCp+Wnf/8P8nHDp5q+wqJCvOBneFdJBcqkrnaL7IBaVQVCL0FeclUzD9qCoAN7JB2mh9PRkFgRJPe7MrnU4EhMDId2+RliPS6EziCJOPKlJ079uwnJmJtG29tuSFtLi3Sg/Hshgfb29Erv0LAM3eThXytQLpkSLcrRjusmJF+6v/+BB+TpZ56T2rptKkWznE2iMVje26+ZBdzC10o2rJQsNOsNWTgsyJ6eHlU7yst5vAPXecyp6vLqq6/K+Y8/1j00o6gIHe2deAeVCqL4LMT08fFxyYb4S0nk3vvule0779VKXApRm6I9B42Hh2Ly23d+K2dPf6CqzkiMJDGlK2kzIC0pWaBG83tIQ7Fh/QRvEdSktVAL1peVy6aqjVrbW6AKcQxpDuEOQi2Lk4xQoam6cWoe9RsJol+cLZtDJc6CP4VSvDoi2bmZUClG8PoePK8Gyc3Knn175IUfvSDV1YmZDeRFcsX1742cCWfOK/HMP81T9O5IF8FV0mPjo9LV2ybXrn8ird0XpWOoBWpSJ4gyJhNjXBC4UtZXREEA5ZCCMmVydhRkPI1rBmQ8CikoX/Zvf06+s+tZ3dag628SYRKMh8XJjx9V4X/82c/kgzNnQTLMg2KVcHhuM7/9XQ6pZ3NNldTWVMvGygod+M/n2pxMqFjoSBiEphy/NkzklMhEqvVfIn80L1CP0HFMTLLjYafUq4P37TfapberQwZ7u2Wov1960enEUFZTkJJ4rEcupNsikG7GCqR3NKYf/T946LAcOnIMJLxe/bc0ujx3kril1cwt3QG3Y9lINsmwArMBOBbqf0Pieemll2T7jh1QTbbq8viGTxogqQwLJfqams3yxONPyMMHDqCXLpcCVGyO4/j45fHj8otXXpEpEBP9jkNCov5OuT2HZAOJgMd4UqrhGbsPPXRAdkO64tQ4N2JOowJ3oUe8dq1Juru7ZRAieXd3j45HzMxOq4hdVFCgC+02Vm/SQ8E5NXv1syvS+Fmjju0QeasK5PCRw7ielOamFt01/eSRQ7Jv7159b5XW8sGvxJZvfGZFt2yc3zsEc0cEbBx4xB+lhYRzqFATMjI6KL0DndLR1yLdfa1QA/vlJiS9osJSqavmUoAsGRhtgfrVKuPTIKOpm0jHtGwu2y+P7n4e9twqa3qZCF7hl6nFmWV34dNP5ef//nM5+fbbIEIB4UCKWZULt3gPQuR3vdYUF0MtLZONKLsykDuPnuDYCPdLcdc8B/c5bsRD5umvBgXpRQ95Rz58AWIfG78JlXVUhng2MgilB2XT090pA5CCRwaH0UHEZBQEE8fFz+NSLKIanJ8HVRp1iGfuzKDzqa7ZIocOH5OHH/mOqn/WITITE9nostrdanwCFsfXSjaEVUiLhv9r5vxlYZ88eVJO/OaE/PCHP5Bde3ZLN0Tgj8/zeIMWraz199fL1to6nTEwP+iOpMIenoPDL774olyGWvbUkaNKSJRg+lARz509Kx+ePac9Wil61r379soTTxyS/fv3q6TyX6+/LpcuXdJekuoUZ2Q489TV0YGGOyqVkKDq9+yTum3bpBK9c0XFBolCauHJfpy5uXHjuvzu3d/JuQ/PqYp3AIT49NPHIIVV6RogqmHZkNBIavNgBU7kh59HnrHCEYvZceleudL1wk6VcG70REF9l6EqJ73g2A5nd6ZneL7yDMwzIeVx/IRTwlAjZ0ZlaiauauGKOY6JFKPHL4Y9SpxOhfGiomAYjAthvT4Jh/un/vPXv5ZXf/Ur6WhrkwjIJRItVrJhEjgmx60O3MQZLSpQqS8KO8WRiEQK8yUf5ZoN1VhPOQQxcIEgZxOp6nF2kp0EpbQhdD4x5Gcc1xgkzgmQKPdEjXM2C5LzNMIiyXFQPBdEkwuWmf1iQg8q41qhv3jgYXn84CHZUlur43yO0JlvCJR5jGfeM90ulQFLwbIZILbCnO9BPNCc6lVzc7Pubfr2t+/TAUXCxkY4fc19OATtElo5APpJsmFP9/Zbb0k0GkWP9YiOD/AdGxy3MXx45oz09vdKLaSmXbt2y9q169Co7pFPGhrk70BSzc3X9KwW9rLMtcHBAa18Dz74oBw99pTs2O4WB5I0UoGqVndXt1bWMkhNJEhrjNY4/eKgiVboxDuDs8J8YvpIqBzRoD03TuF2RDt/bPczfTMzjoPQR13QhjxyA71LB31xs2V8crG0cvTL09JFsqdlkgkJ/3/eew8S5i/lLIiX47yR6Go9p5kD9LqOiNFCebFMuaqbx1VkZ+focgRODJAQXcNn2qd10JeLPqc4LQ5VlmNorAMc/+MUOcdsqKpyG4IetQGi5Xk7WZmIH/JuanIMal2G7Lh3pzz22GF0NPVKOgT9YVhWN61Oafp446U7YHF87ZKNwQrMouPfG4yIuFRdP4OCiskVp1bQ3AzJGmDP9mt+s0LyG0eUfHJyc5yKhj89nBzgd5wnUVG50tXW1tDNGyffkJf/9WX0fOMSRS9LSaIXEk5BXr48/ex3QTTHIMlUqB90w8qNO30mLHwbPzFYevje7LAy89ev2F8GG5nyBNzRH3N/K80ufLrnzBHvaa4WnF2859oefQdjtnH1DGa64x33s/hz3tEe/tOdekFSYwNkuCQU2rkFF56DhsVwEGGSnBuDm9UZRi5vePPNN6TpWoseTMXFmEX5+bqNAZYS7hk6A8B/rpFhXBA/bq0g2TBsxpQJYFi0PwcCcUd9oCwSZnTHtUSc/eYE/uwcJDmoS7lQe6uqq+WhA4+g03hYNlRuRBw59e/yzcrDR/JzwNKwbNSoVPcEn+dJBgVPcz/KyW78ykF3yf5ZA/YbOu3oL95ZA2RlI+FQvXnlF6/Ia6+dkCKI9qNjN3UdDffqPPf88/K3L/xIVy67bz+5So0YzodLWBh2T9izhe3b8d0Syc/+wKzzj2ni6mKXJsKcGBnQDcecLDyacb0NHjS+ao9e0ZxpoHTEdMA84X0CMGMe0pz3/O8C0LeEpcXS5ec5ze2i2nMZquk777wj7777nn6In/uasiE98nPJ7ngKxJle6zgN3Gt6rIxdOkh8JELGeQbvKcXogj/GERaYTJYKx2JmpiehJq7QgXoe0r57b73sgSRTXb1ZpVaLs6YmEXc+E5Ymi38iuwKWiP9Tks1XifnwcK/VFs9mZmBF4yK0t0+9Ja2tLVJRWaEHRF29elWqNlbJ9/76OdmyZcttjWjeQ1ww+VIa7NlPnx9mMlK9S/bTAqU5r1tuaO4aOs3Z6PBSnwn1Bs8uFxYGXcBX/e/gwrPfWz4C8C85frfHyT3zIpkT8diINDY2yunTp+XsmXNy+fPPdJqa0klGZqauCM/OypV7svmNLzdI7DoVpI7/QD5cl8RV3Fw8yAF/kg0l3TmoQStkGn5kSAQq7rrytbJ1ax1U8d2yfcdOWV9erpIs8UVCZdKywfO85JeExcorYGEsG7JJN5hsrVSJim8ViMRhPTHBrREcbKQdjglxO0M8Ftep2ZKSEq3wxG0V0LXBeSSHw8snKD/8u4G54y+xkF++Pbu/ZZc2Fg9b7SXu5xMHM3XMixKVl2cLgf4k//Iy9ZKn9XW0tctVkM3Fixfl88YmHVTu7u3Tb2xx4y3jTTWP66pYTqpG494dPD8D9QgSKaLCgfmCvFwpLlktZevWaudQW1snm2u3SPmGSt2h7lQ6J8USVu5+/vn3AX8aljXZMGrWKAj//k64k11771cm3z7veVlPlwokjGQ/zF/bdrBQOPZs9/xNBd+dwewm+72QH7CJK3UcFnbjge6MUGh/etr9cnuI56cihZ/JceQ9L8s/M2deW4Pn95t4dEdnZycIp03aOtulhyfkDQ1KbDgmo6Nx4YFbzGMumOTKZi454JnIRdECiUSL9LDxivJKXbG8Gh1DUVFEZ5cIDZtpsvjjVyUZ3ifi6MfbRyqzgDsjSDZLTL7Z890sWunwigpGqnCS/TA7d4tkvxfyK9kesZDdBeGTzeSk+2XDpSpk7xZAqvD9sM3cf59M8lz3xBXfvG5CuuQCTm7MVAkRdnkyIBdtcm8YV45zoSc3etrB9AT9N4kyYeDihYsmDJ1jPzDU14Qfh4A/DYFsvOQvVLHMbvL9YlCp5v8L2XjuFCQXmpFgkt0vxT8gOU4WD5IBQXM/fotJmKlAbzko7vvju6d/+o7mfA8zu4dFZyngK8U3lmxSYaGsYCW1d/79YribhrHsQQJgeizdJBmCz7xSvfPA/Fos3/z3/LV7Ix7DQu7nxRLeMi4e/HBNRTPpxt4lu/Gx2LuAu0Mgm4A7g1WEjW7Bxu69+yMapzX4haqiTwhGQMlE4bulWfL7VFiKnYCvDoFsApYGVhNrlFZl/Oe7bLDWyFM1dt+M5EKJxEjG1J9UBOH7ycvcmUSTDN8+fQtq1J8XgWwC7gxrgFZVrDH6z8nv7gJ+oyf8+z8n5onmj4hzwN0jkE3AsoE1fKuSRgI+ISTb8WHmqdwR5ibZXkB6EMgmYFnDSGEpRHE3dgPSj0A2AQEBaUHqkbOAgICArxiBbAICAtKCQDYBAQFpQSCbgICAtCCQTUBAQFoQyCYgICAtCGQTEBCQFgSyCQgISAsC2QQEBKQFgWwCAgLSgkA2AQEBaUEgm4CAgLQgkE1AQEBaEMgmICAgLQhkExAQkBYEsgkICEgLAtkEBASkBYFsAgIC0gCR/wUx4rYuegZe0wAAAABJRU5ErkJggg==;" vertex="1" parent="1">
          <mxGeometry x="573.23" y="260" width="118.47" height="72" as="geometry" />
        </mxCell>
        <mxCell id="1GOSfQdHCJdYXFayeqEW-10" value="&lt;h1&gt;MongoDB&lt;/h1&gt;" style="rounded=1;whiteSpace=wrap;html=1;" parent="1" vertex="1">
          <mxGeometry x="600" y="508" width="130" height="60" as="geometry" />
        </mxCell>
        <mxCell id="7SB77RebNlp5_hPHHmRt-15" value="" style="shape=image;verticalLabelPosition=bottom;labelBackgroundColor=default;verticalAlign=top;aspect=fixed;imageAspect=0;image=data:image/jpeg,/9j/4AAQSkZJRgABAQAAAQABAAD/2wCEAAkGBw8ODw8NDw8NDw8NDRAPDw8QDxAPDw0PFRUWFhUVFRUYHSggGBolHRUVITEhJSktLy8uFx8zODMsNygtLi0BCgoKDg0OGxAQGi8lICUtLS0tLy0vLS0tLS0tLS0tLS0tLS0tLS0tLS0tLS0tLS0tKy0tLS0tLS0rLS0tLS0tLf/AABEIAHYBrAMBIgACEQEDEQH/xAAcAAEAAgMBAQEAAAAAAAAAAAAAAQcFBggEAwL/xABOEAABAwMBBAUGCQoEAwkBAAABAAIDBAUREgYHITETQVFhgRQiNXFyswgjMkJ0gpGhshUkMzRSU3OSscElYnWjg5PCJkNEY5SipNHSFv/EABgBAQEBAQEAAAAAAAAAAAAAAAABAgME/8QAIxEBAQACAQQCAwEBAAAAAAAAAAECETEDEiFBMlEiQmETYv/aAAwDAQACEQMRAD8AvBERAUFwGASBk4HecZ4fYVEsjWNc97g1rGlznOIAa0cSSeoLnLb3eFPW3COekkdFBQSZpDy1vHAyuHXqHDB+acdZVk2zllMXR6LXthtqorvSNqWYbK3DKiHOTDLjj9U8wezvBWwqNS7SihSgIihBKIiAihEEooRAUqEQSihEEooRBKKFKCEREBERAREQERSghERARSoQEREBERAREQEUoghFKIIRFKCEREBERARFKCERarvK2o/JVBJMwjyiY9DTA/vXA+fjsaAXeAHWk8pbpXe+rbcyPdaKV56OM/nj2n9I/n0IPYPnd/DqKqRS5xJLiS5ziS5xOS5x4kk9ZKhd5NR5cst3bO7GbTzWmrZVRZcw4ZUQ5wJ4s8R7Q5g9R7iV1FbLhFVQxVMDg+KZgexw6we3sPVhcgK2Nxe1RimdaZnfFzl0lMT8yYDL2epwGfWD2rOc9unTy14XiiIuTuIiICIiAiIgIiICIiAiIgIiICIiApUKUEKUUIClQiApUIglFCIJRQpQFCIglQiIJRQiCVCKUEIiIJRQiApRQgIiIJUIiCVznvqvpq7m6nacxUDOhaOoyuw6V34W/UXQ1XOIo5JXfJijc8+poJP9FyBV1LppJJ3/AC5pHyu9p7i4/wBVvCOXVvjT5Ii9NLBrZUP/AHULX+omaNn/AFFdXB5l9aSpfDJHPE7TJDI2SN37L2kFp+0L5Ig662fujK2kp6xnBtTCyTH7JI85p7wcjwXvVbbhbgZbZJTn/wAJVyNb7EgEg/8Ac56slcLNV65dzYiLRd4mztdOJa6kudRS+T0hIpmFzY5HR63klwdwJBxnHUEhW9IuT/8A+vumPSNd/wCok/8AtdI7CX0XK3U1XkdI5miYdkzPNf8AeM+ohXLHTOOcyZ9ERZbEXwrqtkEUk8h0xwxuke7sa0En7guYLjtxc55pZm1tXE2WV72xsme1kbSchoAPIDAWscdsZZzF1MiqvdfZLjUR0l2qLtVvjc+RwpHOe9kjAXx4e4u7Rnl1BWopZpqXcERFFEREBERAREQEUqEBEUoIREQEREBFKIIREQERYbayzTV1OIYKyaheJWydNFnUQA4aTgjgcg+CDNKFy/f71d6GqqKOS5Vjn00hYXNqJNLuAII49YIK3G0bI7T1UEVSLnJEJmNkYySrn6QMcMtLgAQCQeS32/1znU36XeipGqt219uHStqJKtjOLhG9tVw9iRuo/VWR2S3zNe8QXSJsLs6fKYg7o2uzj4yM5LPWM9+FO36XvntbqL8xSNe1r2ua5rgHNc0gtc08iCOYWO2ktktZTPp4amWkkeWETxZ1s0uDiBgjmBjn1rLbJqVzLtVcrvbayahkudY90Jbh7Z5AHsc0OacZ4cDyWy2DZjaWupoqttylijnaHxtlq59bmH5LsNBwDzC32/1z/wBPWl6qFSVbsztbSNMsddLUaeJbFUukf4Mlbh3q4qdjd8MzJW091a0sLtBqWs6OSF3L41g4EZ5kAEdhU7fpe/7XaoUMcHAOBBBAII4gg8iFKy2KVClBhNt5Cy13FzeBFBUEf8ty5PC652kpenoqyDGTLSTsA7S5hAXIzeQXXBw6vKVm7DBqpbs793Qwn/5dP/YFYRbdsXDqoL8f2bbGfsl1f9K1XPGbrUURFUXL8HeQ/wCJM6gaV3ielH9grkVSfB5pcU9fP+3URQg/w2aj70K21xz5enp/EXg2h/U6v6JP7ty96xm1H6hW/Qqj3blltzTbrD09oqq5gzJQ1cIfjrp5GYP2O0n1Fy3jcHfujqJ7a8+bUN6eHPVKwYeB624P1F7tw1GyoobnTyAOjmkZG8drXREH+qrNwns1z6+mt1X6uka0/wBHMP2OXbncef46ydXovhb6xlRDFURHVHPEyVh7WuAI+4r7ri9Cs9+9/wDJ6BlEx2JK5/n9op48Of8Aa7QPVqVN7TWR1AaSJ+RLNQRVMoPzHyOfhvg0NHryt2qv+0O04j+VS0r9J7PJqc5d4PkJHqeOxebfy3F2j76CH3koXXHx4cM/O6tXdJ6EoPYl99ItuWo7pPQlB7EvvpFtziACSQABkk8AAud5dseILxVt3pac4nqaaE9kk0bD9hKpbbjeTV3Co/J9pMjYXydE2SHhPWPPDzXfMZ6uY4kgcFkrLuRD2CSvq5BM/i5kAadJPU6R4Oo+AV7ftnu3wtmiutNUfoKinm/hyskI+wr2Klr7uUdE0zW2rkdNH5zY5tLHu9iVmNJ9Y8Qvhu+3m1FNOLddXPczX0Inl4TU0gONMp+c3PDJ4jvHJ2/R36uqu9EVSb5qi9xslexzIbW0xsLoJNM79eB8b1huo6cN7sqSbat1NrbBXmrbjBTjM80MIPIyyMjB/mK5+2R2+qqO3PtlIx8tdUVmKZxGvo45GtB0g83ahwB4edk8sHarfubkqfzi6V876mTzniMiQtJ6jI/OfAAK9uuWZnvhadDd6WoOIKmmmPZHNHIR4Ar2rnvb/dnJaIhX0s8ksMb2h7iBHPTlxw12pvMZIGRggkeG97mts5bjFLR1Ti+opGtc2U/KmhPDzu1zSME9eR3pcfG4TLzqrJRFU+9nePJSSOttC4Mma0GoqBgmHUMhjP8ANggk9WR18pJtq2Sbqzq25U9Pxnnghz+9lZHn+Yr8UV4pZziGpppj2RzRvI8AVS+ye6ae4xiuuVRNF04D2M/SVL2niHPe/OnPPGCfUvVtJuVMUTprfUSSyRgu6GYND346mPaBh3cR4rWp9s92XOl1ah2j7VIK5V2Rpaepq2UdbNVwCd4ijljeB0U5OA2RrweBPm9xx4dAbCbFts4qGtqZagVDoz8Y0NLNAcOYPHOr7lLjoxy7m1r8veGglxAA5knAHitf252shtFKaiQa5HnRBCDgzSYzz6mjmT/cgKmLZRXfaud7pZyymjdh7jqFNCTxDI4gfPdjt49p4hJjvyty14Xo7aS3h2k11EHdnlMOfxLJQyte0OY5r2nk5pDgfEKq2bjaLTg1lYX4+UGwhufZ08vFahftm7rsvI2qpKl7qZzwOkYCGBxPBs8Jy3j2/wBCmpeKndZzHQyLUN3W28d4gJIEdVBgTxA8OPJ7P8p+48O87cs2aal25b3oembl/HHu2Lpaw/qlL9Fh/A1c070PTNy/jj3bF0tYf1Sl+iw/gaumfEYw+Ve9Vbvi2EjqIZLpTMDaqBuuoa0YFTCOZI/baOOesAjjwxaS/L2hwLSAQ4EEHkQeaxLpuzc0pDchti6OUWid5MUoLqQn/upBxdGD+yRkgdRB7VeC5LuLHW24yiPg6grnGP8A4UmWfcAusYJQ9jXt5PaHD1EZC1nPbHTvjTm/fP6aqv4cHumq99hPRVt/0+m921URvn9NVX8OD3TVemw0zBaraC5ufyfTfOH7tquXxiYfKtgXOe++3R093LowG+VUsVQ8D96XSRuOO8Rg+slX7cr1S0rDLUVEETGjJL5Gj7BzJ7guddqa2faO7uNHE9+prIKdpGNMDCfjJD81uXOdx5ZA5qYcr1ONLm3QVr57NSF5yYukhBPMsje5rfsAA8FuaxGylkbbqKnomnV0EeHOxjXISXPd4uJKy6zeW5wIiKKhcp7c2c0Fyq6XGGtmc+LsMUnnsx6gcfVK6sVV79dlzPAy6RNzJRt0VAA4upich31CSfU5x6lvC6rn1JuKKW/bvINVr2kd2W0fc2Z39loKtLdTT67RtD/npCz/AGJj/ddMuHHDlVqglAtt3ZbLm6V8bHNzTUxbNUnqLQfNj+sRj1Byt8Mybul47rLMaG00sbxiWZpqZQRgh0p1AEdobpb9VbYiLz165NCxO1xxbq8jmKCp905ZZYfbN2LZcT2W+qP+09IXhXnweP1av+kRfgKxe/2waJqe5sHmzjyecjqkaCYyfW3UPqhZT4PH6tX/AEiL8BW/7bWIXK31NHw1yR6oifmzN86M/aB4ErdusmJN4NN3D37p6KSgecyUMmWZ5mnkJc37Hax3DStn3k3/APJ1sqJ2nEsjegg7elk4Aj2Rl31VQ+7S+G23WCR+WRyuNLUA8NLXkDiOrS8NPgVuO+Ctkud1o7JTnPRua12OIE8uMk+wzj9Yq3H8kmX4s5uEsHQUctwe3D6x+iLPMU8WRnxfr8GtWn7+/S0f+nxe8lV9W2iZTQxU0Q0xwRMiYOxrRgf0VEb/AAf4pD9Aj95ImN3kZzWGlo7pfQlB7EvvpF5N813dSWmVrDpfVyNpQRzDX5L8fVa4eK9O6J2bHQ+zMPsnkCwHwgIXOt1M8DhHXN1d2qOQD7/6rP7NW/g1z4P9nbJUVVc9oJpo2Qw56nyai8jvDWgep5V5KpPg8zNNPXx8NTaiJ5HXpcwgfexytxM+Tp/FCoPf1Z2Q10NWxoAroXdJgcDLFpBce8tc3+VX4qa+EPMP8Oj+d+cv+r8WEw5Op8W77qbw6ttNNJIdUkIdTvJOS4xnS0nvLdJ8V5t9HoOr9um9/GvDuHhc20lx5S1s72+yAxn9WFe7fR6Dq/bpvfxp+x+iu9wdqZNXz1TwCaKAdGCPkyTFzdQ7w1rx9ZX2qV+Dt+kufsUn9ZldaZ8nT+LAbfxh1ouYIyBbql3i2Nzh94CpncM4/lZ4zwNBNnv8+JXRt36Juf8AptX7l6pbcP6Xd9Am/HErj8amXyjoVcpMPlV3HTcfKbsOlB7Hz4c37DhdXLnHerstNbLg+siDvJ6mfyiGUDhDOTrcw9h1ZI7R6imB1ONujQEWobE7wKO5ws1Sxw1YaBLTyODHaxzdHn5TT3cs8V7tp9tKC2xOkmnjfJpJjgje180ruoBo5DlxPALOq3ua2593oQthvNxbH5oE7ZBp4aXvjZI4jv1OJXTVrmdJTwSOGHSQRvcOxzmgn+q5s2es1RtFdHve06Jp+nrJBnRDET8gHtIGlv29RXTbWgAADAAAA7AFrP1GOn7rnHfVeHVF1liyejoY2wsHUHFofIfWSQPqBXnsTZm0FupKVoALIWulIGNczhqkd/MT9y513oROZd7k08zOXDvDmNcPuIXUVLKHxxvbjS9jXNxywQCEy4hhzX0XkvFujq6eallGqOeJ0bh2ZHA+sHB8F7FCw6OYN39wfbbzTgnH5yaKccg5r39Gc+p2l31V0+uVY/j70DHx6a9amY7HVWR9xXVa3m59P25a3oembl/HHu2Lpaw/qlL9Fh/A1c070PTNy/jj3bF0tYf1Sl+iw/garnxEw+Ve5FK8l1uEdLBNVSnTHBE6R57mjOPWeS5url7eG4G63Ijl5ZL9xwV09Y2FtLTNdzbTQg+sMAK5esVDJdrnHEQS6tqzJNj5rHOL5T4N1Lq4DHAdS6Z+o5dP3XNm+f01U/w6f3TVsdh3Lw1lJTVZrXsNVTxTFnk7HaS9odjOrjzWub5/TVV/Dg901XvsJ6Ktv+n03u2pbrGJjN5VW8m4eMD4u4FruoupGkfc8LWqyC9bJyjo5IzTzvyJGxiSnqHAfJeCA5jsccZHXgniuilq+82iZPZ69rwPi6Z8zCfmyR+e0jxGPFSZX23cJzHw3d7cxXmF+WCGqgx00OrUCDyew8y0/ceHYTt65q3N1To71StbnE7Jonjtb0bn8fFjSulVMpqmGW4IiLLaF+ZI2va5jgHNcC1zSMhzSMEEdYX6RBzVvM2HfaagvjBdQ1DyYH8+hcePQuPaOo9Y7wVuW5WDVabt/wCY97PDoB/+irZuluhq4ZKaojbJFK3S9jusdo7COYPUqNvlfVbKyVdrpXMmgrohPC+RvxtOX5jPc84Zjjw5HtB6S9005XHtu1d2e3TVksVNTsMk0xAY0feSepo5krqDYbZaK0UjaZhD5HefUS4wZpSOJ9kcgOweteLd/sJT2aLhiWqkaBNUEY4fsMHzWD7T1922qZZbXDDXkRFKw6IWE24OLVcz2W2r9y9ZtaHt3sjdLlJIyC5Np6KWJjHUxYTqIzqy4cSDw4Z6lYl4YD4PH6vX/SIvwFW2qm2W3Y3S2ztlgukTI3SRGojZG/E8bHZLSDkZxqGerKtpXLlMPE1XNm+KweRXSR7W4hrwalnDgJCcTN/m87/iBbJuNtD6qrqbvUF0hizEx7+JfO8Ze7PaG4H11vm9LZF93o2sg6MVNPKJIS86WuB817C7BwCMH1tCyuxFgFsoKej80vY3VM5ucPmdxeR3ZOB3AK934sTD8ts6qB3+j/E4D20DPeSK+K1j3RSNjdokdG9sb8Z0PIIa7HccFU9dd0NzrJTPVXSGeUtDS98UmcDkAAcAdw7VMNStZy2ajdtz/oOh9U/v5Vl9srC250FRREhrpWZjceTJmnUxx7sgZ7srUdidhrrbJYW/lRj6KORz5KVsbsP1A/JLs6fOIPDv7VZCl5XGeNVzZu72gfYrm+OrY+KN/wCbVjCPOhcDlsmBzDTnlza8kZ4Lo+nnZKxskbmvY9ocx7CHNc08iCOYWr7a7AUV3AkkDoalrdLamPGvT1NeDwe318R1EKvod220FvJbb7gzoyc4ZPLACe0xkFufFausmZvHwuetq44I3zTPZHFG0ue97g1rQOskrm7bG7y7Q3YNpWOc1xFPSMIwTGCSZHfsgklx7BjsW1P3ZX24OH5RuDOjac4dNLUEd7Y8BoPirH2M2Ho7Q09C0yTvGJKmTBkcOwdTW9w8cpNYlly8MnszZ2W+jp6JhyKeINLuWt/N7vFxJ8Vre+f0HV+3Te/jW7qu9vdhrldZpA25MjonGNzKVzHENc1oBJLefHJ4rM5ay41Gs/B3/SXL2KT+syupU9ZN1V1oHukpLrDA57Q15ZE/D2g5wQcgq4VcuUw3JqsHt36Juf8AptX7l6pbcP6Xd9Am/HErQ3gbLXG5kR01wbTUr4OjngLHHpnaiSSRxxjAx14WmWvdBcqOVtRTXOCGVoID2RSZweYPHBHcVZrSZS90q6FSe9/ax9dO2xUOZB0zWzluPjp8+bED2NPEntHcVcdsikjghjmk6WZkTGyy4x0kgADnY6snJXNG8GwRUNwkpoKk1T3ylxjaw9JA6Q5bG52fPf53V3Z5phPJ1LdLBG5KldBEHV0rKjox0xDY5IS/mdLTggDlz6l97ZuSoI3Az1k8wB+RGI4Gu7j8o/YQtct25WvliZJLU08D3t1GFzXyOjz1OIOM+peg7jqzqrqb/lyj+6u/6zr/AJXLZrRTUUTaelhZDE3jpYOZ7XE8XHvPFe5c015vOzVS2M1EjNQ1x4kdLS1DAcHzHcO4jAIz6ir12E2oZd6JlWGiOQOMU8YORHM3GQD2EEEdzgs3HXlvHLfhXG/fZZ+tl3iaXMLGw1YHHoyP0ch7uOknqw1bBuc2yiq6SK3SvDaujYI2NcceUQN4Mc3PMgYBHPhnrVjSxNe1zHta5j2lrmuAc1zTwIIPMKqNpdzEb5DPbajyV2rUIZNTo2O5/FvHnM+/HcrLLNVLLLuLZWmbzds4rXSSRse01tQwsgiBy5moYMrh1NHV2nA7VpA2R2uaOiFwJZyz5a88PaLdS9Vi3MOdJ090qzMSdT44nPJkP+eZ/nHwAPempOattvEYLchsq+oqxcpGnyej1dE4jhNUkY4doaCST2471fq+NDRxU8bIIWMiiiaGsYwaWtaOoBYva631tTTiKgqxRzCVrjKW68xgOBbjvJH2KW7q4ztjnXef6ZuX0ge7Yuk9mpmyUVG9jg5rqSAhwOQRoCqGfcpWyPdJJcKd73uLnvdHK5z3HiSSTxK+sG525RtDI7q2No5NZ5Qxozz4B2Fq6s5Yx3Lbpb9zulPSMMtTNFAwDi6R4aPDPM9wVEbzN4Lru5tvoWyml6Qcmu6WtkHycM5hoPEDmTxIGFn6fci+R+uruT5PYiJefryOOPsVgbLbD2+1+dTQgzEYNRKekmI68OPyR3NACk1Fsyy8cNf3TbBm2ROq6po8tqGBungfJYuejP7ROCSOwDqybDRYraiiq6ilfFRVIpKguYWzlurSA4Fwx3jI8Vm3dbk1PCgd8x/xqq/hwe6ar02Ala+024tIcBQwNJBzhzWBrh6wQR4KsavcvXzyPmluMEksji58j45XOe49ZOV+oNzlxjGmO6sjbnOlnlDG57cBy3dWa25yWW3S6yqj3ybdweTvtVLI2WWYgVL2EOZDGDks1DgXkjBA5DOeYXkdueuLxpku+WnmCKh4PgX4WasG5egp3NfVSy1hbg9GQIYM97WnJHcThSajV7r401rcTszI+oddZGlsMLHxU5Ix0sruDnN7Q0ZGe13cVam018fShwia0mKnfUzSOb0ghhaQ0Yj1t1uJzgamjDHHOcA5uCFkbWxsa1jGANaxoDWtaOQAHILEbQWPyrJaW+fA6nmic57GVELiDpL2HUxwI4OGflOGDnhLd1Zjqaj47PXySdzGShjumZM+KVkZiDjDII5WOYXvAIJbhzXuDhkjHXsKwVjsRgeJHaGiJkjIII3SPjgbI4Pkw5/E5LW4GAGgYAWdUqwUKVCiipnfTRh92swOPzlzIPaxOzh/uK5kVl0lm0ooRRRERAREQEREBERAREQEREBERAREQEREBERAREQfmVxDXEDJDSQO045LmTdxOJr7RS1J1OmqpJHl3zp3Mkc0nv1keOF06qN3hbsKqGofXWxjpYpJDMYYziemlzqJjHzm54jHELeF9OecviryRUdat79wpGthuFCZnMGkyEPppjj9ppaQT6gF7Z98dZUDo6G1PMjuAJMlRg+wxoz9qnZV/wBI+vwhqqPo6CDI6bpZZcdbYtOk57AXEfynsWR3A0b2W6eZww2orXOj/wAzWMYwn+Zrh9VazaN290u9Sa67vfAx5BeHFvlEjRyYxg4RN9fLs61dtBRx08UdPCxscULAyNjeAa0cAFbdTSYy27fdERYdBERAREQEREBERAREQEREBSoRAUqEQSihEEqERARSiCEUoghERARSiCFKIghERAREQEREBERAREQEREBERAREQEREEOaDzAPrGUa0DkAPUMIiCUUoghERAREQEREBERAREQEREBERBKIiAiIgIiIP/9k=;" vertex="1" parent="1">
          <mxGeometry x="603.05" y="520" width="126.95" height="35" as="geometry" />
        </mxCell>
        <mxCell id="1GOSfQdHCJdYXFayeqEW-70" value="embedding" style="ellipse;shape=cloud;whiteSpace=wrap;html=1;" parent="1" vertex="1">
          <mxGeometry x="610" y="445" width="120" height="80" as="geometry" />
        </mxCell>
        <mxCell id="1GOSfQdHCJdYXFayeqEW-11" value="&lt;h1&gt;Pinecone&lt;/h1&gt;" style="rounded=1;whiteSpace=wrap;html=1;" parent="1" vertex="1">
          <mxGeometry x="600" y="418" width="130" height="50" as="geometry" />
        </mxCell>
        <mxCell id="7SB77RebNlp5_hPHHmRt-16" value="" style="shape=image;verticalLabelPosition=bottom;labelBackgroundColor=default;verticalAlign=top;aspect=fixed;imageAspect=0;image=data:image/png,iVBORw0KGgoAAAANSUhEUgAAAnQAAACeCAYAAAC7KZcCAAAMbWlDQ1BJQ0MgUHJvZmlsZQAASImVVwdYU8kWnluSkJAQIICAlNCbIFIDSAmhBZBeBBshCSSUGBOCir0sKrh2EQEbuiqi2FZA7NiVRbH3xYKKsi7qYkPlTUhA133le+f75t4/Z878p9yZ3HsAoH/gSaV5qDYA+ZICWUJ4MHN0WjqT9AwgAAVkQAcmPL5cyo6LiwZQBu5/l3c3oDWUq85Krn/O/1fRFQjlfACQsRBnCuT8fIiPA4BX8aWyAgCISr3V5AKpEs+GWE8GA4R4lRJnq/B2Jc5U4cP9NkkJHIgvA6BB5fFk2QBo3YN6ZiE/G/JofYbYVSIQSwCgD4M4gC/iCSBWxj4sP3+iEpdDbA/tpRDDeAAr8zvO7L/xZw7y83jZg1iVV79ohIjl0jze1P+zNP9b8vMUAz5s4aCKZBEJyvxhDW/lToxSYirEXZLMmFhlrSH+IBao6g4AShEpIpJV9qgJX86B9QMGELsKeCFREJtAHCbJi4lW6zOzxGFciOFuQaeIC7hJEBtCvFAoD01U22yUTUxQ+0Lrs2Qctlp/jifr96v09UCRm8xW878RCblqfkyrSJSUCjEFYutCcUoMxFoQu8hzE6PUNiOLRJyYARuZIkEZvzXECUJJeLCKHyvMkoUlqO1L8uUD+WIbRWJujBrvKxAlRajqg53i8/rjh7lgl4USdvIAj1A+OnogF4EwJFSVO/ZcKElOVPN8kBYEJ6jW4hRpXpzaHrcU5oUr9ZYQe8gLE9Vr8ZQCuDlV/HiWtCAuSRUnXpTDi4xTxYMvA9GAA0IAEyjgyAQTQQ4Qt3Y1dMFfqpkwwAMykA2EwFmtGViR2j8jgddEUAT+gEgI5IPrgvtnhaAQ6r8MalVXZ5DVP1vYvyIXPIU4H0SBPPhb0b9KMugtBTyBGvE/vPPg4MN48+BQzv97/YD2m4YNNdFqjWLAI5M+YEkMJYYQI4hhRAfcGA/A/fBoeA2Cww1n4T4DeXyzJzwltBEeEa4T2gm3J4jnyn6IchRoh/xh6lpkfl8L3BZyeuLBuD9kh8y4AW4MnHEP6IeNB0LPnlDLUcetrArzB+6/ZfDd01DbkV3JKHkIOYhs/+NKLUctz0EWZa2/r48q1szBenMGZ370z/mu+gJ4j/rREluI7cfOYiew89hhrAEwsWNYI9aCHVHiwd31pH93DXhL6I8nF/KI/+GPp/aprKTctda10/Wzaq5AOKVAefA4E6VTZeJsUQGTDd8OQiZXwncZxnRzdXMHQPmuUf19vY3vf4cgBi3fdPN+B8D/WF9f36FvushjAOz1hsf/4DedPQsAHU0Azh3kK2SFKh2uvBDgvwQdnjQjYAasgD3Mxw14AT8QBEJBJIgFSSANjIdVFsF9LgOTwXQwBxSDUrAMrAYVYAPYDLaDXWAfaACHwQlwBlwEl8F1cBfung7wEnSDd6AXQRASQkMYiBFijtggTogbwkICkFAkGklA0pAMJBuRIApkOjIPKUVWIBXIJqQG2YscRE4g55E25DbyEOlE3iCfUAylonqoKWqLDkdZKBuNQpPQcWg2OgktQuejS9BytBrdidajJ9CL6HW0HX2J9mAA08QMMAvMGWNhHCwWS8eyMBk2EyvByrBqrA5rgs/5KtaOdWEfcSLOwJm4M9zBEXgyzscn4TPxxXgFvh2vx0/hV/GHeDf+lUAjmBCcCL4ELmE0IZswmVBMKCNsJRwgnIZnqYPwjkgkGhDtiN7wLKYRc4jTiIuJ64i7iceJbcTHxB4SiWREciL5k2JJPFIBqZi0lrSTdIx0hdRB+qChqWGu4aYRppGuIdGYq1GmsUPjqMYVjWcavWRtsg3ZlxxLFpCnkpeSt5CbyJfIHeReig7FjuJPSaLkUOZQyil1lNOUe5S3mpqalpo+mvGaYs3ZmuWaezTPaT7U/EjVpTpSOdSxVAV1CXUb9Tj1NvUtjUazpQXR0mkFtCW0GtpJ2gPaBy2GlosWV0ugNUurUqte64rWKzqZbkNn08fTi+hl9P30S/QubbK2rTZHm6c9U7tS+6D2Te0eHYbOCJ1YnXydxTo7dM7rPNcl6drqhuoKdOfrbtY9qfuYgTGsGBwGnzGPsYVxmtGhR9Sz0+Pq5eiV6u3Sa9Xr1tfV99BP0Z+iX6l/RL/dADOwNeAa5BksNdhncMPg0xDTIewhwiGLhtQNuTLkveFQwyBDoWGJ4W7D64afjJhGoUa5RsuNGozuG+PGjsbxxpON1xufNu4aqjfUbyh/aMnQfUPvmKAmjiYJJtNMNpu0mPSYmpmGm0pN15qeNO0yMzALMssxW2V21KzTnGEeYC42X2V+zPwFU5/JZuYxy5mnmN0WJhYRFgqLTRatFr2WdpbJlnMtd1vet6JYsayyrFZZNVt1W5tbj7Kebl1rfceGbMOyEdmssTlr897WzjbVdoFtg+1zO0M7rl2RXa3dPXuafaD9JPtq+2sORAeWQ67DOofLjqijp6PIsdLxkhPq5OUkdlrn1DaMMMxnmGRY9bCbzlRntnOhc63zQxcDl2iXuS4NLq+GWw9PH758+NnhX109XfNct7jeHaE7InLE3BFNI964Obrx3SrdrrnT3MPcZ7k3ur/2cPIQeqz3uOXJ8BzlucCz2fOLl7eXzKvOq9Pb2jvDu8r7JkuPFcdazDrnQ/AJ9pnlc9jno6+Xb4HvPt8//Zz9cv12+D0faTdSOHLLyMf+lv48/03+7QHMgIyAjQHtgRaBvMDqwEdBVkGCoK1Bz9gO7Bz2TvarYNdgWfCB4PccX84MzvEQLCQ8pCSkNVQ3NDm0IvRBmGVYdlhtWHe4Z/i08OMRhIioiOURN7mmXD63htsd6R05I/JUFDUqMaoi6lG0Y7QsumkUOipy1MpR92JsYiQxDbEglhu7MvZ+nF3cpLhD8cT4uPjK+KcJIxKmJ5xNZCROSNyR+C4pOGlp0t1k+2RFcnMKPWVsSk3K+9SQ1BWp7aOHj54x+mKacZo4rTGdlJ6SvjW9Z0zomNVjOsZ6ji0ee2Oc3bgp486PNx6fN/7IBPoE3oT9GYSM1IwdGZ95sbxqXk8mN7Mqs5vP4a/hvxQECVYJOoX+whXCZ1n+WSuynmf7Z6/M7hQFispEXWKOuEL8OiciZ0PO+9zY3G25fXmpebvzNfIz8g9KdCW5klMTzSZOmdgmdZIWS9sn+U5aPalbFiXbKkfk4+SNBXrwo75FYa/4SfGwMKCwsvDD5JTJ+6foTJFMaZnqOHXR1GdFYUW/TMOn8ac1T7eYPmf6wxnsGZtmIjMzZzbPspo1f1bH7PDZ2+dQ5uTO+W2u69wVc/+alzqvab7p/NnzH/8U/lNtsVaxrPjmAr8FGxbiC8ULWxe5L1q76GuJoORCqWtpWennxfzFF34e8XP5z31Lspa0LvVaun4ZcZlk2Y3lgcu3r9BZUbTi8cpRK+tXMVeVrPpr9YTV58s8yjasoaxRrGkvjy5vXGu9dtnazxWiiuuVwZW7q0yqFlW9XydYd2V90Pq6DaYbSjd82ijeeGtT+Kb6atvqss3EzYWbn25J2XL2F9YvNVuNt5Zu/bJNsq19e8L2UzXeNTU7THYsrUVrFbWdO8fuvLwrZFdjnXPdpt0Gu0v3gD2KPS/2Zuy9sS9qX/N+1v66X21+rTrAOFBSj9RPre9uEDW0N6Y1th2MPNjc5Nd04JDLoW2HLQ5XHtE/svQo5ej8o33Hio71HJce7zqRfeJx84TmuydHn7x2Kv5U6+mo0+fOhJ05eZZ99tg5/3OHz/ueP3iBdaHhotfF+hbPlgO/ef52oNWrtf6S96XGyz6Xm9pGth29EnjlxNWQq2euca9dvB5zve1G8o1bN8febL8luPX8dt7t13cK7/TenX2PcK/kvvb9sgcmD6p/d/h9d7tX+5GHIQ9bHiU+uvuY//jlE/mTzx3zn9Kelj0zf1bz3O354c6wzssvxrzoeCl92dtV/IfOH1Wv7F/9+mfQny3do7s7Xste971Z/Nbo7ba/PP5q7onrefAu/13v+5IPRh+2f2R9PPsp9dOz3smfSZ/Lvzh8afoa9fVeX35fn5Qn4/V/CmBwoFlZALzZBgAtDQAG7NsoY1S9YL8gqv61H4H/hFX9Yr94AVAHv9/ju+DXzU0A9myB7Rfkp8NeNY4GQJIPQN3dB4da5FnubiouKuxTCA/6+t7Cno20EoAvy/r6eqv7+r5shsHC3vG4RNWDKoUIe4aNoV8y8zPBvxFVf/pdjj/egTICD/Dj/V9VSpCelj2DVgAAAIplWElmTU0AKgAAAAgABAEaAAUAAAABAAAAPgEbAAUAAAABAAAARgEoAAMAAAABAAIAAIdpAAQAAAABAAAATgAAAAAAAACQAAAAAQAAAJAAAAABAAOShgAHAAAAEgAAAHigAgAEAAAAAQAAAnSgAwAEAAAAAQAAAJ4AAAAAQVNDSUkAAABTY3JlZW5zaG90d2d6uwAAAAlwSFlzAAAWJQAAFiUBSVIk8AAAAdZpVFh0WE1MOmNvbS5hZG9iZS54bXAAAAAAADx4OnhtcG1ldGEgeG1sbnM6eD0iYWRvYmU6bnM6bWV0YS8iIHg6eG1wdGs9IlhNUCBDb3JlIDYuMC4wIj4KICAgPHJkZjpSREYgeG1sbnM6cmRmPSJodHRwOi8vd3d3LnczLm9yZy8xOTk5LzAyLzIyLXJkZi1zeW50YXgtbnMjIj4KICAgICAgPHJkZjpEZXNjcmlwdGlvbiByZGY6YWJvdXQ9IiIKICAgICAgICAgICAgeG1sbnM6ZXhpZj0iaHR0cDovL25zLmFkb2JlLmNvbS9leGlmLzEuMC8iPgogICAgICAgICA8ZXhpZjpQaXhlbFlEaW1lbnNpb24+MTU4PC9leGlmOlBpeGVsWURpbWVuc2lvbj4KICAgICAgICAgPGV4aWY6UGl4ZWxYRGltZW5zaW9uPjYyODwvZXhpZjpQaXhlbFhEaW1lbnNpb24+CiAgICAgICAgIDxleGlmOlVzZXJDb21tZW50PlNjcmVlbnNob3Q8L2V4aWY6VXNlckNvbW1lbnQ+CiAgICAgIDwvcmRmOkRlc2NyaXB0aW9uPgogICA8L3JkZjpSREY+CjwveDp4bXBtZXRhPgo4xko1AAAAHGlET1QAAAACAAAAAAAAAE8AAAAoAAAATwAAAE8AABOHaXK1awAAE1NJREFUeAHsnXusVdWdxxd/6T8SH8mYmLGjYiF2HtWJlksF8ZaO1FqLMC0XquXitIIUiGCdMlPt8NCiOAr3iqiYAZtaxGurtgVT28wIRB4XJlHrULWaFMdJCDYV0PhIx8Qz53em67jOPnuvs9Z+nP24n53AXnuttX/r9/v89t3nm7Vfo2r1RbFAAAIQgAAEIAABCJSWwCgEXWlzh+MQgAAEIAABCECgQQBBx4EAAQhAAAIQgAAESk4AQVfyBOI+BCAAAQhAAAIQQNBxDEAAAhCAAAQgAIGSE0DQlTyBuA8BCEAAAhCAAAQQdBwDEIAABCAAAQhAoOQEEHQlTyDuQwACEIAABCAAAQQdxwAEIAABCEAAAhAoOQEEXckTiPsQgAAEIAABCEAAQccxAAEIQAACEIAABEpOAEFX8gTiPgQgAAEIQAACEEDQcQxAAAIQgAAEIACBkhNA0JU8gbgPAQhAAAIQgAAEEHQcAxCAAAQgAAEIQKDkBBB0JU8g7kMAAhCAAAQgAAEEHccABCAAAQhAAAIQKDkBBF3JE4j7EIAABCAAAQhAAEHHMQABCEAAAhCAAARKTgBBV/IE4j4EIAABCEAAAhBA0JXsGBhYt04Nrhtoen3D0iVqydKlzW0KEIAABCAAAQiMPAIIupLkfHjfPrVo4SL11h/+0OYxoq4NCRUQgAAEIACBEUUAQVfwdIuQGxwYUMP7hq2eDgwOqmnTr7L2oRECEIAABCAAgWoSQNAVOK+z+/o6CjnT/a1Dj6qeCRPMKsoQgAAEIAABCIwAAgi6AiY5eJ+cq4s9E3rU1qEh1+70gwAEIAABCECgIgQQdAVKpOvlVZvLiDobHdogAAEIQAAC1SSAoCtAXtMQcmYYPCRh0qAMAQhAAAIQqD4BBF3OOY57ebWT24i6ToRohwAEIAABCFSHAIIup1ymPSsXFgYPSYRRoQ4CEIAABCBQPQIIuhxy6vv0ahIXEXVJ6LEvBCAAAQhAoBwEEHQ55MnnMqs85HBpb6+6Y/XtsTzlIYlY2NgJAhCAAAQgUCoCCLqc0tVplk6E2A1LljTeK/fgxo3q9u+vDvV0+owZ6sknnght05XcT6dJsIYABCAAAQhUkwCCLqe8yj10s/tmhY4eFGA3LlkaKdo23H+fevXVV1u+7xpmNGgzrA91EIAABCAAAQiUkwCCLse8BWfpzFk5060rvnC5eumll8yqZvnfdzyjxowZo1wu43I/XRMbBQhAAAIQgEClCCDockynnqWLEnLiWq1WU+eefY766KOP2jw98cQT1cuv/rZZHxSIzQajgKgzYFCEAAQgAAEIVIQAgs4xke+8844aPXp0o7cIseAyPDwcrGpu76+3je/pUUuWLm3W6YLYsn1/9eWXX1ZfnPoF3b1lff4F56snf/azlrpOoo5Lry242IAABCAAAQhUggCCzpJGl8uYlt3bmg698d9tdZ0qfvrkk2rpDUtCu/XNmqXuuHNNS5ue9Wup/NMGs3NhVKiDAAQgAAEIlJ8Agi4ih2mLORkmjqCT15VsfOCBUC+Xr1yh5l57bVtbUNTZLum27UwFBCAAAQhAAAKlI4Cgi0jZ2Z/4i4iW+NVxBN21c/rVzp07Qwe1zbhpQSpibuvQUOj+VEIAAhCAAAQgUA0CCLqQPAZnuEK6xKqKI+gmfGa8OnLkSOh4z/36BXXKKaeEtkllp/vzInekAQIQgAAEIACBUhFA0IWka8H869XTv/hFSEuyKl9B99Zbb6kLL/jb0EHPOOMMtWe4/eGM0M5UQgACEIAABCBQaQIIupD0dnpSNGQXpypfQbdnzx51zeyvhdr+3JTPqU0PPRTaZquUS7GyhD1xa9uPNghAAAIQgAAEiksAQReSGx9BN/Xyy9Xcuf1tVmyvImnrHFGxedMmdevKVaGtCxZ+S31n2bLQNlulvrdO+sgrTGRB3DUw8B8EIAABCECgtAQQdCGp830gYsvWR9RnL744xFLyqmNHj6lXXnlF/bb+z1yv+dc71ZenTfMeICo23k/njZIdIAABCEAAAoUhgKALpCLOAxGnnnaqerT+JOknx44NWMtu880331Snn3661wDm7FzUjiLseuovQU5jhjFqjDTqo578TcN2JxuXXnpppy5daxcOJgvtm153zREGggAEIACBXAkg6AL44wg6MTFu3Di19bEh61OngaG6vhk1OxfmSNEvx/b29rYImbAYulFnCqfly5crczvL8VesWKFWrlwZOYT4In1YIAABCEBgZBBA0AXybJvFOvnkk9Xx48cDe3y8OXHiRPXwI1s+rihQyRZXJzeLeDm2KIIujJ2IOhFUsmQh8DqJOe2TjL1jxw69yRoCEIAABCpMAEEXSK7tgQiZgZs9sy+wR+vmVdOnq3WDA62VBdiKO/Noun7Z1KnqvE+dV4iHKIos6ExmWtylJexcxZz2gZk6TYI1BCAAgWoTQNAF8ht1WVJ/cWH7tm1q8cJFgb1aN6+bN09995abWysLsiUzdbIMrosvOovwKbGyCDqd9jSEldwrJ3H7LjJLl5ag9B2b/hCAAAQg0B0CCLoA506CTro/tHmzWrUi+v4l6fPdm29W182fJ8XCLkkuw2qBm1dwZRN0mlMSceU7O6fHTENMalusIQABCECgmAQQdEZebJclg/eR3blmjbp/w33G3u3FtQPr1PQZM9obClYTd9bO9i3ZrEMsq6ATLnEFVtyYZXaOe+myPiKxDwEIQCBfAgg6g79txipMvPzjTTepnzz2Y8NCe/HhLT9SEydNam8oYM3evXvV+sF7Gt+AdXEvjInLfmn0iStu0hg7DRtxRF2SmGu1WhpuYwMCEIAABApKAEFnJMb6QMTQo6HvZru2v1/t3LHTsPJx8R++8Q31veX/8nFFgUuPbNmiNqy/Vx0+fNjZSwSdM6rQjr6iLq6gY4YuFD+VEIAABCpFAEFnpNMm6KK+w/ruu++qWTNnqt8c/I1hSall//xP6voFC1rqfDbMy6BZPoTwq1/+qi7k1qsXX3zRx71G3/3/eUD9mefLjb0HidghrriJMJdbtc89dXHvoUPQ5ZZeBoYABCDQNQIIOgO1ywMRRvdm8dChQw1R9/s3f9+ou2vt3ervv/KVZrtvYca0q9Tzzz/ftlvwPr62Dh4Vzz33XEPIPfMfz3js1do1SuS29spmy0fQyUyYiJo0FnnSdNeuXQ1T5hca4tr2EVtxBZ2PaIwbB/tBAAIQgEC+BBB0f+JveyDC5YnOA/sPqHnf/KZav+FeNemSS2Jl1XYPnzY4s69PyXdc4y7/88Yb6t76pdXH6p8qS7K4MEliv9O+PoIuK0GjBZ18sUGXO/kd1u5z6dUnbhnLRzCG+UYdBCAAAQiUgwCCzsiTCKr9w8ONmuF9/7+WDdd7xQ797nfq7HPOMSy6FV2EnGnJ1R9znw8++EDde896dd+GDWZ17HKas4VxnPARNlkJOtNvEXRJhJ3PQwujRo0yh7aWuxG71QEaIQABCECgKwQQdBbMMmunlyw+Vi/2h+sC0vclv76zY/LePBFzR48e1eF0XJ900knq0+efr3Y/+2xoXwRdKBYV97Kozyydq3j0sRkeDbUQgAAEIFAWAgi6nDLlOysXdNNHUL3++uuq95LJQROR2/Kli4WLFzVeoBwlNuPMEkYOGKOhaDN0ZghxRZ3PLJ2MJ+PI/Xzm5V65xDp58uRGm+kTZQhAAAIQqDYBBF09vzJTlsUMXNihk1TImTZ9RN2aO+5QD9x3v7l7W1legixCbsyYMY22OE/9thnNqKLIgk5CFrEll2B9liSXR0XUiZhjgQAEIACBkUlgxAs6LbB8xFGcQ0XGkfvzzHvz4tgJ7uPq93vvvacmffZidezYsaCJxkMcIuTGjx/f0hb3qd8WIxltFF3QSdg+Pkp/LpEKBRYIQAACEIhDYEQLuuAMlKs48gWtRaPvfq79XS9/bt60Sd26clXT7HmfOk8tXLRYXfGlK5p1ZiFK0GXFyRy7U9lHLCWZ+erkh63dd5YOQWejSRsEIAABCNgIjEhBJ5dYBwcGQmfLXMWRDapuy1rI6XFk7fpOuKmf/7vGLN3CxYtV/9x+00RLWRjN7pvVUqc3EHSaROe1zxOpYs33PrrOHtADAhCAAARGAoERJ+hsQkUnPC1R5yvo5sydq374gx9oN7zWrk++bvv5z9VlU6eqE044wWrf5ntafKwOdGgswwydhODjp/RH0AkFFghAAAIQ8CUwogSdi5gTgGnOQEVdtjQTpcf75dNPq+vnzTebmuWJkybWXyGyu7kdVtB2wtp862yCznU20HdMn/4+QimvS64Sj+9l1zx99eFPXwhAAAIQKBaBESPobALFTEmaokjs2saVsXp6eppP2N4zOKjW3b3WdKdZ/s6yZeqP//vHju+sS8v/4P2FTUfqBQSdScNeRtDZ+dAKAQhAAALpEBgRgs4mqkyMaYkh06aUw8YPG2vRtxaqp7ZvD+7e2P63hzarKVOmhNoK7hBmO9in03bUzKLrpd1O9pO2M0OXlCD7QwACEIBAlQhUXtCFiamwBKYhgsLs6jotkGzjXDbl8+q1117Tu7Ssn92zW/35mWc26lxiSnKfm+3StM3/Focz3iiLoJP3w4mvrguXXF1J0Q8CEIAABEwClRZ0tsuGJoRuiBQRSbaXF3/44Ydq7JhzTbea5dGjR6tfH/yv5rYUOsWWNCbxVz5LJov5/rykdhsGU/ivLIKOS64pJBsTEIAABCDQkUBlBV0nwaPJJJnJ0jbSWB88eFBd+cXw98FdeNFF6seP/6RtGD3rF2woiugK+pXmNoIuTZrdt6U/V1bFr1tUObawI6UqXykZaXmLyqXUV+nvUufVjLdK8ZlxVU7QycySPCn69ttvm3G2leVesBuW1B9KmDChrS2Piicef1x9e+mNoUNffc3V6rbVq9vawi6NjgQxJyDKIuh8/JS4qvbaEjmZ6k+ghZ1YJWa9yElWvkMri8xsFnnRsfjEJvGUJT6TvW+ssm9Rc+kTi/7RL2POzPyFlYWD67ErLzyXRXhoJmE2i1DnE5f2V2KqSo4rJejCBI5Omrk+6+yz1Or6t03HjR2rTj3tNLMpt/LtdcH24AMbQ8dfeesqNac//CXA5v10RZltDA0i5UofoZTnfWlZvFjYPGnZsMpJykcYSd9du3bZTDba5ATf6cSufZR13EX/kPjEEHcsl/10TNI3SVx6rKLFp/3S8bn+4Jv7RZX1j6asOx07UTbi1qeZtzxyJuc6l0XOc7ZFc0h67AqDovxNSrxpxaXZ5ZFjPXbidX1GoDLLurVra2ed+Qmvf+MvvKj29auvqd22alXtsaGh2gsvvFB7//33u85k7pz+SL/rQtXqz769e63taTZ2cyyb3/UfhVr94Hf6Vz/R2Uxl1ibjuvoo/SQml6V+wnGyK/18FlemNruuvvlwEZt55VD4ydiubHziMvvamPrkMGnfbsXajXizjqUbMUg+zePEVo7KfVYcuhV/VFwyvo1HGm15xxgVe1S9XOKpzOIr5mz9ey+ZXJt/3bza3XfdVdu+bVvtyJEjmXKaML4nUtAdPXo007FdjJti2aV/1n18fmDlhJbH4uOjnHxcTx6uJzJXe5qNq79Rdl33j3uijRpX+5/2OqsfQlv83Y5RM6tSrN2OJeuc2Y4Xs03n0lyLb2aftMtZx27Gosvdzq8wyyNOHa/PulKCbtbMmZGiyCbeOrWNO/eTPky9+x47dizS7wmfGe9tL80dRMgFuUpd3ouPeJATQLeXOCdSVz9dbfuehFyZBu2K32n/UETZC46dVV5dGUf5maS+WzFqdnnGKpzSijePH3ozz2nFofOi1+YYtrLur9euf882m65trucu7VucdVXzG4dF1D6VEnTmLFInkebT/uUrvhTFL5X6+utBIgVd/9fnpDKGrxG5tGrj6Wsv7f4+J6tunGzM+GQ81xOh7ifxuC6uP8C+PzCuTE27rr7oONNYm+O7MvPp58ohjVhsNrpx3BYlVp/jPyyXcf7mbOzjtmVxbLr6YnLJI69ZHq9Fya/kIss4zRzGKVdK0AmAv/7Lv4oURz4izux7043fjsPWeZ+3jx+vHdh/oPajHz5c+94tt9T6vvrV2gV/8+lGHKtv+76znbQ7mgyC5bxn6XxOWN38A4wrcHx+CFzH8LEpx44rU9Ou649N2v1MH9I67ov0o6F5ZXXsil3XfGtfurGOE6/r30M3/Jcx0j42Xf3Wfwd58ZDjKYslr3hs3OMcp1mwCdqsnKCTmaWg+Ei6/eDGjUFuXdk+fPhwbfezu7syVtggthk6YZrn4vNj1K0/viQnHh+WruNIP5/Flam269rfdmJM0pZmXl2ZJvE37r5pxinHg9iL60s39tPHl8uxW9S8pSluXJkLr7x5pBl3EeKxsU/779LleO/Up3KCTgIO3vNlCrppV15Ze2r7U43LiQvmX1+b0tvbUQDu3LGzE8fKtpvsguU8Z+l8xESWf3hiO+lJ1Pck6Dqe9PNZXJmKXVcfbCfEpG2+3KJYJI1F/JDjQP/T4+jtNHiJrTQWsZOUe9b7u+Y1ad6yjkPsp7G4+lmU3KZ1rCbNb5n+LtM4TsTG/wEAAP//qdizkwAAHLBJREFU7V1trB7FdV7/Q0JCav4ECxWcD2hDQ1u1FVyHqMZg7Di0AlqCoRIklKaQr9ouBEyqFF9I2kIabKchJbFNyAcBh0iQSmnNR4IvEHztPzUQGhtZfCeUryAEErYs2O659FzGc2dnnjM7O+++u2ek69mdPXvOeZ4zc+Z43/funVdWrehZm96+vTh3xTm1qG7ZcmsxsXDh7PX9+/cXjz32WPHYnj3Vz9v9nsf2FM/9+rkZme07povD58+flR/Swfp164oN69bXQn7i6adqr7V5YfHixcW2bdsgE/fee29x0kknQbJ1QmyLe5KbnJysE4fHyS/yT9LWrl0L2b7yyisLkkWbhFNUJ+FbtGjRjDjHICWHKWI7b948FM6sHGEhfhnT7AXgAI2fqYrsSOeJeT8fx2Dle7lnzBxXHqd+amqqMONrXkOOUZwxHNr2bRx8bvqfC4/tm3meImamPsZJ8ePjrmGOjS/hiVmXnCelOZ3spViXZnwaHVNB18d2ztlnlwt++0jnD11D2iuvvFLumJ5GRHstU8cjja+77rqRYK8WEv1HZOx/qmQg5q9KWBBukpO0VJySHgku8hPFZMecbDVpMZilvNb5J8Us4dRlMwYr8y2NKfkqxYfGUqqXMVDPOKRcks1Yu3Rfk2b63+SY/JDgjsVLPkrs2NzQvVKcHFdbl/ScMJMuif2m8ZX66JMvfBfH+dr2Bx90FnNcnIyqEBlHTokr5s3Vj4JL6aKTLNBcsrGJAE20Uv0pOG2SyFFcdnxibUrtpdo0zBwg9cG8V3IstcMcp8CM2CYZpMVs9oQlBQ7yj/ykH+YH7eme2IbaqJNrYpt8jskLdE9sk9pris/lpzTGsTnIZbvJWG8LOiLF95SOChNtOAM+LrWgkz8pbJKE0GQjtSFNpOYGQvemSmqmXuQ4ZvNAOWT7Ui7xlfV2kcB2Qn0OrOxDasx1nEvssG+SXqIfjVsdFp9fsevDpzN0LRX2GLwol6ac1E4qfKYPfCzxJWZdsp2Ufa8LOn1K558qn/30Z8pPXXRxWX1Hrtz6X1vLJ594ovaGrj2lowUUSmZdvd40CaGJRmonltPUyYw2PknsYuy3rb92IdVcQGNKfksLAwlWlpXaqIE1Z9jGKZmj9r3sq6+X6J/jbGAgxzwlF3z4fNdSx1CaH2Ls+/DY19qMLYdegjkGL9tJ1fe6oCOSQoUIFX2jbuQjPwHL+bRrycmnzPko9YMfOLY868y/KP/hii+U3/3Od8udO3aUr7766gxFIS5z8ihZaHYiGOV5iiSEbmxSW7GcthF3FCPHUpJMJbqJk1wN5V/ikwRrDJcx3LBP1Esa+4f2kjkh8cOUJRuoPyQX45NEP8tKuTUx1R1LsUrmKdnkecEYfH0b+Fy4JZileF32mo71vqAjglzf++Ix9BckmhLtuv++qSmnbzl82rdvn9M282L3f3rih2cKPXvcPM9ZjKKbny8p5LyWMgGhiU9qM4ZTqQ3XOqgbk8RHslFK9LaJz8Yt2Tzse+vOJVhJNhdeSbwIG/klwZILB/kmiVvMpi/B3XYMJTlCilWCk3jP1SSYc/lUZ2cQBV3oo9fcT+nIHj+RMwsi83jh8SfUxSzJ+K5du0QFnemb7/jll19O4l9IiWSRSRJFalnaWFJvLqQP8VNqV8qpVH8opvZ1FCdxgRYIEp1t47Px0jkaAwSvBCtxOAq8Lg5cY8h8Z5lR4JBwjcTO5IBxob15b+pj8h31g+Yy2iT85Y6vBLM0tig/qNwgCjoiw1dA5XgixgHx+WEXSm0+8dpy662tFHRfufYrDLXVHt340OSTWo6STluJh/Qi/krtSzmV6pdOCEkiRX2RYJT6m0IexYxslhKsNJ+62tD5zmtiVDhQvpHYmRgYF9Kj68DULz1GcUrmFIKNZHLgc/GBYpbG1mWryVh3V3ETVI57657StVk0mW6Evn9mF3N83pZ/k1eubaWgI79zNHSBoYmiqRwlmlzJhuwg/kr9kXLapTijWBHeSAbVl5oDtKAjH0MNxTpKvCEMdF0yL0cVN/JTEjuSRVvX4iiJB4KRYoZiHFV8JT4imNuSmUeKKzIH0c5dsaKY3j49g3Vi4USxctWqg/5iRBsk0F+t2LB+/azdGBv2X7aI0WHf84nzzi92795dPP/88/alxudt+Gs7JfmrBtVitG+PPq+S2ey95vHsYIYD9C3qhJvfgI64JeVUohux75JBfaJYVJukS8XsGMob3SDlbtZIggP0LwMQ3ro5KMFKLnd5G0D56AIOdL76YmdPoa7hp78qQTiRhswryVxF9CF+SWUkmCWxlfoRlK8IGkzj767l+M4c2+InbU37tnx+8YUXyvvvu7/ctHFjeekll5R/ftpp5THve3+jp3dt+WpO1Gojg/9XVy0w89axP0b/t0hyktZFTlGs5HuoobqqpBlS1ep1NA6+eS3BKp0nrYK3lI8bDooJzZ/QDzJfmYqQLr6eK44oRvLLN0cZHzrfc+Fjv+yeeQ71CGZbd6rz0WauVCg6pif241Vf0Zfze35E5549e8r/+PGPy2uvuaa88IILyj/5oz+GirxcfqJJAE0qHZtCXnfQTU6aACWceh1MeBHFimyQoUTM1xFdCSHOUYXGwecnY0F66TyZ43CLA2j8CWcXcEiKHZQ2JIY58UswIsVN1/DVxQX107cu63SnGteCLhWTlZ7UT+XsAi9XsWRTQrhsX1znZ55++gwH9v1tnKObHi1CJKm04WNbOtFNTrrBoZzmTFgo1pBPkk1IylvqOKfAjG4+JNflNo44UJ/RvJRaX4p4p/JJsi5RvlLgc+noYn60/RzUd+iqSdhaM7+f15qRSvHK1auKVatXt2niIN3r160rqr8kcdCY6+ToY44p7rrnbtelVsbQ76qQ8SoRFNVibMWPUShFv3NSFQYFyaIN5ZS4JE5zNPS7KyGfUD2EiXQtWrQoBzynjampqYL8RVqV0OeISbDSzS4dc5SOaKBr3x9DaEDXEbo+UQ5yxhH1KZR70VxGvBNfo2yTk5Ow+ZyxMJ0aVEFHv6AwPf32L0UwCRMTEzOHEwsX8lBU/54jj4Lvo1/IOPTQQ4uf3vNT+B5TMFdRhxZzufwxOUCTJt0TSiqm3nE4RpMgumEwZpRTqV7WH9OjxUnKgi7Gz1Hd49o4UM7I55yxlHIkwRGKv9R2E/nU6xMtnlxzoQkO372oT6Hci3Ll86WL13LG4iD8leHBNN9Hh02/yO/TzR9P0kembOcvqz+vxeN2/4U1V9ReY1nW01bw0O8BtvValRCuKoHTownop0oqIXVjdb3ahCHcJCdpKKdSvRIfbFmKHRJn8t3XUM4QW12ScWFGOSMcOWPp8tU3Nq440LkWmrPMDTrfWD5Hj/oUyr0oV6i9rsjliIHLRre/QOHyuMGYr+hKUSBRwcYFl93bhc9xx/5ereyBAwe8L0Jm3Sl8dtHZ9WKOfEaLD1rgoaTi4qDLY2gSJDlJQzmV6pX4YMuim3poc0Q568qGgPrhmtsSrDljacc2dD6uOFLNWeYHnQssn6NHfXLNT9M/SYxRm12QC+E2OUh5PKiCzleopCiOXAWj+VSOA/f0U0/XFnNLT1nCYrUyXNC18UsSvqKU7VJvF6izTmc6QIsPWtyjWlxtUYEmQelmjXIq1duEB4odkqC1oHuHZXR+EK85Y/mOh9jRuOJINWeZpRTzn3Wl6hGfSCaUeyUxRm12QS6EO1UcbD1a0FXFCRUoSNu8aVNQjAsiVyHHN99z9921xdpnP/0ZFpv5eNYsolzHqYo6VzHqskdjKYrfWZCRB2jxgSSVSBdGdhuaBKWbNcqpVG8TolJtjihnXdgMJD64Ng4J1pyxlM6DccWRas4yX8h8CP2HhnWl6hGfSMY1P00f0JyD2uuKXAi3yUHKYy3ogILu2WefLT954YUzRdiPbrstyH/o6dX1X/96bUH3bxu+dpB+31NFLrhSFFiInVTF40EAI08kiWBUiysSWvA2dKOTbtYop1K9QUAeAYodkqRDGxqqB7HVJRnX3JZgzRlLT5idl8YVB7o+Q3OWSUHmG6qLdTbtEZ9IxjU/TdsoV6i9rsiFcJscpDzWgi5Q0FEBZ37fjY6feeaZRjFY+bnP1RZ0d269c45uX7GVophjgz47dK1LDS0+kKTSJVyIL2gSlG7WKKdSvQimOhl0Uw9taKiermwIqB+ujUOCNWcs62JcNy7BEYp/nY02xlOvT2Qu5MaP+EQyrvlpco5yhdrrilwIt8lByuNBvbak7l1x9BqRW7ZsqebCO+31118vqj9gX1QF3TuD/3+05NRTi42bN80ZRweWL10283dUXfLb7psqjlqwYM4l23eXz3NuihhwvapkFK8lCbmOvmKD9FSLq6gSXkjl2FxHf9W/SpYFyaIN5VSqF7XvkkNfXUHxpTjXNVQP3T9Oc4ViYfsrwZozlnWxqRuX4CAOfPGvs9HGeOr1ibwiJDd+xCfiNpR7pTFuI16kM/V7JyV5NymmlNVh13Xx99v4o0ru7Y8S777r7vLDCz9U+xSN7tv0rY1RcN98883yvUctcOo+9nc/4NXJ/rf9tMx8Ute2LS9gz8UqgUEfxVWLpaySikfT+F2qNmEIO8lJGsqpVK/EB1uWYkcxDP2Q776G6iE7OfH5fI69JsEa4i3Wh1T3heLO17uEg+YP++Xr0Xnm08HXcuNnu6E+lHslczWkK9WcG2c9g/rIlQsiLuS4Nwu6qyevchZbLGv2jzz8sDj2v/yfX9bqpz+d5Wv08WquAos4yWXLh7nuGiWwUDLh631LBKk3DOYY5RTdiFhvkx5N+MiGxvMh1CO6mmBq+16UM+ahbX+a6Gcfkb4r6xzxlWRQfxF9uecs4hOCUTJXUb6azLdxv3dQBZ1ZjJnHVLjs3LmzPG35R2uLLVOenrB956abomJ/x+131Nq4/LLLonQO8Sa0+ECSyrjxpwXd3Cd2yIaGzhlEV9fnDLrhdn19oDHrCg5JgYLOISSWuecs4hMaE1RXzv9IorHpmpwWdNXHp9X302qLLLOQo+O/Oufccs+ePdFxvPZfrqm1dePmzdF6h3bjuCX6lPHRgq7dgo42mHFvkvXR5Y1SUiDlLmpcc6SNtYkUPLmxIz6RDPJUDZ2ruTG64tv1sfHPXAKG7eJMev61DRsE1tyiF17w17UF3QP3P+C+STC66793lWeefkZJr1oJNfoIlz5apZ+Uvy0bspviOpoE0KSSwqdcOtrYNMh3lNOcBQC6oSPJHtXVhzkjwUp4u9zIP/QHKSDaxIr6KVlDiE5k/qfEjfhEMkg8JHM1JYY+6ur2Sk7MuLSAY/nTli8vd+7YmcSbvXv3lv/5k5+U669bV37qoovLUxafPFvgvfjCi41s3PCNf5/V9ckL/yaoiwo5xsj9uBR3aPGBJpUgWR0S0IJu7gaPbmjoRoTq69C0OMgVySZJnEgKjIMMZTiRrPVRxg1dl8S3pCFzNjduxCeSSV3QIfok3PZNVjazxhg9PYHiokXS0y9JtN32799fPhzxCxbs1+OPP15+/Lzz5+AL/WWLOh6oqOt6kyT5viUBdOOQbtIop1K9TeYSxQ7ZPNANDcWIbkZNsLV9rwQr4e1qQ+cAz5NRrXe2H+ql6yekj66j8z9VjBGfSAaNBTpXc+NMxVcuPd1dxYkZkBZ09NoSen1J19sPvn9z+TvvP3pOMcfF2qOPPuqE4ONjHD5+RROAJKk4iergoBZ08U/oJMXBqDYP8lG66bumqQTrKIoCl891Y2gBMSoc6Jok/6SxRbDnnquITyRDcxBpbfKH2EdkyEdp7BC9KWUGU9D9cMuW2qKHix/uL/37S8rXXnstJc+t6dq9e3f5niOPqsV29llnOW27Pm5l/FrQOSnrzCCa/KTJBy2SpXqbEIcWJZINDcUZs/k2wcr38mZJfqIbIt9r9xKsOfFKcaFznrnLOUclvsX4xZh8vWT+23Mk5tzni3lNEmfzvtCxRG8MPvsessc+xcTQ1tfW+WAKOno1CRcsSE8FD90zDsXNTd/+thfbdf/61Tnzp46Dcfi4lcBINqrci38O2YkH0A1EmnhQTqV6m8A3EyknVFcv2dBQnWwnJ15XDJrYl2IlzE3sIbFmn6R2XNxwjFy9VD/iuy3DWFz2XWMxPrn02GOS+W9jiDm37dedEz9oI27q9LjGJbpRH1xydTHOZd/lU93YYAo630eMdcWNOU7FHf10tV38txd5i7oHf/7zWdd9XGhBN0tTZw/QxCfdPNANU6q3CZF1ydRO8NINDcXKdnJg9vnUxL5PL+Oz+yb2fPG24ymxY99r++w6l+j3+e26RrpdNuvGYn2p02eOS+e/C49kzLTtO5YWPT5drmtS/RKMJBuac7ExlfqByg+moCNCzAKtyTE/vUNJziH3v889V/7hcb9fi3HZklPLt956a8YV8r8O/zg8kSQQkk2q7UWfI76mDXQjkSYblFOpXtN36XEooXKSl25oqF7WT31buFFfCCPJShuq38TaBl7iz7YhtYPOUdNOG3Grw2LatY+lcWN5W4/rXDr/WXds7/LBNSadrzG8thFf4gX1pS37MbEZVEHnezJVV+D4xrv2xO6O22+vLdQIx5Vf/OLMHPEVdDGTaBT3SBK7NKmMAo/EZluJBuU0ZwJDi5GYDQ3Fa29UKfGjsTR9iLEfi5Xsxtgz5zPFMGQftYHOB5MvPkZtmL7bxwgWtmf2TWybeuqOY+a/jU1yXueHPU58SVtortg26JzuacKx6WNsjGOwmnZTHA+qoGPCqBBbcdbHvMWPr5Dja6yvS/2a6s+HsX+ufsP69bXXx+XjVuJbsui7sNBSzhFKXK6kZo9JExzKqVRvE+wUOxuX65x8j2kuXehYLA+xGwb7FWsXjS/bsXuyK1lLUpwoLtJr+yY5j8FB98Tyh+Kqm78Ittj5X2czNI74RDKS+cI2m8SXeIjlm+zGxpiwxtpl3Cn6eaSkcmawbXr79mJ6errYUf1Mb5+GeZhYOFHcsmULLJ9LcN++fcVHli4rnnrySafJ33rXu4pXfvMb57VbttxaTCxc6LzWtcHFixcX27Ztg9yqFmpRLVRIdhyE1q5dW0xOTgZdrRJMQbJoQzmV6kXtu+QoxuRXqFF8Kc7Shur36SXbixYtmpljrnnG85T6qampgs99OuuuNeGe7CJc1tk2xxmzOUbHhI9aLEYUH7oGZpzx/BPC0QQL3Yvi8bhYzJs3z3d55hrhiJn/QcU1AohPdGts7k0xV4l7asQN/diN5yj1o1yXtl+NzlNUhX3Swb/84Hq6ZY5JPm594403yvumpsp1X72u/Pwll1Yfff5j+YObby5//atftULdvT/7We1TOBODfdyKMy0prRYo/L/0Kqm05MVo1FaJCsJOcpKGcirVK/HBlqXYVQku+EO+xzaUT8QPUwbl07zHd5yCd5RPnx9tX0NxthW3VPiazElzLiP+pLJl2vUdIz6RTJPc21Z8u7gufVxLrg3yI1eUIPrOHRVuru+cob88UD0BLFf93UpngbV0yZLyxs2bUXdEcv/85X9y2rSLOD4fp49biQjJomySVESkZxJGEx26MbLbKKdSvaw/pkcLkKYbGsopupGllkvJedexStZrV7E0nY/mWkHmUkp7pu26Y8QnkpHE0mWrq/Fl/CnXpQu/dEwLOgFj5tM75DYq5pYv+0iwsPrG9dcj6mZkqJCk4sv+Yd+oJxn6OWXx4qBtLujQAhV2tGVBtPhIkVRahiJWjyY5abJBOZXqFQM0bshV0JFJlFdO5rn6NvhGec2FkezQ/IspALoWt9TxQmLQ14JuaOvSSH1Rh1rQRdEWvqn6Llu5eqX7yRwXUdz/wQePK7du3RpWWklQwcb3pey1oIPo74QQuoFJN5ahF3QU3K4VOjEFjmSSonMJKSqayDQtSLoSN+maQ2KF8NqUP8QPUwbxiWRSzd+uxJcwEdepcJmcpjjWgi4Fiw4dD9x/v6jwWnPZ5Q4tc4faKOjG7eNWYgUtPlImlbnRGM0IuglLNxeUU6neJiyhiTz1hoZyjG5sUrmcHPcJ66iwtLnJI3Mn9fwPrVnEJ5JJXfiMKr6MN+e6DMXAdV0LOhcrCcZ8rwdxPVlbvnRZuX///qDlNgq6P/voaUG7XRNAi482ksqouUCTmjT5oJxK9Tbha1QFHflMOOmHk3mOvs3CIBSHPmHNhSVHvJB5R37kbIhPJJO6oCOMFNtc8WWcufmNjaUWdLHMBe67Ys0a0RO6o9/7vpI+pg01eprmKgibjE1t2xYy27nrtMB4sYX6NpLKKAlBkxnJSRrKqVSvxAdbdpQFHfuC8h2ah77rxH1X5mnbeHNhJRxtYcmFgeagb97wNfInZ2O7ob7NOU2xJdwhH5pczxnnFPEb/HvoqmC30r589ZeKTRs3wroPO+yw4qFfPBKUP3fFCtH78oIKK4Ennn4KEeuUDL2Hit95FXKsWvhFtTBDYmNzHcUuxY3qpXeukWyORu+IQt65l8Mn8iXFO6uYN5qTFCNqXZyfPB8Ic9M2aqwpsHCMpOuqKXfIuwNzzH8TB+ITyefiivMRkitMHK5jnqscb5dMV8e0oGspMj+67baieuccrH3psmXFNzd+KyhPL0KuPs49SE7yQuSDbqxOVq5eVaxavdoe1nNlQBkIMMCbiPkfC1fxY28MXS7i6iA3wWrjr7ORa5yxkL26F8qaPo9jvHJx2UU7Znw5xtTz2jRjS+NUDFOjcfvazIUx+kcLupaC9dJLLxUXfPwTxS8eCT91Ixeu+tLVxXnnn5/EGyr6zEZ/CYNa9YLj4q477yoOP/zdxQkTEzNjWszN0KD/KAPKgDKgDCgDY82AFnQthu/73/tecdXayeLAgQNeK6efcUbx+csvK4444givnF5UBpQBZUAZUAaUAWXAxYAWdC5WEo7duPnG4ps33FC88PzzTq1nnHnmzMeeCxYscF7XQWVAGVAGlAFlQBlQBkIMaEEXYijB9W3VHw2vfpO0eGjXQ8XevXuLQw45pDj+hOOLD514YrH45JOL+fPnJ7CiKpQBZUAZUAaUAWVgqAxoQTfUyCtuZUAZUAaUAWVAGegNA1rQ9SaUCkQZUAaUAWVAGVAGhsqAFnRDjbziVgaUAWVAGVAGlIHeMKAFXW9CqUCUAWVAGVAGlAFlYKgMaEE31MgrbmVAGVAGlAFlQBnoDQNa0PUmlApEGVAGlAFlQBlQBobKgBZ0Q4284lYGlAFlQBlQBpSB3jCgBV1vQqlAlAFlQBlQBpQBZWCoDGhBN9TIK25lQBlQBpQBZUAZ6A0DWtD1JpQKRBlQBpQBZUAZUAaGyoAWdEONvOJWBpQBZUAZUAaUgd4woAVdb0KpQJQBZUAZUAaUAWVgqAxoQTfUyCtuZUAZUAaUAWVAGegNA1rQ9SaUCkQZUAaUAWVAGVAGhsqAFnRDjbziVgaUAWVAGVAGlIHeMKAFXW9CqUCUAWVAGVAGlAFlYKgMaEE31MgrbmVAGVAGlAFlQBnoDQNa0PUmlApEGVAGlAFlQBlQBobKgBZ0Q4284lYGlAFlQBlQBpSB3jCgBV1vQqlAlAFlQBlQBpQBZWCoDGhBN9TIK25lQBlQBpQBZUAZ6A0DWtD1JpQKRBlQBpQBZUAZUAaGyoAWdEONvOJWBpQBZUAZUAaUgd4woAVdb0KpQJQBZUAZUAaUAWVgqAxoQTfUyCtuZUAZUAaUAWVAGegNA1rQ9SaUCkQZUAaUAWVAGVAGhsqAFnRDjbziVgaUAWVAGVAGlIHeMKAFXW9CqUCUAWVAGVAGlAFlYKgM/B+PuioU2ld1SgAAAABJRU5ErkJggg==;" vertex="1" parent="1">
          <mxGeometry x="601.41" y="427" width="127.18" height="32" as="geometry" />
        </mxCell>
      </root>
    </mxGraphModel>
  </diagram>
</mxfile>
